<?xml version="1.0" encoding="UTF-8"?>
<svg width="64px" height="64px" viewBox="0 0 64 64" version="1.1" xmlns="http://www.w3.org/2000/svg" xmlns:xlink="http://www.w3.org/1999/xlink">
    <title>E0C333FA-F5D5-48CB-9661-28712869DF44</title>
    <defs>
        <filter id="filter-1">
            <feColorMatrix in="SourceGraphic" type="matrix" values="0 0 0 0 1.000000 0 0 0 0 1.000000 0 0 0 0 1.000000 0 0 0 1.000000 0"></feColorMatrix>
        </filter>
    </defs>
    <g id="✅-Activities" stroke="none" stroke-width="1" fill="none" fill-rule="evenodd">
        <g id="Activities---Point-History" transform="translate(-846.000000, -4188.000000)">
            <g id="Group-6" transform="translate(690.000000, 4129.000000)">
                <g id="Group-3" transform="translate(156.000000, 59.000000)">
                    <circle id="Oval-Copy" fill="#FF5F00" cx="32" cy="32" r="32"></circle>
                    <g filter="url(#filter-1)" id="Icons-/-20px-Copy">
                        <g transform="translate(32.000000, 32.000000) rotate(-90.000000) translate(-32.000000, -32.000000) translate(20.000000, 21.000000)">
                            <g id="Icons-/-20px" transform="translate(0.200000, 0.200000)" fill="#FFFFFF">
                                <path d="M10.5166522,1.31910678 L11.8024387,2.60489322 C12.192963,2.99541751 12.192963,3.62858249 11.8024387,4.01910678 L6.821,8.99958441 L22.0272078,9 C22.5400436,9 22.962715,9.38604019 23.0204801,9.88337887 L23.0272078,10 L23.0272078,11.6 C23.0272078,12.1522847 22.5794925,12.6 22.0272078,12.6 L22.0272078,12.6 L6.833,12.5995844 L11.8024387,17.5695685 C12.192963,17.9600928 12.192963,18.5932578 11.8024387,18.9837821 L10.5166522,20.2695685 C10.1261279,20.6600928 9.49296295,20.6600928 9.10243866,20.2695685 L-0.0192388155,11.147891 C-0.214500961,10.9526289 -0.214500961,10.6360464 -0.0192388155,10.4407843 L9.10243866,1.31910678 C9.49296295,0.928582489 10.1261279,0.928582489 10.5166522,1.31910678 Z" id="Combined-Shape"></path>
                            </g>
                        </g>
                    </g>
                </g>
            </g>
        </g>
    </g>
</svg>