<?xml version="1.0" encoding="UTF-8"?>
<svg width="64px" height="64px" viewBox="0 0 64 64" version="1.1" xmlns="http://www.w3.org/2000/svg" xmlns:xlink="http://www.w3.org/1999/xlink">
    <title>A0A48C0C-0604-49ED-8A6A-795B79D6725E</title>
    <g id="✅-Activities-Branding-/-Cases" stroke="none" stroke-width="1" fill="none" fill-rule="evenodd">
        <g id="Offer+-brand-boost-pending" transform="translate(-156.000000, -465.000000)" fill-rule="nonzero">
            <g id="Lists/Wallet/Activity-detail/Earning-points-Copy" transform="translate(0.000000, 391.000000)">
                <g id="Icons-/-30px--Copy-5" transform="translate(156.000000, 74.000000)">
                    <circle id="Combined-Shape" fill="#F7B500" cx="32" cy="32" r="32"></circle>
                    <path d="M30.5909286,16.0163454 L25.8794702,24.89641 L15.3491422,26.3185502 C14.0591473,26.4921621 13.5431493,27.9697103 14.4759149,28.8156066 L22.0968081,35.7268383 L20.2987536,45.4860441 C20.1241081,46.4316749 20.933828,47.2 21.8507167,47.2 C22.0928389,47.2 22.3428994,47.1482858 22.5850215,47.030082 L32,42.4238255 L41.4189477,47.030082 C41.6610698,47.1482858 41.9111304,47.2 42.1532525,47.2 C43.0701412,47.2 43.8758919,46.4316749 43.7012464,45.4860441 L41.9031919,35.7268383 L49.5240851,28.8156066 C50.4568507,27.9697103 49.9408527,26.4921621 48.6508578,26.3185502 L38.1205298,24.89641 L33.4090714,16.0163454 C33.1232879,15.4733464 32.5596593,15.2 32,15.2 C31.4403407,15.2 30.8767121,15.4733464 30.5909286,16.0163454 Z" id="Path" fill="#FFFFFF"></path>
                </g>
            </g>
        </g>
    </g>
</svg>