<?xml version="1.0" encoding="UTF-8"?>
<svg width="20px" height="20px" viewBox="0 0 20 20" version="1.1" xmlns="http://www.w3.org/2000/svg" xmlns:xlink="http://www.w3.org/1999/xlink">
    <title>E78852A0-2C5F-4CDA-9500-204651DD20DA</title>
    <defs>
        <filter id="filter-1">
            <feColorMatrix in="SourceGraphic" type="matrix" values="0 0 0 0 0.564706 0 0 0 0 0.606536 0 0 0 0 0.627451 0 0 0 1.000000 0"></feColorMatrix>
        </filter>
    </defs>
    <g id="Page-1" stroke="none" stroke-width="1" fill="none" fill-rule="evenodd">
        <g id="Icons-/-24px-white-Copy-16" transform="translate(-33.000000, -774.000000)" filter="url(#filter-1)">
            <g transform="translate(33.000000, 774.000000)">
                <g id="Group" transform="translate(0.000000, 4.166667)" fill="#0066CC" fill-rule="nonzero">
                    <path d="M20,4.16666667 L20,1.85688406 C20,0.860507246 19.1627907,0 18.0930233,0 L1.90697674,0 C0.88372093,0 0,0.815217391 0,1.85688406 L0,4.16666667 L20,4.16666667 Z" id="Path"></path>
                    <path d="M0,5.83333333 L0,11.6666667 C0,12.486631 0.837209302,13.3333333 1.66666667,13.3333333 L18.3333333,13.3333333 C19.1162791,13.3333333 20,12.5311943 20,11.6666667 L20,5.83333333 L0,5.83333333 Z M16.6666667,10.8333333 L12.5,10.8333333 C12.0397627,10.8333333 11.6666667,10.4602373 11.6666667,10 C11.6666667,9.53976271 12.0397627,9.16666667 12.5,9.16666667 L16.6666667,9.16666667 C17.126904,9.16666667 17.5,9.53976271 17.5,10 C17.5,10.4602373 17.126904,10.8333333 16.6666667,10.8333333 Z" id="Shape"></path>
                </g>
            </g>
        </g>
    </g>
</svg>