<svg width="71" height="70" viewBox="0 0 71 70" fill="none" xmlns="http://www.w3.org/2000/svg">
  <circle opacity="0.1" cx="35.2754" cy="35" r="35" fill="#E02020" />
  <mask id="mask0" mask-type="alpha" maskUnits="userSpaceOnUse" x="0" y="0" width="71" height="70">
    <circle cx="35.2754" cy="35" r="35" fill="white" />
  </mask>
  <g mask="url(#mask0)">
    <rect x="13.4512" y="14.8232" width="93.8823" height="41.1765" rx="20.5882" fill="#E02020" />
  </g>
  <path
    d="M51.8105 33.3446V30.862C51.8105 29.7911 50.9107 28.8662 49.7609 28.8662H32.3641C31.2643 28.8662 30.3145 29.7424 30.3145 30.862V33.3446H51.8105Z"
    fill="white" />
  <path fill-rule="evenodd" clip-rule="evenodd"
    d="M30.3145 41.4054V35.1357H51.8105V41.4054C51.8105 42.3346 50.8607 43.1968 50.0192 43.1968H32.1058C31.2143 43.1968 30.3145 42.2867 30.3145 41.4054ZM48.2278 40.5098C48.7225 40.5098 49.1235 40.1088 49.1235 39.6141C49.1235 39.1194 48.7225 38.7184 48.2278 38.7184H43.7495C43.2548 38.7184 42.8538 39.1194 42.8538 39.6141C42.8538 40.1088 43.2548 40.5098 43.7495 40.5098H48.2278Z"
    fill="white" />
</svg>