<?xml version="1.0" encoding="UTF-8"?>
<svg width="30px" height="30px" viewBox="0 0 30 30" version="1.1" xmlns="http://www.w3.org/2000/svg" xmlns:xlink="http://www.w3.org/1999/xlink">
    <title>CBB4CC3C-5D84-4E40-876B-97CE437A727D</title>
    <g id="ðŸ“---Profile-&amp;-Points" stroke="none" stroke-width="1" fill="none" fill-rule="evenodd">
        <g id="Activities---Point-History" transform="translate(-1289.000000, -4066.000000)">
            <g id="Bar-/-Linked-Credit-Card-/-Returned-" transform="translate(1266.000000, 4050.000000)">
                <g id="Group-6" transform="translate(23.000000, 16.000000)">
                    <circle id="Oval-Copy-44" fill="#0AB3FD" cx="15" cy="15" r="15"></circle>
                    <g id="Icons-/-24px-white-Copy-16" transform="translate(6.000000, 6.000000)" fill="#FFFFFF" fill-rule="nonzero">
                        <g id="Group" transform="translate(0.000000, 3.750000)">
                            <path d="M18,3.75 L18,1.67119565 C18,0.774456522 17.2465116,0 16.2837209,0 L1.71627907,0 C0.795348837,0 0,0.733695652 0,1.67119565 L0,3.75 L18,3.75 Z" id="Path"></path>
                            <path d="M0,5.25 L0,10.5 C0,11.2379679 0.753488372,12 1.5,12 L16.5,12 C17.2046512,12 18,11.2780749 18,10.5 L18,5.25 L0,5.25 Z M15,9.75 L11.25,9.75 C10.8357864,9.75 10.5,9.41421356 10.5,9 C10.5,8.58578644 10.8357864,8.25 11.25,8.25 L15,8.25 C15.4142136,8.25 15.75,8.58578644 15.75,9 C15.75,9.41421356 15.4142136,9.75 15,9.75 Z" id="Shape"></path>
                        </g>
                    </g>
                </g>
            </g>
        </g>
    </g>
</svg>