<?xml version="1.0" encoding="UTF-8"?>
<svg width="16px" height="11px" viewBox="0 0 16 11" version="1.1" xmlns="http://www.w3.org/2000/svg" xmlns:xlink="http://www.w3.org/1999/xlink">
    <title>Icons / 24px Copy 2</title>
    <g id="Page-1" stroke="none" stroke-width="1" fill="none" fill-rule="evenodd">
        <g id="Design-System-/-Assets" transform="translate(-440.000000, -540.000000)" fill="#BFC4C8">
            <g id="Icons-/-24px" transform="translate(440.000000, 537.000000)">
                <g id="Group" transform="translate(0.000000, 3.333333)">
                    <path d="M16,3.33333333 L16,1.48550725 C16,0.688405797 15.3302326,0 14.4744186,0 L1.5255814,0 C0.706976744,0 0,0.652173913 0,1.48550725 L0,3.33333333 L16,3.33333333 Z" id="Path" fill-rule="nonzero"></path>
                    <path d="M0,4.66666667 L0,9.33333333 C0,9.98930481 0.669767442,10.6666667 1.33333333,10.6666667 L14.6666667,10.6666667 C15.2930233,10.6666667 16,10.0249554 16,9.33333333 L16,4.66666667 L0,4.66666667 Z M13.3333333,8.66666667 L10,8.66666667 C9.63181017,8.66666667 9.33333333,8.36818983 9.33333333,8 C9.33333333,7.63181017 9.63181017,7.33333333 10,7.33333333 L13.3333333,7.33333333 C13.7015232,7.33333333 14,7.63181017 14,8 C14,8.36818983 13.7015232,8.66666667 13.3333333,8.66666667 Z" id="Shape" fill-rule="nonzero"></path>
                </g>
            </g>
        </g>
    </g>
</svg>