<?xml version="1.0" encoding="UTF-8"?>
<svg width="41px" height="41px" viewBox="0 0 41 41" version="1.1" xmlns="http://www.w3.org/2000/svg" xmlns:xlink="http://www.w3.org/1999/xlink">
    <title>B59CF5F5-ADCA-41CB-B9B3-46A18FC0A7C8</title>
    <defs>
        <filter id="filter-1">
            <feColorMatrix in="SourceGraphic" type="matrix" values="0 0 0 0 1.000000 0 0 0 0 1.000000 0 0 0 0 1.000000 0 0 0 1.000000 0"></feColorMatrix>
        </filter>
    </defs>
    <g id="ðŸ“---Profile-&amp;-Points" stroke="none" stroke-width="1" fill="none" fill-rule="evenodd">
        <g id="ECM---100-%-Card-share" transform="translate(-167.000000, -288.000000)">
            <g id="Group-8" transform="translate(167.000000, 288.000000)">
                <circle id="Oval" fill="#02AEEF" cx="20.5" cy="20.5" r="20.5"></circle>
                <g filter="url(#filter-1)" id="Icons-/-24px">
                    <g transform="translate(7.000000, 6.000000)">
                        <g id="Combined-Shape-3" transform="translate(1.750000, 1.166667)" fill="#FFFFFF" fill-rule="nonzero">
                            <path d="M11.2,16.519 L11.2,25.9 L3.85,25.9 C2.49690236,25.9 1.4,24.8030976 1.4,23.45 L1.4,16.519 L11.2,16.519 Z M23.1,16.519 L23.1,23.45 C23.1,24.8030976 22.0030976,25.9 20.65,25.9 L13.3,25.9 L13.3,16.519 L23.1,16.519 Z M15.068,6.999 L15.05,7 C16.0164983,7 16.8,6.21649831 16.8,5.25 C16.8,4.28350169 16.0164983,3.5 15.05,3.5 C14.1318266,3.5 13.3788077,4.20711027 13.3058012,5.10647279 L13.3,5.25 L13.299,6.999 L11.2,6.999 L11.199,12.25 L11.199,14.699 L2.45,14.7 C1.09690236,14.7 3.84877315e-15,13.6030976 3.84877315e-15,12.25 L3.84877315e-15,9.45 C3.84877315e-15,8.09690236 1.09690236,7 2.45,7 L4.9159972,7.00113151 C4.46277763,6.29368648 4.2,5.45253074 4.2,4.55 C4.2,2.03710439 6.23710439,1.18986302e-12 8.75,1.18986302e-12 C10.4153607,1.18986302e-12 11.8717513,0.894707369 12.664716,2.22966634 C13.3187378,1.71008221 14.1481571,1.4 15.05,1.4 C17.1762963,1.4 18.9,3.12370371 18.9,5.25 C18.9,5.88044365 18.7484669,6.47549483 18.4798361,7.00071803 L22.05,7 C23.4030976,7 24.5,8.09690236 24.5,9.45 L24.5,12.25 C24.5,13.6030976 23.4030976,14.7 22.05,14.7 L13.299,14.699 L13.3,7 L15.068,6.999 Z M11.2,7 L11.2,4.55 C11.2,3.19690236 10.1030976,2.1 8.75,2.1 C7.39690236,2.1 6.3,3.19690236 6.3,4.55 C6.3,5.89674977 7.38663458,6.98970244 8.73097341,6.99992766 L11.2,7 Z" id="Combined-Shape"></path>
                        </g>
                    </g>
                </g>
            </g>
        </g>
    </g>
</svg>