<?xml version="1.0" encoding="UTF-8"?>
<svg width="19px" height="18px" viewBox="0 0 19 18" version="1.1" xmlns="http://www.w3.org/2000/svg" xmlns:xlink="http://www.w3.org/1999/xlink">
    <title>726E40F1-3C83-420C-946B-D64ADFC2C501</title>
    <defs>
        <filter id="filter-1">
            <feColorMatrix in="SourceGraphic" type="matrix" values="0 0 0 0 0.564706 0 0 0 0 0.607843 0 0 0 0 0.627451 0 0 0 1.000000 0"></feColorMatrix>
        </filter>
    </defs>
    <g id="Excutive-summary-Invision" stroke="none" stroke-width="1" fill="none" fill-rule="evenodd">
        <g id="Icons-/-24px-Copy" transform="translate(-33.000000, -385.000000)" filter="url(#filter-1)">
            <g transform="translate(33.000000, 385.000000)">
                <g id="Group-9" transform="translate(1.900000, 0.900000)" fill="#262C2F">
                    <path d="M9.89451821,8.38412698 C11.3342533,8.38412698 12.5417086,9.40372215 12.8673843,10.7770338 L14.3907637,10.7772977 C14.8115038,10.7772977 15.152581,11.1183749 15.152581,11.539115 C15.152581,11.9616403 14.8133251,12.3058802 14.3908447,12.3120419 L14.3908447,12.3120419 L12.8499444,12.3342297 C12.5004308,13.6720492 11.3096844,14.6571429 9.89451821,14.6571429 C8.48321281,14.6571429 7.29510438,13.6774169 6.94197138,12.3451713 L0.784126984,12.3455517 C0.351065609,12.3455517 -1.18971499e-13,11.9944861 -1.18971499e-13,11.5614247 C-1.18971499e-13,11.1283633 0.351065609,10.7772977 0.784126984,10.7772977 L0.784126984,10.7772977 L6.92165206,10.7770338 C7.24732786,9.40372215 8.45478314,8.38412698 9.89451821,8.38412698 Z M9.89451821,9.95238095 C7.85548858,9.95238095 7.85440442,13.0890727 9.89451821,13.0888889 C11.9335478,13.0888889 11.934632,9.95238095 9.89451821,9.95238095 Z M5.30548179,0.542857143 C6.74521686,0.542857143 7.95267214,1.56245231 8.27834794,2.93576399 L14.415873,2.93602788 C14.8489344,2.93602788 15.2,3.28709348 15.2,3.72015486 C15.2,4.15321623 14.8489344,4.50428184 14.415873,4.50428184 L8.257765,4.50489533 C7.90430466,5.83663433 6.7164362,6.81587302 5.30548179,6.81587302 C3.89066657,6.81587302 2.70015983,5.83126798 2.3503158,4.49395524 L0.809155272,4.47077207 C0.386674908,4.46461038 0.0474189754,4.12037048 0.0474189754,3.69784518 C0.0474189754,3.2771051 0.388496201,2.93602788 0.809236282,2.93602788 L2.33261565,2.93576399 C2.65829145,1.56245231 3.86574673,0.542857143 5.30548179,0.542857143 Z M5.30548179,2.11111111 C3.26536801,2.11111111 3.26645217,5.24761905 5.30548179,5.24761905 C7.34559558,5.24780283 7.34451142,2.11111111 5.30548179,2.11111111 Z" id="Combined-Shape"></path>
                </g>
                <g id="Group-27" transform="translate(9.500000, 13.250000) scale(-1, 1) translate(-9.500000, -13.250000) translate(0.000000, 9.450000)">
                    <g id="Group-9" transform="translate(0.000000, 2.850000)"></g>
                </g>
            </g>
        </g>
    </g>
</svg>