<svg width="101" height="101" viewBox="0 0 101 101" fill="none" xmlns="http://www.w3.org/2000/svg">
  <circle opacity="0.1" cx="50.6055" cy="50.2617" r="50" fill="#E02020" />
  <mask id="mask0_2123:79841" style="mask-type:alpha" maskUnits="userSpaceOnUse" x="0" y="0" width="101" height="101">
    <circle cx="50.6055" cy="50.2617" r="50" fill="white" />
  </mask>
  <g mask="url(#mask0_2123:79841)">
    <rect x="19.4297" y="21.4385" width="134.118" height="58.8235" rx="29.4118" fill="#E02020" />
  </g>
  <path
    d="M56.5708 58.2519C54.9903 58.2183 53.5474 59.1468 52.923 60.5991C52.2987 62.0514 52.6176 63.7373 53.7294 64.8612C54.8412 65.985 56.5235 66.3222 57.9825 65.7136C59.4415 65.1049 60.3855 63.6722 60.3691 62.0914C60.3801 61.0769 59.9848 60.1002 59.2713 59.3789C58.5577 58.6576 57.5853 58.2518 56.5708 58.2519Z"
    fill="white" />
  <path
    d="M68.4187 58.251C66.835 58.2005 65.3796 59.1179 64.7421 60.5685C64.1046 62.0191 64.413 63.7116 65.5212 64.8441C66.6294 65.9766 68.3147 66.3217 69.7788 65.7159C71.243 65.1101 72.1917 63.675 72.1757 62.0906C72.1867 61.0832 71.797 60.1127 71.0925 59.3926C70.3879 58.6726 69.4261 58.2619 68.4187 58.251Z"
    fill="white" />
  <path
    d="M75.4794 42.0674H50.9969L49.9235 38.6407C49.7789 38.1173 49.3103 37.749 48.7675 37.7324H43.1113V40.2096H47.8179L52.7309 55.9807C52.8788 56.4959 53.351 56.8501 53.8869 56.8477H71.7637C72.3062 56.8417 72.786 56.4943 72.961 55.9807L76.6767 43.6776C76.7959 43.2987 76.7261 42.8856 76.4891 42.5668C76.2521 42.2481 75.8766 42.0624 75.4794 42.0674Z"
    fill="white" />
  <path
    d="M63.2462 30.5225L62.0749 29.7927C61.2953 31.0438 59.6033 31.4106 58.3149 30.6078L57.6062 31.7453C58.8945 32.548 59.3108 34.2285 58.5312 35.4797L59.7024 36.2096C60.4821 34.9584 62.1741 34.5916 63.4624 35.3944L64.1712 34.257C62.8828 33.4542 62.4666 31.7736 63.2462 30.5225Z"
    fill="white" />
  <path d="M62.8477 37.1738L64.0189 37.9037L63.3102 39.0411L62.1389 38.3112L62.8477 37.1738Z" fill="white" />
  <path d="M67.2188 34.5078L68.39 35.2376L67.6812 36.3751L66.51 35.6452L67.2188 34.5078Z" fill="white" />
</svg>