<?xml version="1.0" encoding="UTF-8"?>
<svg width="16px" height="16px" viewBox="0 0 16 16" version="1.1" xmlns="http://www.w3.org/2000/svg" xmlns:xlink="http://www.w3.org/1999/xlink">
    <title>Shape</title>
    <g id="Page-1" stroke="none" stroke-width="1" fill="none" fill-rule="evenodd">
        <g id="Design-System-/-Assets" transform="translate(-91.000000, -960.000000)" fill="#262C2F" fill-rule="nonzero">
            <path d="M106.622494,968.232727 L105.460938,967.127273 C105.40286,966.836364 105.344782,966.545455 105.257666,966.254545 L105.838444,964.741818 C105.983638,964.392727 105.92556,964.014545 105.693249,963.723636 L104.705926,962.443636 C104.473615,962.152727 104.125148,962.007273 103.776681,962.065455 L102.20858,962.298182 C101.94723,962.152727 101.68588,962.007273 101.42453,961.92 L100.640479,960.523636 C100.466246,960.203636 100.117779,960 99.7693122,960 L98.1721723,960 C97.8237054,960 97.4752386,960.203636 97.3010051,960.523636 L96.5169546,961.92 C96.2556045,962.036364 95.9942543,962.152727 95.7329041,962.298182 L94.1648032,962.065455 C93.8163363,962.007273 93.4388305,962.152727 93.2355582,962.443636 L92.2482353,963.723636 C92.0159241,964.014545 91.9578463,964.392727 92.1030408,964.741818 L92.6838189,966.254545 C92.5967022,966.545455 92.5386244,966.836364 92.4805466,967.127273 L91.3189903,968.232727 C91.0576401,968.494545 90.9414845,968.872727 91.0286012,969.221818 L91.3770681,970.792727 C91.4641848,971.141818 91.725535,971.432727 92.0740019,971.549091 L93.584025,972.014545 C93.7582585,972.247273 93.9324919,972.48 94.1357643,972.712727 L94.2519199,974.341818 C94.2809588,974.72 94.4842312,975.04 94.832698,975.185455 L96.2556045,975.883636 C96.400799,975.941818 96.5459935,976 96.6911881,976 C96.8944604,976 97.0977328,975.941818 97.2719662,975.825455 L98.578717,974.923636 C98.7239116,974.923636 98.8691061,974.952727 99.0143006,974.952727 C99.1594952,974.952727 99.3046897,974.952727 99.4498842,974.923636 L100.756635,975.825455 C100.930868,975.941818 101.134141,976 101.337413,976 C101.482608,976 101.627802,975.970909 101.772997,975.883636 L103.195903,975.185455 C103.515331,975.010909 103.747642,974.690909 103.776681,974.341818 L103.892837,972.712727 C104.096109,972.48 104.270343,972.276364 104.444576,972.014545 L105.954599,971.549091 C106.303066,971.432727 106.564416,971.141818 106.651533,970.792727 L107,969.221818 C107,968.872727 106.883844,968.494545 106.622494,968.232727 Z M96,968 C96,966.350993 97.3378378,965 99,965 C100.641892,965 102,966.350993 102,968 C102,969.649007 100.662162,971 99,971 C97.3581081,971 96,969.649007 96,968 Z" id="Shape"></path>
        </g>
    </g>
</svg>