<?xml version="1.0" encoding="UTF-8"?>
<svg width="60px" height="60px" viewBox="0 0 60 60" version="1.1" xmlns="http://www.w3.org/2000/svg" xmlns:xlink="http://www.w3.org/1999/xlink">
    <title>D2EC9B3D-4785-4E99-80BE-D510033B5E44</title>
    <defs>
        <polygon id="path-1" points="0.000696090794 0.000531147541 21.152459 0.000531147541 21.152459 7.86328525 0.000696090794 7.86328525"></polygon>
    </defs>
    <g id="😎-Executive-Summary---Invision" stroke="none" stroke-width="1" fill="none" fill-rule="evenodd">
        <g id="Modal---Delete" transform="translate(-157.000000, -359.000000)">
            <g id="Group-Copy" transform="translate(0.000000, 273.000000)">
                <g id="Group-5-Copy" transform="translate(20.000000, 86.000000)">
                    <g id="Icons-/-60px-" transform="translate(137.000000, 0.000000)">
                        <g id="Icons-/-16px-Copy-3" fill-rule="nonzero">
                            <circle id="Combined-Shape" fill="#FFFFFF" cx="30" cy="30" r="30"></circle>
                            <path d="M28.6789956,15.0153238 L24.2620033,23.3403844 L14.3898208,24.6736408 C13.1804506,24.8364019 12.6967025,26.2216034 13.5711702,27.0146312 L20.7157576,33.4939109 L19.0300815,42.6431663 C18.8663514,43.5296953 19.6254638,44.25 20.4850469,44.25 C20.7120364,44.25 20.9464682,44.2015179 21.1734577,44.0907018 L30,39.7723364 L38.8302634,44.0907018 C39.0572529,44.2015179 39.2916847,44.25 39.5186742,44.25 C40.3782574,44.25 41.1336486,43.5296953 40.9699185,42.6431663 L39.2842424,33.4939109 L46.4288298,27.0146312 C47.3032975,26.2216034 46.8195494,24.8364019 45.6101792,24.6736408 L35.7379967,23.3403844 L31.3210044,15.0153238 C31.0530824,14.5062623 30.5246806,14.25 30,14.25 C29.4753194,14.25 28.9469176,14.5062623 28.6789956,15.0153238 Z" id="Path" fill="#FFFFFF"></path>
                            <circle id="Combined-Shape" fill="#E02020" cx="30" cy="30" r="30"></circle>
                        </g>
                        <g id="Group" transform="translate(19.672131, 16.721311)">
                            <g id="Group-3">
                                <mask id="mask-2" fill="white">
                                    <use xlink:href="#path-1"></use>
                                </mask>
                                <g id="Clip-2"></g>
                                <path d="M8.13625725,2.48276066 C8.13625725,2.02774426 8.49996469,1.65594098 8.94894325,1.65594098 L12.2031677,1.65594098 C12.6521463,1.65594098 13.0175939,2.02774426 13.0175939,2.48276066 L13.0175939,3.31135082 L8.13625725,3.31135082 L8.13625725,2.48276066 Z M19.12057,3.31135082 L14.6447062,3.31135082 L14.6447062,2.48276066 C14.6447062,1.1124 13.5518436,0.000531147541 12.2031677,0.000531147541 L8.94894325,0.000531147541 C7.60200757,0.000531147541 6.50914502,1.1124 6.50914502,2.48276066 L6.50914502,3.31135082 L2.03328121,3.31135082 C0.910834805,3.31135082 0.000696090794,4.23731803 0.000696090794,5.38105574 L0.000696090794,7.03646557 C0.000696090794,7.49325246 0.364403531,7.86328525 0.813382093,7.86328525 L20.3404691,7.86328525 C20.7894477,7.86328525 21.1531551,7.49325246 21.1531551,7.03646557 L21.1531551,5.38105574 C21.1531551,4.23731803 20.2430164,3.31135082 19.12057,3.31135082 L19.12057,3.31135082 Z" id="Fill-1" fill="#FFFFFF" mask="url(#mask-2)"></path>
                            </g>
                            <path d="M5.41557058,12.5641295 C5.41557058,12.1102854 5.78151973,11.7426365 6.23501653,11.7426365 C6.68676237,11.7426365 7.05271152,12.1102854 7.05271152,12.5641295 L7.05271152,23.2558513 C7.05271152,23.7096953 6.68676237,24.0773442 6.23501653,24.0773442 C5.78151973,24.0773442 5.41557058,23.7096953 5.41557058,23.2558513 L5.41557058,12.5641295 Z M9.50929839,12.5641295 C9.50929839,12.1102854 9.87524754,11.7426365 10.3269934,11.7426365 C10.7787392,11.7426365 11.1446884,12.1102854 11.1446884,12.5641295 L11.1446884,23.2558513 C11.1446884,23.7096953 10.7787392,24.0773442 10.3269934,24.0773442 C9.87524754,24.0773442 9.50929839,23.7096953 9.50929839,23.2558513 L9.50929839,12.5641295 Z M13.6012752,12.5641295 C13.6012752,12.1102854 13.9672244,11.7426365 14.4207212,11.7426365 C14.872467,11.7426365 15.2384162,12.1102854 15.2384162,12.5641295 L15.2384162,23.2558513 C15.2384162,23.7096953 14.872467,24.0773442 14.4207212,24.0773442 C13.9672244,24.0773442 13.6012752,23.7096953 13.6012752,23.2558513 L13.6012752,12.5641295 Z M1.239548,8.85245902 C1.09246796,8.85245902 0.976905067,8.9879086 0.983908879,9.15150356 L1.65802573,24.9357779 C1.72106004,26.3958189 2.79789605,27.5409836 4.1111107,27.5409836 L16.5428761,27.5409836 C17.8560907,27.5409836 18.9329267,26.3958189 18.995961,24.9357779 L19.6718288,9.15150356 C19.6788326,8.9879086 19.5632697,8.85245902 19.4161897,8.85245902 L1.239548,8.85245902 Z" id="Fill-4" fill="#FFFFFF"></path>
                        </g>
                    </g>
                </g>
            </g>
        </g>
    </g>
</svg>