<?xml version="1.0" encoding="utf-8"?>
<svg viewBox="0 0 20 20" xmlns="http://www.w3.org/2000/svg" xmlns:bx="https://boxy-svg.com">
  <title>DA5501FB-E1FC-47B2-BA32-EA78002AB35E</title>
  <g id="Loyalty-Experience" stroke="none" stroke-width="1" fill="none" fill-rule="evenodd">
      <g id="NON-ECM---Feed--" transform="translate(-100.000000, -416.000000)" fill-rule="nonzero">
          <g id="Group-3" transform="translate(15.000000, 208.000000)">
              <g id="Cards-/-Active-" transform="translate(0.000000, 40.000000)">
                  <g id="Group-8" transform="translate(20.000000, 140.000000)">
                      <g id="Group-12" transform="translate(65.000000, 24.000000)">
                          <g id="Icons-/-16px" transform="translate(0.000000, 4.000000)">
                              <circle id="Combined-Shape" fill="#B8B8B8" cx="10" cy="10" r="10"></circle>
                              <path d="M9.55966519,5.00510793 L8.08733443,7.78012813 L4.79660695,8.22454692 C4.39348353,8.27880065 4.23223416,8.74053446 4.5237234,9.00487706 L6.90525252,11.164637 L6.3433605,14.2143888 C6.28878379,14.5098984 6.54182126,14.75 6.82834898,14.75 C6.90401214,14.75 6.98215607,14.7338393 7.05781923,14.6969006 L10,13.2574455 L12.9434211,14.6969006 C13.0190843,14.7338393 13.0972282,14.75 13.1728914,14.75 C13.4594191,14.75 13.7112162,14.5098984 13.6566395,14.2143888 L13.0947475,11.164637 L15.4762766,9.00487706 C15.7677658,8.74053446 15.6065165,8.27880065 15.2033931,8.22454692 L11.9126656,7.78012813 L10.4403348,5.00510793 C10.3510275,4.83542075 10.1748935,4.75 10,4.75 C9.82510646,4.75 9.64897253,4.83542075 9.55966519,5.00510793 Z" id="Path" fill="#FFFFFF"></path>
                          </g>
                      </g>
                  </g>
              </g>
          </g>
      </g>
  </g>
</svg>