<?xml version="1.0" encoding="UTF-8"?>
<svg width="127px" height="127px" viewBox="0 0 127 127" version="1.1" xmlns="http://www.w3.org/2000/svg" xmlns:xlink="http://www.w3.org/1999/xlink">
    <title>AFC9DD5A-4C75-4794-BE75-08037500D22E</title>
    <defs>
        <circle id="path-1" cx="63.5" cy="63.5" r="63.5"></circle>
    </defs>
    <g id="✅-Restrictions" stroke="none" stroke-width="1" fill="none" fill-rule="evenodd">
        <g id="Any" transform="translate(-124.000000, -168.000000)">
            <g id="Group" transform="translate(124.000000, 168.000000)">
                <mask id="mask-2" fill="white">
                    <use xlink:href="#path-1"></use>
                </mask>
                <use id="Oval" fill="#0066CC" xlink:href="#path-1"></use>
                <g id="Group-2" mask="url(#mask-2)" fill="#FFFFFF" fill-rule="nonzero">
                    <g transform="translate(41.000000, 50.000000)" id="Path">
                        <path d="M44.7526096,0 L1,0 L22.8763541,18 L45,0.0504295486 C44.9190484,0.0267906977 44.836322,0.00994801642 44.7526096,0 Z"></path>
                        <path d="M24.0365876,20.1144881 C23.4312978,20.6108665 22.5604237,20.6108665 21.955134,20.1144881 L0,2 L0,30.3546919 C0,31.2633855 0.735531016,32 1.64288808,32 L44.3571119,32 C45.264469,32 46,31.2633855 46,30.3546919 L46,2.24351369 L24.0365876,20.1144881 Z"></path>
                    </g>
                </g>
                <g id="Icons-/-20px" mask="url(#mask-2)">
                    <g transform="translate(87.500000, 49.500000) rotate(180.000000) translate(-87.500000, -49.500000) translate(75.000000, 37.000000)">
                        <circle id="Oval-Copy-7" fill="#FF5F00" fill-rule="evenodd" cx="12.5" cy="12.5" r="12.5"></circle>
                        <path d="M12.5,5.46875 C11.6359656,5.46875 10.9375,5.99259922 10.9375,6.640625 L10.9375,13.671875 C10.9375,14.3199008 11.6359656,14.84375 12.5,14.84375 C13.3640344,14.84375 14.0625,14.3187469 14.0625,13.671875 L14.0625,6.640625 C14.0625,5.99259922 13.3641076,5.46875 12.5,5.46875 Z" id="Path-Copy-3" fill="#FFFFFF" fill-rule="nonzero"></path>
                        <path d="M13.9374531,17.3758497 C13.8593171,17.1727809 13.7498827,17.0009815 13.60915,16.8604518 C13.531014,16.7979859 13.4528047,16.7198487 13.3590562,16.6730543 C13.2809202,16.6105885 13.1870983,16.5652586 13.0932765,16.5324513 C12.9994547,16.4840458 12.9057061,16.4543873 12.7962718,16.4387159 C12.2975501,16.3293824 11.748839,16.5027196 11.39085,16.8604518 C11.2501173,17.0009815 11.1407562,17.1728541 11.0625469,17.3758497 C10.9844109,17.5632471 10.9375,17.766316 10.9375,17.9693848 C10.9375,18.1724537 10.9844109,18.3754493 11.0625469,18.56292 C11.1406829,18.7503174 11.2501173,18.9221167 11.39085,19.0783179 C11.5471953,19.2188477 11.7191531,19.3281812 11.9067235,19.4063184 C12.0942939,19.4843823 12.2975501,19.53125 12.5008063,19.53125 C12.7040625,19.53125 12.9057061,19.4843823 13.0932765,19.4063184 C13.2808469,19.3282544 13.4512654,19.2189209 13.60915,19.0783179 C13.7498827,18.9221167 13.8592438,18.7503174 13.9374531,18.56292 C14.0155891,18.3755225 14.0625,18.1724537 14.0625,17.9693848 C14.0625,17.766316 14.0155891,17.5632471 13.9374531,17.3758497 Z" id="Path-Copy-4" fill="#FFFFFF" fill-rule="nonzero"></path>
                    </g>
                </g>
            </g>
        </g>
    </g>
</svg>