<?xml version="1.0" encoding="UTF-8"?>
<svg width="127px" height="127px" viewBox="0 0 127 127" version="1.1" xmlns="http://www.w3.org/2000/svg" xmlns:xlink="http://www.w3.org/1999/xlink">
    <title>8055C6E3-7D05-42E6-9B58-28ED173185B6</title>
    <defs>
        <circle id="path-1" cx="63.5" cy="63.5" r="63.5"></circle>
    </defs>
    <g id="✅-Restrictions" stroke="none" stroke-width="1" fill="none" fill-rule="evenodd">
        <g id="Verify-email---modal" transform="translate(-124.000000, -127.000000)">
            <g id="Icon" transform="translate(124.000000, 127.000000)">
                <mask id="mask-2" fill="white">
                    <use xlink:href="#path-1"></use>
                </mask>
                <use id="Oval" fill="#0066CC" xlink:href="#path-1"></use>
                <g id="Group-2" mask="url(#mask-2)">
                    <g transform="translate(39.000000, 50.000000)" id="Group">
                        <path d="M44.7526096,0 L1,0 L22.8763541,18 L45,0.0504295486 C44.9190484,0.0267906977 44.836322,0.00994801642 44.7526096,0 Z" id="Path" fill="#FFFFFF" fill-rule="nonzero"></path>
                        <path d="M24.0365876,20.1144881 C23.4312978,20.6108665 22.5604237,20.6108665 21.955134,20.1144881 L0,2 L0,30.3546919 C0,31.2633855 0.735531016,32 1.64288808,32 L44.3571119,32 C45.264469,32 46,31.2633855 46,30.3546919 L46,2.24351369 L24.0365876,20.1144881 Z" id="Path" fill="#FFFFFF" fill-rule="nonzero"></path>
                    </g>
                </g>
                <g id="Group-5" mask="url(#mask-2)">
                    <g transform="translate(71.000000, 39.000000)">
                        <circle id="Oval" fill="#34C06B" cx="12.5" cy="12.5" r="12.5"></circle>
                        <g id="Icons-/-20px" stroke-width="1" fill="none" transform="translate(11.500000, 12.500000) rotate(180.000000) translate(-11.500000, -12.500000) translate(3.000000, 5.000000)">
                            <g transform="translate(8.125000, 7.500000) scale(-1, 1) translate(-8.125000, -7.500000) translate(0.000000, -0.000000)" fill="#FFFFFF" id="Combined-Shape">
                                <path d="M7.51929112,1.13210678 L7.98007755,1.59289322 C8.37060185,1.98341751 8.37060185,2.61658249 7.98007755,3.00710678 L4.737,6.24976695 L14.9911165,6.25 C15.5039524,6.25 15.9266237,6.63604019 15.9843888,7.13337887 L15.9911165,7.25 L15.9911165,7.75 C15.9911165,8.30228475 15.5434013,8.75 14.9911165,8.75 L14.9911165,8.75 L4.745,8.74976695 L7.98007755,11.9850288 C8.37060185,12.3755531 8.37060185,13.0087181 7.98007755,13.3992424 L7.51929112,13.8600288 C7.12876682,14.2505531 6.49560185,14.2505531 6.10507755,13.8600288 L0.0946699141,7.8496212 C-0.100592232,7.65435906 -0.100592232,7.33777657 0.0946699141,7.14251442 L6.10507755,1.13210678 C6.49560185,0.741582489 7.12876682,0.741582489 7.51929112,1.13210678 Z" transform="translate(7.995558, 7.496068) scale(-1, 1) translate(-7.995558, -7.496068) "></path>
                            </g>
                        </g>
                    </g>
                </g>
            </g>
        </g>
    </g>
</svg>