<svg width="100" height="100" viewBox="0 0 100 100" fill="none" xmlns="http://www.w3.org/2000/svg">
  <circle opacity="0.1" cx="50" cy="50" r="50" fill="#909BA0" />
  <mask id="mask0_4530_11559" style="mask-type:alpha" maskUnits="userSpaceOnUse" x="0" y="0" width="100" height="100">
    <circle cx="50" cy="50" r="50" fill="white" />
  </mask>
  <g mask="url(#mask0_4530_11559)">
    <rect x="18.8232" y="21.1768" width="134.118" height="58.8235" rx="29.4118" fill="#909BA0" />
  </g>
  <circle cx="50" cy="50" r="17.5" fill="white" />
  <path
    d="M45.8824 46.1719C45.3707 46.1719 44.9559 46.6004 44.9559 47.1289C44.9559 47.5987 45.2836 47.9895 45.7158 48.0705L45.8824 48.0859H55.1471C57.7054 48.0859 59.7794 50.2283 59.7794 52.8711C59.7794 55.4082 57.868 57.4841 55.4516 57.6461L55.1471 57.6562H48.6618L48.3852 57.6458C46.5635 57.5069 45.1081 56.0078 44.9671 54.128L44.9559 53.8281H55.1471C55.6587 53.8281 56.0735 53.3996 56.0735 52.8711C56.0735 52.4013 55.7458 52.0105 55.3136 51.9295L55.1471 51.9141H45.8824C43.324 51.9141 41.25 49.7717 41.25 47.1289C41.25 44.5918 43.1614 42.5159 45.5778 42.3539L45.8824 42.3438H52.3676L52.6442 42.3543C54.4659 42.4931 55.9213 43.9922 56.0623 45.872L56.0735 46.1719H45.8824Z"
    fill="#909BA0" />
</svg>