<?xml version="1.0" encoding="UTF-8"?>
<svg width="61px" height="60px" viewBox="0 0 61 60" version="1.1" xmlns="http://www.w3.org/2000/svg" xmlns:xlink="http://www.w3.org/1999/xlink">
    <title>B18EFA35-7CE3-4C5A-BB77-A92872A9752F</title>
    <g id="✅-Loyalty-V2" stroke="none" stroke-width="1" fill="none" fill-rule="evenodd">
        <g id="Partner-Left---Pop-Up." transform="translate(-157.000000, -458.000000)">
            <g id="Action-Sheet/-Extra-Large/-Image-+-Title-+-Text-+-Two-buttons/-Alert-Copy-2" transform="translate(-0.903846, -0.000000)">
                <g id="Modal-Copy" transform="translate(0.500000, 380.000000)">
                    <g id="Content" transform="translate(20.000000, 68.000000)">
                        <g id="Image" transform="translate(138.000000, 10.000000)">
                            <circle id="Oval-Copy-7" fill="#FF5F00" cx="30" cy="30" r="30"></circle>
                            <path d="M30,13.125 C27.9263175,13.125 26.25,14.3822381 26.25,15.9375 L26.25,32.8125 C26.25,34.3677619 27.9263175,35.625 30,35.625 C32.0736825,35.625 33.75,34.3649926 33.75,32.8125 L33.75,15.9375 C33.75,14.3822381 32.0738583,13.125 30,13.125 Z" id="Path-Copy-3" fill="#FFFFFF" fill-rule="nonzero"></path>
                            <path d="M33.4498874,41.7020392 C33.262361,41.214674 32.9997185,40.8023557 32.6619599,40.4650842 C32.4744336,40.3151662 32.2867312,40.127637 32.0617348,40.0153303 C31.8742084,39.8654123 31.649036,39.7566208 31.4238636,39.6778831 C31.1986912,39.5617098 30.9736947,39.4905295 30.7110522,39.4529182 C29.5141202,39.1905179 28.1972135,39.606527 27.3380401,40.4650842 C27.0002815,40.8023557 26.7378149,41.2148498 26.5501126,41.7020392 C26.3625862,42.1517931 26.25,42.6391584 26.25,43.1265236 C26.25,43.6138888 26.3625862,44.1010782 26.5501126,44.5510079 C26.737639,45.0007618 27.0002815,45.4130801 27.3380401,45.7879629 C27.7132688,46.1252344 28.1259675,46.3876348 28.5761364,46.5751641 C29.0263053,46.7625176 29.5141202,46.875 30.0019351,46.875 C30.48975,46.875 30.9736947,46.7625176 31.4238636,46.5751641 C31.8740325,46.3878105 32.283037,46.1254102 32.6619599,45.7879629 C32.9997185,45.4130801 33.2621851,45.0007618 33.4498874,44.5510079 C33.6374138,44.101254 33.75,43.6138888 33.75,43.1265236 C33.75,42.6391584 33.6374138,42.1517931 33.4498874,41.7020392 Z" id="Path-Copy-4" fill="#FFFFFF" fill-rule="nonzero"></path>
                        </g>
                    </g>
                </g>
            </g>
        </g>
    </g>
</svg>