<?xml version="1.0" encoding="UTF-8"?>
<svg width="16px" height="16px" viewBox="0 0 16 16" version="1.1" xmlns="http://www.w3.org/2000/svg" xmlns:xlink="http://www.w3.org/1999/xlink">
    <title>8A010AAC-A722-4F65-BE25-37013528618E</title>
    <g id="ðŸ“---Profile-&amp;-Points" stroke="none" stroke-width="1" fill="none" fill-rule="evenodd">
        <g id="Activities---Point-History" transform="translate(-1530.000000, -1350.000000)">
            <g id="Bar-/-Offers-/-Expired-" transform="translate(1266.000000, 1328.000000)">
                <g id="Icons-/-16px" transform="translate(264.000000, 22.000000)">
                    <circle id="Oval-Copy-7" fill="#E02020" cx="8" cy="8" r="8"></circle>
                    <path d="M8,3.5 C7.447018,3.5 7,3.8352635 7,4.25 L7,8.75 C7,9.1647365 7.447018,9.5 8,9.5 C8.552982,9.5 9,9.16399803 9,8.75 L9,4.25 C9,3.8352635 8.55302888,3.5 8,3.5 Z" id="Path-Copy-3" fill="#FFFFFF" fill-rule="nonzero"></path>
                    <path d="M8.91996998,11.1205438 C8.86996294,10.9905797 8.79992494,10.8806282 8.70985598,10.7906891 C8.65984895,10.750711 8.609795,10.7007032 8.54979594,10.6707547 C8.4997889,10.6307766 8.43974293,10.6017655 8.37969696,10.5807688 C8.31965098,10.5497893 8.25965192,10.5308079 8.18961392,10.5207782 C7.87043205,10.4508048 7.51925693,10.5617405 7.29014402,10.7906891 C7.20007506,10.8806282 7.13008397,10.9906266 7.08003002,11.1205438 C7.03002299,11.2404782 7,11.3704422 7,11.5004063 C7,11.6303703 7.03002299,11.7602875 7.08003002,11.8802688 C7.13003706,12.0002031 7.20007506,12.1101547 7.29014402,12.2101234 C7.390205,12.3000625 7.50025801,12.3700359 7.62030304,12.4200438 C7.74034808,12.4700047 7.87043205,12.5 8.00051602,12.5 C8.13059999,12.5 8.25965192,12.4700047 8.37969696,12.4200438 C8.49974199,12.3700828 8.60880987,12.3001094 8.70985598,12.2101234 C8.79992494,12.1101547 8.86991603,12.0002031 8.91996998,11.8802688 C8.96997701,11.7603344 9,11.6303703 9,11.5004063 C9,11.3704422 8.96997701,11.2404782 8.91996998,11.1205438 Z" id="Path-Copy-4" fill="#FFFFFF" fill-rule="nonzero"></path>
                </g>
            </g>
        </g>
    </g>
</svg>