<?xml version="1.0" encoding="UTF-8"?>
<svg width="20px" height="17px" viewBox="0 0 20 17" version="1.1" xmlns="http://www.w3.org/2000/svg" xmlns:xlink="http://www.w3.org/1999/xlink">
    <title>2E6989C4-742A-4B27-A2A2-E3C9E6D7B7E1</title>
    <g id="Rewards" stroke="none" stroke-width="1" fill="none" fill-rule="evenodd">
        <g id="Gift-Card-Feed" transform="translate(-330.000000, -141.000000)">
            <g id="Search-/-Filters" transform="translate(320.000000, 129.000000)">
                <g id="Icons-/-24px" transform="translate(10.000000, 12.000000)">
                    <g id="Group-9" transform="translate(2.000000, 0.000000)" fill="#FFFFFF">
                        <path d="M10.4152823,8.82539683 C11.9309033,8.82539683 13.2019837,9.89881128 13.54469,11.3445621 L15.1481723,11.3445239 C15.5910566,11.3445239 15.9500853,11.7035526 15.9500853,12.1464369 C15.9500853,12.5912003 15.5929738,12.9535581 15.1482576,12.9600441 L15.1482576,12.9600441 L13.5263605,12.9830046 C13.1585827,14.3914368 11.9050703,15.4285714 10.4152823,15.4285714 C8.92969981,15.4285714 7.6790608,14.3972839 7.30733987,12.9949231 L0.825396825,12.9953176 C0.369542746,12.9953176 -2.50466314e-13,12.6257748 -2.50466314e-13,12.1699207 C-2.50466314e-13,11.7140667 0.369542746,11.3445239 0.825396825,11.3445239 L0.825396825,11.3445239 L7.28587463,11.3445621 C7.62858097,9.89881128 8.89966131,8.82539683 10.4152823,8.82539683 Z M10.4152823,10.4761905 C8.26893535,10.4761905 8.26779413,13.7779712 10.4152823,13.7777778 C12.5616293,13.7777778 12.5627705,10.4761905 10.4152823,10.4761905 Z M5.58471768,0.571428571 C7.10033869,0.571428571 8.37141903,1.64484303 8.71412537,3.09059384 L15.1746032,3.09055566 C15.6304573,3.09055566 16,3.4600984 16,3.91595248 C16,4.37180656 15.6304573,4.74134931 15.1746032,4.74134931 L8.69266013,4.74095485 C8.3209392,6.14331566 7.07030019,7.17460317 5.58471768,7.17460317 C4.0949297,7.17460317 2.84141728,6.13746854 2.47363951,4.7290363 L0.851742392,4.70607586 C0.407026219,4.69958988 0.0499147109,4.33723208 0.0499147109,3.89246861 C0.0499147109,3.44958432 0.40894337,3.09055566 0.851827665,3.09055566 L2.45530998,3.09059384 C2.79801633,1.64484303 4.06909667,0.571428571 5.58471768,0.571428571 Z M5.58471768,2.22222222 C3.43722949,2.22222222 3.43837071,5.52380952 5.58471768,5.52380952 C7.73220587,5.52400298 7.73106465,2.22222222 5.58471768,2.22222222 Z" id="Combined-Shape"></path>
                    </g>
                    <g id="Group-27" transform="translate(10.000000, 13.000000) scale(-1, 1) translate(-10.000000, -13.000000) translate(0.000000, 9.000000)">
                        <g id="Group-9" transform="translate(0.000000, 3.000000)"></g>
                    </g>
                </g>
            </g>
        </g>
    </g>
</svg>