<?xml version="1.0" encoding="UTF-8"?>
<svg width="30px" height="30px" viewBox="0 0 30 30" version="1.1" xmlns="http://www.w3.org/2000/svg" xmlns:xlink="http://www.w3.org/1999/xlink">
    <title>F4E35B90-E313-4CCF-8311-E09B614D44B5</title>
    <g id="ðŸ“---Profile-&amp;-Points" stroke="none" stroke-width="1" fill="none" fill-rule="evenodd">
        <g id="Activities---Point-History" transform="translate(-756.000000, -3755.000000)">
            <g id="Bar-/-Giftcard-/-Empty-State-" transform="translate(733.000000, 3739.000000)">
                <g id="Group" transform="translate(23.000000, 16.000000)">
                    <circle id="Oval-Copy-48" fill="#FB5F93" cx="15" cy="15" r="15"></circle>
                    <g id="gift" transform="translate(6.000000, 5.000000)" fill="#FFFFFF" fill-rule="nonzero">
                        <path d="M2,10 L2,16.8571429 C2,17.488 2.449,18 3,18 L8,18 L8,10 L2,10 Z" id="Path"></path>
                        <path d="M16.875,4.56197412 L13.3155,4.56197412 C13.570875,4.38434278 13.79025,4.20785745 13.94325,4.04970826 C14.851125,3.12029526 14.851125,1.60756387 13.94325,0.678150878 C13.06125,-0.227195938 11.5245,-0.224903921 10.643625,0.678150878 C10.155375,1.17666463 8.861625,3.20624591 9.0405,4.56197412 L8.9595,4.56197412 C9.13725,3.20624591 7.8435,1.17666463 7.356375,0.678150878 C6.474375,-0.224903921 4.937625,-0.224903921 4.05675,0.678150878 C3.15,1.60756387 3.15,3.12029526 4.055625,4.04970826 C4.20975,4.20785745 4.429125,4.38434278 4.6845,4.56197412 L1.125,4.56197412 C0.505125,4.56197412 0,5.07653199 0,5.70798274 L0,7.42699569 C0,7.74329407 0.252,8 0.5625,8 L7.875,8 C8.07954545,8 8.82954545,8 10.125,8 L17.4375,8 C17.748,8 18,7.74329407 18,7.42699569 L18,5.70798274 C18,5.07653199 17.496,4.56197412 16.875,4.56197412 Z M7.95256692,4.956 C7.95256692,4.956 7.91039098,5 7.76679194,5 C7.07289729,5 5.74837191,4.04266667 5.31556642,3.464 C4.89481119,2.90133333 4.89481119,1.984 5.31556642,1.42133333 C5.5194168,1.14933333 5.78954366,1 6.07674173,1 C6.36293562,1 6.63306248,1.14933333 6.83691286,1.42133333 C7.5137363,2.32533333 8.18654297,4.63466667 7.95256692,4.956 Z M10.3095275,5 C10.1194487,5 10.0632282,4.95719064 10.0632282,4.95585285 C9.75133846,4.63344487 10.6481889,2.31638837 11.5503936,1.4093651 C12.0898425,0.864883579 13.0335433,0.862207994 13.5783464,1.4093651 C14.1405512,1.97391351 14.1405512,2.8943147 13.5783464,3.45886311 C13.0014173,4.03946503 11.2358267,5 10.3095275,5 Z" id="Shape"></path>
                        <path d="M10,10 L10,18 L15,18 C15.552,18 16,17.488 16,16.8571429 L16,10 L10,10 Z" id="Path"></path>
                    </g>
                </g>
            </g>
        </g>
    </g>
</svg>