<?xml version="1.0" encoding="UTF-8"?>
<svg width="60px" height="60px" viewBox="0 0 60 60" version="1.1" xmlns="http://www.w3.org/2000/svg" xmlns:xlink="http://www.w3.org/1999/xlink">
    <title>9774FB82-1EFA-4CFF-82C2-9F4A89E629AD@3x</title>
    <defs>
        <circle id="path-1" cx="30" cy="30" r="30"></circle>
        <filter id="filter-3">
            <feColorMatrix in="SourceGraphic" type="matrix" values="0 0 0 0 1.000000 0 0 0 0 1.000000 0 0 0 0 1.000000 0 0 0 1.000000 0"></feColorMatrix>
        </filter>
    </defs>
    <g id="Rewards" stroke="none" stroke-width="1" fill="none" fill-rule="evenodd">
        <g id="Gift-Card-Feed" transform="translate(-32.000000, -2034.000000)">
            <g id="Oval-2" transform="translate(32.000000, 2034.000000)">
                <mask id="mask-2" fill="white">
                    <use xlink:href="#path-1"></use>
                </mask>
                <use id="Oval" fill="#DDE8F5" xlink:href="#path-1"></use>
                <rect id="Rectangle" fill="#0066CC" mask="url(#mask-2)" x="11.2941176" y="12.7058824" width="80.4705882" height="35.2941176" rx="17.6470588"></rect>
                <g filter="url(#filter-3)" id="Icons-/-24px">
                    <g mask="url(#mask-2)">
                        <g transform="translate(22.000000, 19.000000)" id="Combined-Shape-3">
                            <g transform="translate(0.250000, 0.833333)">
                                <path d="M8,11.799 L8,18.5 L2.75,18.5 C1.78350169,18.5 1,17.7164983 1,16.75 L1,11.799 L8,11.799 Z M16.5,11.799 L16.5,16.75 C16.5,17.7164983 15.7164983,18.5 14.75,18.5 L9.5,18.5 L9.5,11.799 L16.5,11.799 Z M10.764,4.999 L10.75,5 C11.4403559,5 12,4.44035594 12,3.75 C12,3.05964406 11.4403559,2.5 10.75,2.5 C10.1027913,2.5 9.5704661,2.99187466 9.50645361,3.62219476 L9.5,3.75 L9.499,4.999 L8,4.999 L8,5 L7.999,5 L7.999,10.499 L1.75,10.5 C0.783501688,10.5 3.25665421e-15,9.71649831 3.25665421e-15,8.75 L3.25665421e-15,6.75 C3.25665421e-15,5.78350169 0.783501688,5 1.75,5 L3.51189842,5.00154453 C3.1878807,4.49607404 3,3.89497796 3,3.25 C3,1.45507456 4.45507456,8.49838718e-13 6.25,8.49838718e-13 C7.43960231,8.49838718e-13 8.47992546,0.639140031 9.04630994,1.59276057 C9.5134777,1.2214523 10.1058774,1 10.75,1 C12.2687831,1 13.5,2.23121694 13.5,3.75 C13.5,4.2004996 13.3916742,4.62569836 13.1996494,5.00096951 L15.75,5 C16.7164983,5 17.5,5.78350169 17.5,6.75 L17.5,8.75 C17.5,9.71649831 16.7164983,10.5 15.75,10.5 L9.5,10.499 L9.5,10.299 L9.5,10.299 L9.5,5 L10.764,4.999 Z M8,4.999 L8,3.25 C8,2.28350169 7.21649831,1.5 6.25,1.5 C5.28350169,1.5 4.5,2.28350169 4.5,3.25 C4.5,4.21079329 5.27427931,4.99074395 6.23290418,4.99991823 L8,4.999 Z" id="Combined-Shape" fill="#FFFFFF" fill-rule="nonzero"></path>
                            </g>
                        </g>
                    </g>
                </g>
            </g>
        </g>
    </g>
</svg>
