<svg width="81" height="81" viewBox="0 0 81 81" fill="none" xmlns="http://www.w3.org/2000/svg">
<ellipse opacity="0.1" cx="40.6851" cy="40.209" rx="40" ry="40" fill="#E02020"/>
<mask id="mask0_1885:11274" style="mask-type:alpha" maskUnits="userSpaceOnUse" x="0" y="0" width="81" height="81">
<ellipse cx="40.6851" cy="40.209" rx="40" ry="40" fill="white"/>
</mask>
<g mask="url(#mask0_1885:11274)">
<rect x="15.744" y="17.1504" width="107.294" height="47.0588" rx="23.5294" fill="#E02020"/>
</g>
<path fill-rule="evenodd" clip-rule="evenodd" d="M49.5803 32.0294V33.8868L47.2046 33.8868V31.2864C47.2046 29.8502 45.9637 28.686 44.4329 28.686C42.9022 28.686 41.6613 29.8502 41.6613 31.2864C41.6613 32.7226 42.9022 33.8868 44.4329 33.8868H47.2046V41.7622H36.0175C35.1355 41.327 34.5341 40.459 34.5341 39.4591V36.4872C34.5341 35.0511 35.775 33.8868 37.3057 33.8868H38.8898H40.0948C39.5826 33.1362 39.2856 32.2438 39.2856 31.2864C39.2856 28.6192 41.5901 26.457 44.4329 26.457C46.3163 26.457 47.9635 27.406 48.8607 28.8222C49.6028 28.2716 50.5405 27.943 51.5601 27.943C53.9655 27.943 55.9155 29.7725 55.9155 32.0294C55.9155 32.6982 55.7442 33.3295 55.4406 33.8868H57.8954H59.4789C61.0097 33.8868 62.2506 35.0511 62.2506 36.4872V39.4591C62.2506 40.459 61.6491 41.327 60.7672 41.7622H49.5803V33.8868H49.5804H51.5601C52.6534 33.8868 53.5398 33.0552 53.5398 32.0294C53.5398 31.0035 52.6534 30.1719 51.5601 30.1719C50.4667 30.1719 49.5803 31.0035 49.5803 32.0294ZM47.2046 43.9911H36.1181V51.3468C36.1181 52.7829 37.359 53.9472 38.8898 53.9472H47.2046V43.9911ZM49.5803 54.1736V43.9911H60.667V51.3468C60.667 52.7829 59.4261 53.9472 57.8954 53.9472H49.5804V54.1736H49.5803Z" fill="white"/>
</svg>
