<?xml version="1.0" encoding="UTF-8"?>
<svg width="127px" height="127px" viewBox="0 0 127 127" version="1.1" xmlns="http://www.w3.org/2000/svg" xmlns:xlink="http://www.w3.org/1999/xlink">
    <title>03271B4B-ADDE-4300-B953-7EA2D9F710DC</title>
    <defs>
        <circle id="path-1" cx="63.5" cy="63.5" r="63.5"></circle>
        <polygon id="path-3" points="0 0 52.9497613 0 52.9497613 53 0 53"></polygon>
        <filter id="filter-5">
            <feColorMatrix in="SourceGraphic" type="matrix" values="0 0 0 0 1.000000 0 0 0 0 1.000000 0 0 0 0 1.000000 0 0 0 1.000000 0"></feColorMatrix>
        </filter>
    </defs>
    <g id="Error-handling" stroke="none" stroke-width="1" fill="none" fill-rule="evenodd">
        <g id="Maintenance---Rewards-" transform="translate(-124.000000, -231.000000)">
            <g id="Group-2" transform="translate(124.000000, 231.000000)">
                <g id="Group-4">
                    <g id="Oval-2">
                        <mask id="mask-2" fill="white">
                            <use xlink:href="#path-1"></use>
                        </mask>
                        <use id="Oval" fill="#0066CC" opacity="0.1" xlink:href="#path-1"></use>
                        <rect id="Rectangle" fill="#0066CC" mask="url(#mask-2)" x="23.9058824" y="26.8941176" width="170.329412" height="74.7058824" rx="37.3529412"></rect>
                    </g>
                    <g id="Group-3" transform="translate(46.000000, 42.000000)">
                        <mask id="mask-4" fill="white">
                            <use xlink:href="#path-3"></use>
                        </mask>
                        <g id="Clip-2"></g>
                    </g>
                    <g id="clean-copy" transform="translate(86.000000, 32.000000)" fill="#FFFFFF" fill-rule="nonzero">
                        <g id="Group">
                            <path d="M14.4,0 L12.6,0 C12.6,3.88470703 9.37806,7.08984375 5.4,7.08984375 L5.4,8.84765625 C9.37806,8.84765625 12.6,11.994082 12.6,15.8789062 L14.4,15.8789062 C14.4,11.994082 17.62194,8.84765625 21.6,8.84765625 L21.6,7.08984375 C17.62194,7.08984375 14.4,3.88470703 14.4,0 Z" id="Path"></path>
                            <path d="M21.6,17.6367188 L19.8,17.6367188 C19.8,20.5370508 17.37006,22.9101562 14.4,22.9101562 L14.4,24.6679688 C17.37006,24.6679688 19.8,27.0995508 19.8,30 L21.6,30 C21.6,27.0995508 24.02994,24.6679688 27,24.6679688 L27,22.9101562 C24.02994,22.9101562 21.6,20.5370508 21.6,17.6367188 Z" id="Path"></path>
                            <path d="M5.4,14.1210938 L3.6,14.1210938 C3.6,16.0546289 1.97994,17.6367188 0,17.6367188 L0,19.3945312 C1.97994,19.3945312 3.6,20.9765039 3.6,22.9101562 L5.4,22.9101562 C5.4,20.9765039 7.02006,19.3945312 9,19.3945312 L9,17.6367188 C7.02006,17.6367188 5.4,16.0546289 5.4,14.1210938 Z" id="Path"></path>
                        </g>
                        <polygon id="Path" points="10 26 12 26 12 28 10 28"></polygon>
                        <polygon id="Path" points="2 3 4 3 4 5 2 5"></polygon>
                        <polygon id="Path" points="20 0 22 0 22 2 20 2"></polygon>
                        <path d="M9,17.6 L9,19.4 C6.80006667,19.4 5,21.01994 5,23 L4,23 L4,14 L5,14 C5,15.97994 6.80006667,17.6 9,17.6 Z" id="Path"></path>
                        <path d="M22,7.14391144 L22,8.91512915 C18.0710519,8.91512915 14.8888889,12.0855498 14.8888889,16 L14,16 L14,0 L14.8888889,0 C14.8888889,3.9143321 18.0710519,7.14391144 22,7.14391144 Z" id="Path"></path>
                        <path d="M27,23.1184834 L27,24.8246445 C23.6999333,24.8246445 21,27.1847773 21,30 L20,30 L20,18 L21,18 C21,20.815109 23.6999333,23.1184834 27,23.1184834 Z" id="Path"></path>
                    </g>
                </g>
                <g filter="url(#filter-5)" id="settings">
                    <g transform="translate(42.000000, 46.000000)">
                        <path d="M45.9535156,19.5160156 L40.4548828,18.1666016 C40.1519531,17.2027344 39.7664063,16.2664063 39.2982422,15.3576172 L42.1072266,10.6759766 C42.4376953,10.1251953 42.3550781,9.43671875 41.9144531,8.99609375 L38.0039062,5.08554687 C37.5632812,4.64492188 36.8748047,4.56230469 36.3240234,4.89277344 L31.6423828,7.70175781 C30.7335938,7.23359375 29.7972656,6.84804688 28.8333984,6.54511719 L27.5115234,1.04648438 C27.3462891,0.440625 26.7955078,0 26.1621094,0 L20.6542969,0 C20.0208984,0 19.4701172,0.440625 19.3048828,1.04648438 L17.9830078,6.54511719 C17.0191406,6.84804687 16.0828125,7.23359375 15.1740234,7.70175781 L10.4923828,4.89277344 C9.94160156,4.56230469 9.253125,4.64492187 8.8125,5.08554687 L4.90195312,8.99609375 C4.46132813,9.43671875 4.37871094,10.1251953 4.70917969,10.6759766 L7.51816406,15.3576172 C7.05,16.2664063 6.66445313,17.2027344 6.36152344,18.1666016 L1.04648438,19.5160156 C0.440625,19.6537109 0,20.2044922 0,20.8378906 L0,26.3457031 C0,26.9791016 0.440625,27.5298828 1.04648438,27.6675781 L6.36152344,29.0169922 C6.66445312,29.9808594 7.05,30.9171875 7.51816406,31.8259766 L4.70917969,36.5076172 C4.37871094,37.0583984 4.46132812,37.746875 4.90195312,38.1875 L8.8125,42.0980469 C9.253125,42.5386719 9.94160156,42.6212891 10.4923828,42.2908203 L15.1740234,39.4818359 C16.0828125,39.95 17.0191406,40.3355469 17.9830078,40.6384766 L19.3048828,45.9535156 C19.4701172,46.559375 20.0208984,47 20.6542969,47 L26.1621094,47 C26.7955078,47 27.3462891,46.559375 27.5115234,45.9535156 L28.8333984,40.6384766 C29.7972656,40.3355469 30.7335937,39.95 31.6423828,39.4818359 L36.3240234,42.2908203 C36.8748047,42.6212891 37.5632812,42.5386719 38.0039062,42.0980469 L41.9144531,38.1875 C42.3550781,37.746875 42.4376953,37.0583984 42.1072266,36.5076172 L39.2982422,31.8259766 C39.7664063,30.9171875 40.1519531,29.9808594 40.4548828,29.0169922 L45.9535156,27.6675781 C46.559375,27.5298828 47,26.9791016 47,26.3457031 L47,20.8378906 C47,20.2044922 46.559375,19.6537109 45.9535156,19.5160156 Z M23.4082031,30.4765625 C19.6078125,30.4765625 16.5234375,27.3921875 16.5234375,23.5917969 C16.5234375,19.7914062 19.6078125,16.7070312 23.4082031,16.7070312 C27.2085937,16.7070312 30.2929688,19.7914062 30.2929688,23.5917969 C30.2929688,27.3921875 27.2085937,30.4765625 23.4082031,30.4765625 Z" id="Shape" fill="#FFFFFF" fill-rule="nonzero"></path>
                    </g>
                </g>
            </g>
        </g>
    </g>
</svg>
