<?xml version="1.0" encoding="UTF-8"?>
<svg width="60px" height="60px" viewBox="0 0 60 60" version="1.1" xmlns="http://www.w3.org/2000/svg" xmlns:xlink="http://www.w3.org/1999/xlink">
    <title>9EED8660-71E3-4326-BEBA-BD194210C6FE</title>
    <defs>
        <circle id="path-1" cx="30" cy="30" r="30"></circle>
        <path d="M37.0906645,27.355714 C37.5690093,27.1571083 38.1202413,27.2732528 38.4778992,27.647962 C38.8355571,28.0226013 38.925915,28.5786552 38.7053663,29.0472165 L38.7053663,29.0472165 L33.8048659,39.4624832 C33.6329553,39.827898 33.2529351,40.0490757 32.8502729,40.0179081 C32.4476108,39.9868105 32.1060957,39.7100065 31.9923272,39.3224389 L31.9923272,39.3224389 L31.3139791,37.0119884 L27.5294301,40.6246967 C27.1410939,40.9954925 26.5257098,40.9810268 26.1549839,40.5927604 L26.1549839,40.5927604 L24.9748805,39.3564716 C24.6041546,38.9682052 24.6183407,38.3527513 25.0067469,37.9820254 L25.0067469,37.9820254 L28.7913658,34.3693171 L26.514878,33.5843985 C26.1330408,33.4527401 25.8723796,33.098786 25.8599406,32.6951454 C25.8475714,32.2914351 26.0860799,31.9221767 26.4591119,31.7673174 L26.4591119,31.7673174 Z M33.0315967,23.7653261 C35.7504397,21.1698953 40.0586172,21.2699668 42.6539082,23.9888099 C45.249339,26.7076529 45.1492675,31.0156907 42.4304943,33.6111215 C41.0406041,34.937838 39.2354729,35.5597212 37.4561283,35.4880219 L37.4561283,35.4880219 L37.943418,34.4522954 C39.3038179,34.4028187 40.6519883,33.8746478 41.7141303,32.8607247 C44.0185709,30.6608979 44.1033382,27.0094748 41.9035814,24.7051041 C39.7037546,22.4006634 36.0524014,22.3158262 33.7479607,24.515653 C32.8181759,25.4032288 32.2499625,26.5272167 32.0471639,27.7036163 L32.0471639,27.7036163 L30.9460276,28.1605072 C31.0710471,26.5465741 31.7685429,24.9709366 33.0315967,23.7653261 Z M35.2428771,26.0816957 C36.6823838,24.7074591 38.9634139,24.7604998 40.3375806,26.2000764 C41.7117473,27.6395831 41.6587066,29.9206132 40.2192698,31.2946401 C39.9433742,31.5580267 39.6367304,31.7683027 39.3114281,31.9271453 L39.3114281,31.9271453 L40.2106742,30.0159327 C40.2680477,29.8941277 40.3155677,29.769248 40.3544921,29.6424115 C40.7048823,28.6769168 40.5075345,27.5539772 39.7502893,26.7606028 C38.993044,25.9673681 37.8803072,25.7180978 36.8996481,26.023274 C36.7712043,26.0562585 36.644298,26.0979783 36.5198375,26.1495514 L36.5198375,26.1495514 L34.5690016,26.9591386 C34.7426592,26.6415931 34.9671214,26.3448726 35.2428771,26.0816957 Z" id="path-3"></path>
        <filter x="-22.7%" y="-18.4%" width="155.5%" height="157.9%" filterUnits="objectBoundingBox" id="filter-4">
            <feOffset dx="1" dy="2" in="SourceAlpha" result="shadowOffsetOuter1"></feOffset>
            <feGaussianBlur stdDeviation="1.5" in="shadowOffsetOuter1" result="shadowBlurOuter1"></feGaussianBlur>
            <feColorMatrix values="0 0 0 0 0   0 0 0 0 0.4   0 0 0 0 0.8  0 0 0 1 0" type="matrix" in="shadowBlurOuter1"></feColorMatrix>
        </filter>
    </defs>
    <g id="✅-Rewards" stroke="none" stroke-width="1" fill="none" fill-rule="evenodd">
        <g id="Gift-Card-Feed-+-Footer" transform="translate(-30.000000, -2135.000000)">
            <g id="Group-13" transform="translate(15.000000, 2016.000000)">
                <g id="Banner/Titile+copy/Icon-Copy" transform="translate(0.000000, 99.000000)">
                    <g id="Group" transform="translate(15.000000, 20.000000)">
                        <mask id="mask-2" fill="white">
                            <use xlink:href="#path-1"></use>
                        </mask>
                        <use id="Oval" fill="#E5EFF9" xlink:href="#path-1"></use>
                        <rect id="Rectangle" fill="#0066CC" mask="url(#mask-2)" x="11.2941176" y="12.7058824" width="80.4705882" height="35.2941176" rx="17.6470588"></rect>
                        <g id="Combined-Shape" mask="url(#mask-2)">
                            <use fill="black" fill-opacity="1" filter="url(#filter-4)" xlink:href="#path-3"></use>
                            <use fill="#FFFFFF" fill-rule="evenodd" xlink:href="#path-3"></use>
                        </g>
                    </g>
                </g>
            </g>
        </g>
    </g>
</svg>