<svg width="20" height="20" viewBox="0 0 20 20" fill="none" xmlns="http://www.w3.org/2000/svg">
<path fill-rule="evenodd" clip-rule="evenodd" d="M18.3999 0.399994C18.5628 0.399994 18.7181 0.43245 18.8597 0.491248L19.5999 1.60077V8.79999C19.5999 9.46274 19.0626 9.99999 18.3999 9.99999C17.7845 9.99999 17.2773 9.53675 17.208 8.93994L17.1999 8.79999V4.49705L10.8484 10.8485C10.3798 11.3172 9.62 11.3172 9.15137 10.8485C8.71879 10.4159 8.68552 9.73527 9.05155 9.26452L9.15137 9.15147L15.5028 2.79999H11.1999C10.5845 2.79999 10.0773 2.33675 10.008 1.73994L9.9999 1.59999C9.9999 0.984591 10.4632 0.477385 11.06 0.408067L11.1999 0.399994H18.3999ZM19.5999 1.60077C19.5999 1.55415 19.5973 1.50754 19.5919 1.46118L19.5999 1.59999V1.60077ZM6.91419 3.99999C6.91419 3.33725 6.37693 2.79999 5.71419 2.79999H3.3999L3.20265 2.80638C1.63775 2.90795 0.399902 4.20941 0.399902 5.79999V16.6L0.406284 16.7972C0.507856 18.3622 1.80932 19.6 3.3999 19.6H14.1999L14.3972 19.5936C15.9621 19.492 17.1999 18.1906 17.1999 16.6V14.2857L17.1918 14.1458C17.1225 13.549 16.6153 13.0857 15.9999 13.0857C15.3372 13.0857 14.7999 13.623 14.7999 14.2857V16.6L14.7902 16.7078C14.7394 16.9877 14.4945 17.2 14.1999 17.2H3.3999L3.29205 17.1903C3.01215 17.1395 2.7999 16.8945 2.7999 16.6V5.79999L2.80957 5.69214C2.86037 5.41224 3.10535 5.19999 3.3999 5.19999H5.71419L5.85413 5.19192C6.45094 5.1226 6.91419 4.6154 6.91419 3.99999Z" fill="#909BA0"/>
</svg>
