<?xml version="1.0" encoding="UTF-8"?>
<svg width="16px" height="16px" viewBox="0 0 16 16" version="1.1" xmlns="http://www.w3.org/2000/svg" xmlns:xlink="http://www.w3.org/1999/xlink">
    <title>6E1734A4-406B-4328-8C48-EAE2F9471218</title>
    <defs>
        <filter id="filter-1">
            <feColorMatrix in="SourceGraphic" type="matrix" values="0 0 0 0 0.454902 0 0 0 0 0.454902 0 0 0 0 0.505882 0 0 0 1.000000 0"></feColorMatrix>
        </filter>
    </defs>
    <g id="✅-Point-Balance-(Invision)" stroke="none" stroke-width="1" fill="none" fill-rule="evenodd">
        <g id="Balance-Details" transform="translate(-315.000000, -420.000000)">
            <g id="Cards-/-Profile-/-Balance-/-Rewards-&amp;-Syw.com" transform="translate(20.000000, 309.000000)">
                <g id="Icons/External_Link" transform="translate(20.000000, 101.000000)" filter="url(#filter-1)">
                    <g transform="translate(275.000000, 10.000000)">
                        <path d="M4.42857143,2 C4.98085618,2 5.42857143,2.44771525 5.42857143,3 C5.42857143,3.51283584 5.04253124,3.93550716 4.54519255,3.99327227 L4.42857143,4 L2.5,4 C2.25454011,4 2.05039163,4.17687516 2.00805567,4.41012437 L2,4.5 L2,13.5 C2,13.7454599 2.17687516,13.9496084 2.41012437,13.9919443 L2.5,14 L11.5,14 C11.7454599,14 11.9496084,13.8231248 11.9919443,13.5898756 L12,13.5 L12,11.5714286 C12,11.0191438 12.4477153,10.5714286 13,10.5714286 C13.5128358,10.5714286 13.9355072,10.9574688 13.9932723,11.4548074 L14,11.5714286 L14,13.5 C14,14.8254834 12.9684641,15.9100387 11.6643757,15.9946823 L11.5,16 L2.5,16 C1.1745166,16 0.089961328,14.9684641 0.00531767968,13.6643757 L0,13.5 L0,4.5 C0,3.1745166 1.03153594,2.08996133 2.33562431,2.00531768 L2.5,2 L4.42857143,2 Z M15,0 L15.081,0.003 L15.1489612,0.0110193427 L15.1489612,0.0110193427 C15.165949,0.0136280806 15.1833753,0.0167021706 15.2007258,0.020240071 C15.2227461,0.0246397952 15.2444365,0.0298336259 15.2658396,0.0357209664 C15.2814633,0.0400977346 15.2968513,0.0447287157 15.3121425,0.0497380859 C15.3317977,0.0561224864 15.3515792,0.0633157362 15.3710585,0.0711039637 L15.4232215,0.0936733617 L15.4232215,0.0936733617 C15.4438914,0.103376643 15.4642939,0.11379392 15.484277,0.12487577 C15.4963944,0.131498828 15.5086131,0.138606922 15.5207088,0.145995454 C15.546275,0.1617187 15.5711307,0.178490093 15.5951593,0.196313506 L15.6170223,0.212927691 L15.6170223,0.212927691 L15.7071068,0.292893219 C15.7425008,0.328287271 15.774687,0.365674419 15.8036654,0.404693385 C15.8215099,0.428869307 15.8382813,0.453725048 15.8539326,0.479339815 L15.8753288,0.515937903 L15.8753288,0.515937903 C15.8862061,0.535706055 15.8966234,0.556108604 15.9063462,0.576900852 L15.9287745,0.628663976 L15.9287745,0.628663976 C15.9366843,0.648420797 15.9438775,0.668202324 15.9504533,0.688263589 C15.9552713,0.703148659 15.9599023,0.718536724 15.9641549,0.734007034 C15.9701664,0.755563524 15.9753602,0.777253921 15.9798348,0.799205901 C15.9832978,0.816624737 15.9863719,0.83405099 15.9889822,0.851533135 C15.9905825,0.861764108 15.9920139,0.872545084 15.9932723,0.883378875 L15.9962979,0.913769205 C15.9978436,0.931734513 15.9989053,0.949733631 15.9994829,0.967745384 L16,1 L16,7 C16,7.55228475 15.5522847,8 15,8 C14.4871642,8 14.0644928,7.61395981 14.0067277,7.11662113 L14,7 L14,3.414 L8.70710678,8.70710678 C8.31658249,9.09763107 7.68341751,9.09763107 7.29289322,8.70710678 C6.93240926,8.34662282 6.90467972,7.77939176 7.20970461,7.38710056 L7.29289322,7.29289322 L12.584,2 L9,2 C8.48716416,2 8.06449284,1.61395981 8.00672773,1.11662113 L8,1 C8,0.487164161 8.38604019,0.0644928393 8.88337887,0.00672773133 L9,0 L15,0 Z" id="Combined-Shape" fill="#4B565C" fill-rule="nonzero"></path>
                    </g>
                </g>
            </g>
        </g>
    </g>
</svg>
