<?xml version="1.0" encoding="UTF-8"?>
<svg width="30px" height="30px" viewBox="0 0 30 30" version="1.1" xmlns="http://www.w3.org/2000/svg" xmlns:xlink="http://www.w3.org/1999/xlink">
    <title>A2CCFBD7-0B80-49E7-A9A0-1A43D1EEED7B</title>
    <defs>
        <path d="M0,15 C0,23.284 6.716,30 15,30 L15,30 C23.285,30 30,23.284 30,15 L30,15 C30,6.716 23.285,0 15,0 L15,0 C6.716,0 0,6.716 0,15 L0,15 Z" id="path-1"></path>
    </defs>
    <g id="ðŸ“---Profile-&amp;-Points" stroke="none" stroke-width="1" fill="none" fill-rule="evenodd">
        <g id="Activities---Point-History" transform="translate(-1286.000000, -1679.000000)">
            <g id="Bar-/-Default-/-Kmart-/-Returned-/-Pending" transform="translate(1266.000000, 1663.000000)">
                <g id="Group-15-Copy-5" transform="translate(20.000000, 16.000000)">
                    <g id="Group-3">
                        <mask id="mask-2" fill="white">
                            <use xlink:href="#path-1"></use>
                        </mask>
                        <g id="Clip-2"></g>
                        <polygon id="Fill-1" fill="#CB2127" mask="url(#mask-2)" points="-5 35 35 35 35 -5 -5 -5"></polygon>
                    </g>
                    <polygon id="Fill-4" fill="#FEFEFE" points="6.9803 5.974 12.9593 5.974 12.9593 8.689 15.6743 5.974 24.1833 5.974 17.3963 12.754 24.1833 19.528 15.6743 19.528 12.9593 16.82 12.9593 19.528 6.9803 19.528"></polygon>
                    <polygon id="Fill-5" fill="#FEFEFE" points="7.9818 22.4877 9.2128 21.3077 10.4218 21.3077 9.1608 22.5027 9.1758 22.5027 10.5778 24.0607 9.2128 24.0607 7.9818 22.6137 7.9818 24.0607 6.9808 24.0607 6.9808 20.3807 7.9818 20.3807"></polygon>
                    <g id="Group-14" transform="translate(10.000000, 20.000000)" fill="#FEFEFE">
                        <path d="M0.7044,1.308 L1.6684,1.308 L1.6684,1.805 C1.9734,1.301 2.3804,1.211 2.7444,1.211 C3.1594,1.211 3.4564,1.478 3.6124,1.827 C3.8644,1.404 4.3244,1.211 4.7104,1.211 C5.3264,1.204 5.8524,1.575 5.8524,2.391 L5.8524,4.06 L4.8954,4.06 L4.8954,2.502 C4.8954,2.109 4.6064,1.924 4.3614,1.916 C4.0794,1.916 3.7604,2.198 3.7604,2.547 L3.7604,4.06 L2.7964,4.06 L2.7964,2.502 C2.7964,2.205 2.6474,1.916 2.2994,1.916 C2.0544,1.916 1.6984,2.146 1.6984,2.695 L1.6984,4.06 L0.7044,4.06 L0.7044,1.308 Z" id="Fill-6"></path>
                        <path d="M9.7772,1.308 L10.7342,1.308 L10.7342,1.887 C10.9192,1.315 11.4462,1.211 12.0912,1.264 L12.0912,2.124 C11.7352,2.094 11.4392,2.109 11.2092,2.205 C10.9712,2.309 10.7712,2.554 10.7712,2.821 L10.7712,4.06 L9.7772,4.06 L9.7772,1.308 Z" id="Fill-8"></path>
                        <path d="M12.3065,0.3807 L13.2935,0.3807 L13.2935,1.2557 L14.1095,1.2557 L14.1095,2.1237 L13.2935,2.1237 L13.2935,3.0737 C13.2935,3.4367 13.5605,3.4737 14.1095,3.3707 L14.1095,4.0237 C13.0935,4.2307 12.3065,4.1047 12.3065,3.0437 L12.3065,0.3807 Z" id="Fill-10"></path>
                        <path d="M8.3821,2.851 C8.0781,2.866 7.0621,2.74 7.0621,3.229 C7.0621,3.43 7.2321,3.541 7.5141,3.541 C7.9071,3.534 8.3671,3.281 8.3821,2.851 L8.3821,2.851 Z M9.3541,4.06 L8.4041,4.06 L8.4041,3.638 C8.1891,3.912 7.8481,4.134 7.3431,4.134 C6.7721,4.134 6.1561,3.956 6.1721,3.237 C6.1721,2.191 7.6771,2.332 8.3821,2.317 C8.3821,1.976 8.2041,1.775 7.8481,1.775 C7.5591,1.775 7.3431,1.916 7.3431,2.08 L6.3491,2.08 C6.3491,1.516 7.0621,1.211 7.8631,1.211 C8.8571,1.211 9.3541,1.568 9.3541,2.265 L9.3541,4.06 Z" id="Fill-12"></path>
                    </g>
                </g>
            </g>
        </g>
    </g>
</svg>
