<?xml version="1.0" encoding="UTF-8"?>
<svg width="95px" height="95px" viewBox="0 0 95 95" version="1.1" xmlns="http://www.w3.org/2000/svg" xmlns:xlink="http://www.w3.org/1999/xlink">
    <title>DFA023C1-15A9-40CB-8F53-756D3EE2AFC1</title>
    <defs>
        <circle id="path-1" cx="47.5" cy="47.5" r="47.5"></circle>
    </defs>
    <g id="✅Missions-feed-Release-2" stroke="none" stroke-width="1" fill="none" fill-rule="evenodd">
        <g id="Banners-Rewards" transform="translate(-606.000000, -462.000000)">
            <g id="Group-3-Copy" transform="translate(606.000000, 462.000000)">
                <mask id="mask-2" fill="white">
                    <use xlink:href="#path-1"></use>
                </mask>
                <use id="Mask" fill="#DD0018" xlink:href="#path-1"></use>
                <polygon id="Fill-4" fill="#FEFEFE" mask="url(#mask-2)" points="26.9606 23.948 42.7641242 23.948 42.7641242 31.1242115 49.9403357 23.948 72.4310846 23.948 54.4918775 41.8687048 72.4310846 59.7735507 49.9403357 59.7735507 42.7641242 52.6158414 42.7641242 59.7735507 26.9606 59.7735507"></polygon>
                <polygon id="Fill-5" fill="#FEFEFE" mask="url(#mask-2)" points="29.6077366 67.5965463 32.8614811 64.4776035 36.0570758 64.4776035 32.7240361 67.6361938 32.7636837 67.6361938 36.4694106 71.7542555 32.8614811 71.7542555 29.6077366 67.9295859 29.6077366 71.7542555 26.9619216 71.7542555 26.9619216 62.0273833 29.6077366 62.0273833"></polygon>
                <path d="M36.8040361,64.4783965 L39.3520537,64.4783965 L39.3520537,65.7920529 C40.1582211,64.4598943 41.2339921,64.2220088 42.1961066,64.2220088 C43.2930229,64.2220088 44.0780449,64.9277357 44.4903797,65.8502026 C45.156459,64.732141 46.3723181,64.2220088 47.3925824,64.2220088 C49.0207762,64.2035066 50.4110846,65.1841233 50.4110846,67.3409515 L50.4110846,71.7524053 L47.8815692,71.7524053 L47.8815692,67.6343436 C47.8815692,66.5955771 47.1176925,66.1065903 46.4701154,66.0854449 C45.724741,66.0854449 44.8815692,66.8308194 44.8815692,67.7532863 L44.8815692,71.7524053 L42.3335515,71.7524053 L42.3335515,67.6343436 C42.3335515,66.8493216 41.9397189,66.0854449 41.0198952,66.0854449 C40.3723181,66.0854449 39.4313489,66.6933744 39.4313489,68.1444758 L39.4313489,71.7524053 L36.8040361,71.7524053 L36.8040361,64.4783965 Z" id="Fill-6" fill="#FEFEFE" mask="url(#mask-2)"></path>
                <path d="M60.7850053,64.4783965 L63.3145207,64.4783965 L63.3145207,66.008793 C63.8035075,64.4968987 65.196459,64.2220088 66.9013048,64.3620969 L66.9013048,66.6352247 C65.9603357,66.5559295 65.1779568,66.5955771 64.5700273,66.8493216 C63.9409524,67.1242115 63.4123181,67.7717885 63.4123181,68.4775154 L63.4123181,71.7524053 L60.7850053,71.7524053 L60.7850053,64.4783965 Z" id="Fill-8" fill="#FEFEFE" mask="url(#mask-2)"></path>
                <path d="M67.4703797,62.0273833 L70.0791903,62.0273833 L70.0791903,64.3401586 L72.2360185,64.3401586 L72.2360185,66.6344317 L70.0791903,66.6344317 L70.0791903,69.1454449 C70.0791903,70.1049163 70.7849172,70.2027137 72.2360185,69.930467 L72.2360185,71.6564581 C69.5505559,72.2035947 67.4703797,71.8705551 67.4703797,69.0661498 L67.4703797,62.0273833 Z" id="Fill-10" fill="#FEFEFE" mask="url(#mask-2)"></path>
                <path d="M57,68.4712681 C56.3090909,68.5162681 54,68.1382681 54,69.6052681 C54,70.2082681 54.3863636,70.5412681 55.0272727,70.5412681 C55.9204545,70.5202681 56.9659091,69.7612681 57,68.4712681 L57,68.4712681 Z M59,71.7974684 L56.6117941,71.7974684 L56.6117941,70.6424906 C56.0713054,71.3924051 55.2140652,72 53.9445452,72 C52.5091078,72 50.9605448,71.5128293 51.0007672,69.544988 C51.0007672,66.6821758 54.7841881,67.0680807 56.5564883,67.027027 C56.5564883,66.0937393 56.1090139,65.5436196 55.2140652,65.5436196 C54.4875478,65.5436196 53.9445452,65.9295245 53.9445452,66.3783784 L51.4457277,66.3783784 C51.4457277,64.8347588 53.238139,64 55.2517737,64 C57.7505912,64 59,64.9770783 59,66.8847075 L59,71.7974684 Z" id="Fill-12" fill="#FEFEFE" mask="url(#mask-2)"></path>
            </g>
        </g>
    </g>
</svg>