<?xml version="1.0" encoding="UTF-8"?>
<svg width="17px" height="22px" viewBox="0 0 17 22" version="1.1" xmlns="http://www.w3.org/2000/svg" xmlns:xlink="http://www.w3.org/1999/xlink">
    <title>Path</title>
    <g id="Page-1" stroke="none" stroke-width="1" fill="none" fill-rule="evenodd">
        <g id="Design-System-/-Assets" transform="translate(-800.000000, -1145.000000)" fill="#FFFFFF" fill-rule="nonzero">
            <path d="M801.577969,1158.39788 L806.825112,1158.39788 L804.790618,1167.28636 C804.718853,1167.59989 804.912805,1167.91271 805.223824,1167.98506 C805.448609,1168.03734 805.682708,1167.94987 805.819375,1167.76251 L815.887625,1153.96008 C816.076721,1153.70085 816.021553,1153.33618 815.764404,1153.14555 C815.665163,1153.07198 815.545201,1153.0323 815.422016,1153.0323 L810.424934,1153.0323 L812.548718,1144.7281 C812.628405,1144.41652 812.442443,1144.09881 812.133359,1144.01847 C811.912193,1143.96099 811.678192,1144.0402 811.536262,1144.2206 L801.125158,1157.45321 C800.926809,1157.70532 800.968745,1158.07178 801.218826,1158.27174 C801.320994,1158.35343 801.447565,1158.39788 801.577969,1158.39788 Z" id="Path" transform="translate(808.500000, 1156.000000) rotate(-345.000000) translate(-808.500000, -1156.000000) "></path>
        </g>
    </g>
</svg>