<?xml version="1.0" encoding="UTF-8"?>
<svg width="60px" height="60px" viewBox="0 0 60 60" version="1.1" xmlns="http://www.w3.org/2000/svg" xmlns:xlink="http://www.w3.org/1999/xlink">
    <title>39CF1F81-14FD-4F6C-B832-8536358B77E6</title>
    <defs>
        <filter id="filter-1">
            <feColorMatrix in="SourceGraphic" type="matrix" values="0 0 0 0 1.000000 0 0 0 0 1.000000 0 0 0 0 1.000000 0 0 0 1.000000 0"></feColorMatrix>
        </filter>
    </defs>
    <g id="Profile" stroke="none" stroke-width="1" fill="none" fill-rule="evenodd">
        <g id="Modal---sign-out" transform="translate(-157.000000, -424.000000)">
            <g id="Group-Copy" transform="translate(0.000000, 321.000000)">
                <g id="Group-5-Copy" transform="translate(20.000000, 103.000000)">
                    <g id="Group-4" transform="translate(137.000000, 0.000000)">
                        <circle id="Oval" fill="#0066CC" cx="30" cy="30" r="30"></circle>
                        <g filter="url(#filter-1)" id="Icons-/-20px">
                            <g transform="translate(17.000000, 17.000000)" id="power-button" fill="#FFFFFF" fill-rule="nonzero">
                                <path d="M13.5,0 C6.05612109,0 0,6.05612109 0,13.5 C0,20.9438789 6.05612109,27 13.5,27 C20.9438789,27 27,20.9438789 27,13.5 C27,6.05612109 20.9438789,0 13.5,0 Z M12.2727129,6.13638281 C12.2727129,5.45858789 12.8222051,4.9090957 13.5,4.9090957 C14.1777949,4.9090957 14.7272871,5.45858789 14.7272871,6.13638281 L14.7272871,11.3960566 C14.7272871,12.0738516 14.1777949,12.6233438 13.5,12.6233438 C12.8222051,12.6233438 12.2727129,12.0738516 12.2727129,11.3960566 L12.2727129,6.13638281 Z M13.5,22.0909043 C9.19798242,22.0909043 5.69805469,18.5909766 5.69805469,14.288959 C5.69805469,12.3722754 6.39989648,10.5291562 7.67422266,9.09921094 C8.12520703,8.59306641 8.90092969,8.54866406 9.40702148,8.99954297 C9.91306055,9.45052734 9.95756836,10.22625 9.50668945,10.7323945 C8.63351367,11.7121465 8.15257617,12.9751875 8.15257617,14.288959 C8.15257617,17.2374961 10.5514102,19.6363301 13.4999473,19.6363301 C16.4484844,19.6363301 18.8473184,17.2374961 18.8473184,14.288959 C18.8473184,12.9750293 18.3664863,11.7119883 17.4933105,10.7323945 C17.0422207,10.2264082 17.086834,9.45063281 17.592873,8.99964844 C18.0987539,8.54866406 18.8746348,8.59311914 19.3256191,9.09921094 C20.599998,10.528998 21.3018398,12.3720117 21.3018398,14.288959 C21.3018398,18.5909766 17.8020176,22.0909043 13.5,22.0909043 Z" id="Shape"></path>
                            </g>
                        </g>
                    </g>
                </g>
            </g>
        </g>
    </g>
</svg>