<?xml version="1.0" encoding="UTF-8"?>
<svg width="53px" height="52px" viewBox="0 0 53 52" version="1.1" xmlns="http://www.w3.org/2000/svg" xmlns:xlink="http://www.w3.org/1999/xlink">
    <title>85930D84-0979-4158-B725-0E9D1CAA4AD7</title>
    <defs>
        <polygon id="path-1" points="0.000866666667 0.419889006 51.5796667 0.419889006 51.5796667 51.9448153 0.000866666667 51.9448153"></polygon>
    </defs>
    <g id="Loyalty----Fallback" stroke="none" stroke-width="1" fill="none" fill-rule="evenodd">
        <g id="Fallback-Loyalty" transform="translate(-1712.000000, -1689.000000)">
            <g id="Group-6-Copy" transform="translate(1712.500000, 1689.000000)">
                <g id="Group-3">
                    <mask id="mask-2" fill="white">
                        <use xlink:href="#path-1"></use>
                    </mask>
                    <g id="Clip-2"></g>
                    <path d="M51.5805333,26.1822439 C51.5805333,40.4108539 40.0343667,51.9448153 25.7907,51.9448153 C11.5470333,51.9448153 0.000866666667,40.4108539 0.000866666667,26.1822439 C0.000866666667,11.953634 11.5470333,0.419672569 25.7907,0.419672569 C40.0343667,0.419672569 51.5805333,11.953634 51.5805333,26.1822439" id="Fill-1" fill="#0066CC" mask="url(#mask-2)"></path>
                </g>
                <path d="M29.1658824,25.1666667 C27.8796078,25.1666667 26.8333333,24.1207437 26.8333333,22.8333333 C26.8333333,21.5459229 27.8796078,20.5 29.1658824,20.5 C30.4537255,20.5 31.5,21.5459229 31.5,22.8333333 C31.5,24.1207437 30.4537255,25.1666667 29.1658824,25.1666667 M32.8135415,17 L27.2628483,17 C26.2100546,17 25.2219577,17.4102367 24.4779443,18.1527797 L14.7469542,27.8852402 C14.2720207,28.3587033 14,29.0159642 14,29.6893992 C14,30.3598936 14.2720207,31.0156841 14.7469542,31.4906176 L20.5108528,37.2545162 C20.9843159,37.7279793 21.6415768,38 22.3150119,38 C22.9855062,38 23.6412967,37.7279793 24.1147598,37.2545162 L33.8472203,27.5220557 C34.5912337,26.7795127 35,25.7899454 35,24.7371517 L35,19.1879289 C35,17.980745 34.019255,17 32.8135415,17" id="Fill-4" fill="#FFFFFF"></path>
            </g>
        </g>
    </g>
</svg>