<svg width="100" height="100" viewBox="0 0 100 100" fill="none" xmlns="http://www.w3.org/2000/svg">
<circle opacity="0.1" cx="50" cy="50" r="50" fill="#E02020"/>
<mask id="mask0_1808_109037" style="mask-type:alpha" maskUnits="userSpaceOnUse" x="0" y="0" width="100" height="100">
<circle cx="50" cy="50" r="50" fill="white"/>
</mask>
<g mask="url(#mask0_1808_109037)">
<rect x="18.8232" y="21.1763" width="134.118" height="58.8235" rx="29.4118" fill="#E02020"/>
</g>
<path d="M75.3863 35.3867L74.0235 35.596C74.2471 37.0518 73.2034 38.4313 71.7044 38.6615L71.9076 39.985C73.4067 39.7548 74.8162 40.7574 75.0398 42.2133L76.4026 42.004C76.179 40.5481 77.2227 39.1687 78.7217 38.9384L78.5185 37.615C77.0194 37.8452 75.6099 36.8425 75.3863 35.3867Z" fill="white"/>
<path d="M40.4185 48.7998L39.0557 49.0091C39.2793 50.4649 38.2357 51.8444 36.7366 52.0746L36.9399 53.3981C38.4389 53.1679 39.8484 54.1705 40.072 55.6264L41.4348 55.4171C41.2112 53.9612 42.2549 52.5818 43.7539 52.3515L43.5507 51.0281C42.0516 51.2583 40.6421 50.2556 40.4185 48.7998Z" fill="white"/>
<path d="M78.8926 41.5864L80.2554 41.3771L80.4586 42.7006L79.0958 42.9099L78.8926 41.5864Z" fill="white"/>
<path d="M49.6514 58.4902L51.0142 58.2809L51.2174 59.6044L49.8546 59.8137L49.6514 58.4902Z" fill="white"/>
<path d="M44.6562 55.1592L46.0191 54.9499L46.2223 56.2733L44.8595 56.4826L44.6562 55.1592Z" fill="white"/>
<path d="M42.0654 59.4688L43.4282 59.2594L43.6315 60.5829L42.2687 60.7922L42.0654 59.4688Z" fill="white"/>
<path d="M43.5466 51.0001L43.7548 52.3553C42.0891 52.6111 40.9136 54.0401 41.1426 55.5309L40.3854 55.6472L39.3447 48.8711L40.1018 48.7548C40.3308 50.2455 41.881 51.2559 43.5466 51.0001Z" fill="white"/>
<path d="M71.7576 47.2639L63.7918 46.3456L68.436 33.208C68.5998 32.7445 68.3601 32.2357 67.9006 32.0714C67.5685 31.9527 67.1978 32.0446 66.9575 32.3051L49.2573 51.4967C48.9248 51.8571 48.9448 52.4204 49.3018 52.7548C49.4396 52.8838 49.6147 52.9651 49.8017 52.9866L57.3879 53.8612L52.7104 66.0962C52.5349 66.5553 52.7616 67.0701 53.2168 67.2462C53.5425 67.3721 53.9116 67.2928 54.1586 67.0438L72.2797 48.7773C72.6249 48.4293 72.6254 47.8656 72.2807 47.5183C72.1399 47.3764 71.9555 47.2867 71.7576 47.2639Z" fill="white"/>
</svg>
