<?xml version="1.0" encoding="UTF-8"?>
<svg width="21px" height="20px" viewBox="0 0 21 20" version="1.1" xmlns="http://www.w3.org/2000/svg" xmlns:xlink="http://www.w3.org/1999/xlink">
    <title>56E3CEC8-8625-4B76-B6BC-47BFC0D8AD78</title>
    <g id="✅-Restrictions" stroke="none" stroke-width="1" fill="none" fill-rule="evenodd">
        <g id="New-accounts-restrictions---2" transform="translate(-218.000000, -510.000000)" fill="#FFFFFF" fill-rule="nonzero">
            <g id="Group-2" transform="translate(38.000000, 219.000000)">
                <g id="Buttons-/-50px-/-Blue" transform="translate(44.000000, 276.000000)">
                    <g id="Group" transform="translate(52.738095, 15.000000)">
                        <g id="noun_web_1434119" transform="translate(93.458065, 10.000000) scale(-1, 1) translate(-93.458065, -10.000000) translate(83.458065, 0.000000)">
                            <path d="M10,0 C4.4771525,0 0,4.4771525 0,10 C0,15.5228475 4.4771525,20 10,20 C15.5228475,20 20,15.5228475 20,10 C20,7.3478351 18.9464316,4.80429597 17.0710678,2.92893219 C15.195704,1.0535684 12.6521649,0 10,0 Z M17.0786517,5.88764045 L15.4606742,5.88764045 C15.1128179,4.77349169 14.5811451,3.72533671 13.8876404,2.78651685 C15.2153496,3.50833605 16.3192002,4.58109229 17.0786517,5.88764045 L17.0786517,5.88764045 Z M18.2022576,10 C18.2013484,10.7836995 18.0878286,11.5632026 17.8651685,12.3146067 L15.9101124,12.3146067 C16.1633304,10.774383 16.1633304,9.20314505 15.9101124,7.66292135 L17.8651685,7.66292135 C18.0899696,8.42154462 18.2035118,9.2087711 18.2022576,10 Z M1.79774236,10 C1.79865157,9.21630054 1.91217144,8.43679739 2.13483146,7.68539326 L4.08988764,7.68539326 C3.83666955,9.22561696 3.83666955,10.7968549 4.08988764,12.3370787 L2.13483146,12.3370787 C1.91003043,11.5784554 1.79648815,10.7912289 1.79774236,10 L1.79774236,10 Z M5.70786517,10 C5.7091868,9.22308318 5.78443228,8.4480547 5.93258427,7.68539326 L9.1011236,7.68539326 L9.1011236,12.3146067 L5.93258427,12.3146067 C5.78443228,11.5519453 5.7091868,10.7769168 5.70786517,10 L5.70786517,10 Z M10.8988764,2.33707865 C12.1084688,3.23832527 13.0297897,4.47195837 13.5505618,5.88764045 L10.8988764,5.88764045 L10.8988764,2.33707865 Z M9.1011236,2.33707865 L9.1011236,5.88764045 L6.4494382,5.88764045 C6.97021025,4.47195837 7.89153118,3.23832527 9.1011236,2.33707865 L9.1011236,2.33707865 Z M9.1011236,14.1123596 L9.1011236,17.6629213 C7.89153118,16.7616747 6.97021025,15.5280416 6.4494382,14.1123596 L9.1011236,14.1123596 Z M10.8988764,17.6629213 L10.8988764,14.1123596 L13.5505618,14.1123596 C13.0297897,15.5280416 12.1084688,16.7616747 10.8988764,17.6629213 Z M10.8988764,12.3146067 L10.8988764,7.68539326 L14.0674157,7.68539326 C14.3607472,9.22208212 14.3607472,10.8003898 14.0674157,12.3370787 L10.8988764,12.3146067 Z M6.11235955,2.78651685 C5.4188549,3.72533671 4.88718209,4.77349169 4.53932584,5.88764045 L2.92134831,5.88764045 C3.68079976,4.58109229 4.78465038,3.50833605 6.11235955,2.78651685 L6.11235955,2.78651685 Z M2.92134831,14.1123596 L4.53932584,14.1123596 C4.88718209,15.2265083 5.4188549,16.2746633 6.11235955,17.2134831 C4.78465038,16.4916639 3.68079976,15.4189077 2.92134831,14.1123596 Z M13.8876404,17.2134831 C14.5811451,16.2746633 15.1128179,15.2265083 15.4606742,14.1123596 L17.0786517,14.1123596 C16.3192002,15.4189077 15.2153496,16.4916639 13.8876404,17.2134831 L13.8876404,17.2134831 Z" id="Shape"></path>
                        </g>
                    </g>
                </g>
            </g>
        </g>
    </g>
</svg>