<?xml version="1.0" encoding="UTF-8"?>
<svg width="36px" height="56px" viewBox="0 0 36 56" version="1.1" xmlns="http://www.w3.org/2000/svg" xmlns:xlink="http://www.w3.org/1999/xlink">
    <title>Point Balance - Pattern asset@3x</title>
    <g id="Point-Balance---Pattern-asset" stroke="none" stroke-width="1" fill="none" fill-rule="evenodd">
        <g id="Pattern">
            <rect id="Rectangle" x="0" y="0" width="36" height="56"></rect>
            <g id="Group" fill="#015EC5" fill-rule="nonzero">
                <g id="Path">
                    <path d="M4.5,3.5 C4.00294373,3.5 3.6,3.89175084 3.6,4.375 C3.6,4.80455481 3.91837529,5.16181465 4.33822386,5.23590258 L4.5,5.25 L13.5,5.25 C15.9852814,5.25 18,7.20875422 18,9.625 C18,11.9445959 16.1432353,13.8425677 13.7958762,13.9906941 L13.5,14 L7.2,14 L6.93132778,13.9904 C5.16171741,13.8634695 3.74784342,12.4928536 3.61088005,10.7741383 L3.6,10.5 L13.5,10.5 C13.9970563,10.5 14.4,10.1082492 14.4,9.625 C14.4,9.19544519 14.0816247,8.83818535 13.6617761,8.76409742 L13.5,8.75 L4.5,8.75 C2.01471863,8.75 0,6.79124578 0,4.375 C0,2.05540405 1.85676469,0.157432324 4.20412376,0.00930593944 L4.5,0 L10.8,0 L11.0686722,0.00960003876 C12.8382826,0.136530487 14.2521566,1.50714639 14.38912,3.22586168 L14.4,3.5 L4.5,3.5 Z"></path>
                </g>
            </g>
            <g id="Group" transform="translate(14.000000, 28.000000)" fill="#015EC5" fill-rule="nonzero">
                <g id="Path">
                    <path d="M4.5,3.5 C4.00294373,3.5 3.6,3.89175084 3.6,4.375 C3.6,4.80455481 3.91837529,5.16181465 4.33822386,5.23590258 L4.5,5.25 L13.5,5.25 C15.9852814,5.25 18,7.20875422 18,9.625 C18,11.9445959 16.1432353,13.8425677 13.7958762,13.9906941 L13.5,14 L7.2,14 L6.93132778,13.9904 C5.16171741,13.8634695 3.74784342,12.4928536 3.61088005,10.7741383 L3.6,10.5 L13.5,10.5 C13.9970563,10.5 14.4,10.1082492 14.4,9.625 C14.4,9.19544519 14.0816247,8.83818535 13.6617761,8.76409742 L13.5,8.75 L4.5,8.75 C2.01471863,8.75 0,6.79124578 0,4.375 C0,2.05540405 1.85676469,0.157432324 4.20412376,0.00930593944 L4.5,0 L10.8,0 L11.0686722,0.00960003876 C12.8382826,0.136530487 14.2521566,1.50714639 14.38912,3.22586168 L14.4,3.5 L4.5,3.5 Z"></path>
                </g>
            </g>
        </g>
    </g>
</svg>