<?xml version="1.0" encoding="UTF-8"?>
<svg width="6px" height="10px" viewBox="0 0 6 10" version="1.1" xmlns="http://www.w3.org/2000/svg" xmlns:xlink="http://www.w3.org/1999/xlink">
    <title>?</title>
    <g id="Page-1" stroke="none" stroke-width="1" fill="none" fill-rule="evenodd">
        <g id="Design-System-/-Assets" transform="translate(-440.000000, -887.000000)" fill="#909BA0" fill-rule="nonzero">
            <path d="M443.704348,894.007772 L443.782609,892.569948 C445.152174,891.857513 446,890.88601 446,889.46114 C446,887.958549 444.995652,887 442.96087,887 C441.773913,887 440.665217,887.401554 440,887.958549 L440.730435,889.57772 C441.226087,889.137306 441.891304,888.865285 442.673913,888.865285 C443.469565,888.865285 443.926087,889.189119 443.926087,889.797927 C443.926087,890.639896 443.156522,891.209845 442.008696,891.818653 L442.113043,894.007772 L443.704348,894.007772 Z M442.908696,897 C443.704348,897 444.043478,896.611399 444.043478,895.989637 C444.043478,895.341969 443.704348,894.966321 442.908696,894.966321 C442.113043,894.966321 441.773913,895.341969 441.773913,895.989637 C441.773913,896.715026 442.113043,897 442.908696,897 Z" id="?"></path>
        </g>
    </g>
</svg>