<?xml version="1.0" encoding="UTF-8"?>
<svg width="20px" height="20px" viewBox="0 0 20 20" version="1.1" xmlns="http://www.w3.org/2000/svg" xmlns:xlink="http://www.w3.org/1999/xlink">
    <title>3C8CD15C-B9F6-43B8-913F-168C5CC28F40</title>
    <g id="✅-Point-Balance-(Invision)" stroke="none" stroke-width="1" fill="none" fill-rule="evenodd">
        <g id="Balance-Details" transform="translate(-315.000000, -159.000000)">
            <g id="Cards/Profile/User-Level/SafeZone" transform="translate(20.000000, 129.000000)">
                <g id="Group-13" transform="translate(295.000000, 30.000000)">
                    <circle id="Oval" fill="#EBEDF2" cx="10" cy="10" r="10"></circle>
                    <path d="M10.7043478,12.007772 L10.7826087,10.5699482 C12.1521739,9.85751295 13,8.88601036 13,7.4611399 C13,5.95854922 11.9956522,5 9.96086957,5 C8.77391304,5 7.66521739,5.4015544 7,5.95854922 L7.73043478,7.57772021 C8.22608696,7.1373057 8.89130435,6.86528497 9.67391304,6.86528497 C10.4695652,6.86528497 10.926087,7.18911917 10.926087,7.79792746 C10.926087,8.63989637 10.1565217,9.20984456 9.00869565,9.81865285 L9.11304348,12.007772 L10.7043478,12.007772 Z M9.90869565,15 C10.7043478,15 11.0434783,14.611399 11.0434783,13.9896373 C11.0434783,13.3419689 10.7043478,12.9663212 9.90869565,12.9663212 C9.11304348,12.9663212 8.77391304,13.3419689 8.77391304,13.9896373 C8.77391304,14.7150259 9.11304348,15 9.90869565,15 Z" id="?" fill="#909BA0" fill-rule="nonzero"></path>
                </g>
            </g>
        </g>
    </g>
</svg>