<?xml version="1.0" encoding="UTF-8"?>
<svg width="128px" height="127px" viewBox="0 0 128 127" version="1.1" xmlns="http://www.w3.org/2000/svg" xmlns:xlink="http://www.w3.org/1999/xlink">
    <title>C4F72E22-D258-484D-B3BF-1F19AC87ABC7</title>
    <defs>
        <circle id="path-1" cx="63.5" cy="63.5" r="63.5"></circle>
        <path d="M7.153,0.297 C6.629,1.85 5.237,2.794 3.706,2.794 L3.706,2.794 C3.46,2.794 3.22,2.736 2.979,2.686 L2.979,2.686 L4.839,5.476 C5.196,6.013 5.051,6.736 4.516,7.093 L4.516,7.093 C3.971,7.454 3.25,7.298 2.899,6.77 L2.899,6.77 L0.166,2.833 L0.373,16.611 L22.671,16.611 C24.598,16.611 26.166,15.043 26.166,13.116 L26.166,13.116 L26.166,0.297 L7.153,0.297 Z" id="path-3"></path>
        <path d="M1.969,1.023 L0.308,2.131 L1.969,3.238 C2.852,3.827 4.034,3.194 4.034,2.132 L4.034,2.132 C4.034,1.346 3.392,0.798989587 2.702,0.798989587 L2.702,0.798989587 C2.454,0.798 2.201,0.869 1.969,1.023 L1.969,1.023 Z" id="path-5"></path>
        <path d="M1.064,1.929 C0.475,2.813 1.108,3.994 2.171,3.994 L2.171,3.994 C3.237,3.994 3.866,2.81 3.279,1.929 L3.279,1.929 L2.171,0.268 L1.064,1.929 Z" id="path-7"></path>
        <path d="M3.884,0.643 C1.957,0.643 0.389,2.212 0.389,4.139 L0.389,4.139 L0.389,9.966 L5.262,9.966 C6.05,7.63 8.762,6.767 10.739,8.085 L10.739,8.085 L12.042,8.953 L12.042,0.643 L3.884,0.643 Z" id="path-9"></path>
        <path d="M0.373,0.643 L0.373,8.953 L1.676,8.085 C3.633,6.777 6.36,7.613 7.154,9.966 L7.154,9.966 L26.166,9.966 L26.166,4.139 C26.166,2.212 24.598,0.643 22.671,0.643 L22.671,0.643 L0.373,0.643 Z" id="path-11"></path>
        <path d="M0.381,2.13 C0.381,3.193 1.558,3.83 2.446,3.238 L2.446,3.238 L4.107,2.131 L2.446,1.023 C2.213,0.868 1.96,0.798 1.713,0.798 L1.713,0.798 C1.021,0.798 0.381,1.349 0.381,2.13 L0.381,2.13 Z" id="path-13"></path>
        <path d="M0.389,0.296 L0.389,13.116 C0.389,15.043 1.957,16.611 3.884,16.611 L3.884,16.611 L12.042,16.611 L12.042,2.98 L9.516,6.77 C9.158,7.303 8.436,7.446 7.899,7.093 L7.899,7.093 C7.364,6.736 7.219,6.013 7.576,5.476 L7.576,5.476 L9.436,2.686 C9.195,2.736 8.955,2.794 8.709,2.794 L8.709,2.794 C7.175,2.794 5.784,1.846 5.261,0.296 L5.261,0.296 L0.389,0.296 Z" id="path-15"></path>
    </defs>
    <g id="Error-cases" stroke="none" stroke-width="1" fill="none" fill-rule="evenodd">
        <g id="Missions---Empty-State" transform="translate(-127.000000, -272.000000)">
            <g id="Icons/127px/Giftcard" transform="translate(127.254657, 272.000000)">
                <g id="Oval-2">
                    <mask id="mask-2" fill="white">
                        <use xlink:href="#path-1"></use>
                    </mask>
                    <use id="Oval" fill="#0066CC" opacity="0.1" xlink:href="#path-1"></use>
                    <rect id="Rectangle" fill="#0066CC" mask="url(#mask-2)" x="23.9058824" y="26.8941176" width="170.329412" height="74.7058824" rx="37.3529412"></rect>
                </g>
                <g id="Group-45" transform="translate(57.000000, 48.000000)">
                    <path d="M21.153,13.0423 C20.629,14.5953 19.236,15.5393 17.705,15.5393 C17.46,15.5393 17.219,15.4813 16.978,15.4323 L18.839,18.2223 C19.196,18.7583 19.051,19.4813 18.515,19.8383 C17.971,20.1993 17.251,20.0433 16.899,19.5153 L14.166,15.5793 L14.373,29.3573 L36.67,29.3573 C38.598,29.3573 40.166,27.7893 40.166,25.8613 L40.166,13.0423 L21.153,13.0423 Z" id="Fill-1" fill="#FFFFFF"></path>
                    <g id="Group-5" transform="translate(14.000000, 12.745700)">
                        <mask id="mask-4" fill="white">
                            <use xlink:href="#path-3"></use>
                        </mask>
                        <g id="Clip-4"></g>
                        <polygon id="Fill-3" fill="#FFFFFF" mask="url(#mask-4)" points="-0.015 17 26.555 17 26.555 -0.092 -0.015 -0.092"></polygon>
                    </g>
                    <path d="M16.9685,10.7694 L15.3085,11.8764 L16.9685,12.9844 C17.8525,13.5734 19.0345,12.9404 19.0345,11.8774 C19.0345,10.8114 17.8495,10.1824 16.9685,10.7694" id="Fill-6" fill="#FFFFFF"></path>
                    <g id="Group-10" transform="translate(15.000000, 9.745700)">
                        <mask id="mask-6" fill="white">
                            <use xlink:href="#path-5"></use>
                        </mask>
                        <g id="Clip-9"></g>
                        <polygon id="Fill-8" fill="#FFFFFF" mask="url(#mask-6)" points="-0.08 3.852 4.423 3.852 4.423 0.41 -0.08 0.41"></polygon>
                    </g>
                    <path d="M14.279,15.6747 L13.172,14.0137 L12.064,15.6747 C11.475,16.5587 12.108,17.7397 13.171,17.7397 C14.237,17.7397 14.866,16.5547 14.279,15.6747" id="Fill-11" fill="#FFFFFF"></path>
                    <g id="Group-15" transform="translate(11.000000, 13.745700)">
                        <mask id="mask-8" fill="white">
                            <use xlink:href="#path-7"></use>
                        </mask>
                        <g id="Clip-14"></g>
                        <polygon id="Fill-13" fill="#FFFFFF" mask="url(#mask-8)" points="0.45 4.383 3.892 4.383 3.892 -0.119 0.45 -0.119"></polygon>
                    </g>
                    <path d="M3.8845,1.3885 C1.9565,1.3885 0.3885,2.9565 0.3885,4.8845 L0.3885,10.7115 L5.2615,10.7115 C6.0505,8.3765 8.7615,7.5135 10.7385,8.8305 L12.0425,9.6995 L12.0425,1.3885 L3.8845,1.3885 Z" id="Fill-16" fill="#FFFFFF"></path>
                    <g id="Group-20" transform="translate(0.000000, 0.745700)">
                        <mask id="mask-10" fill="white">
                            <use xlink:href="#path-9"></use>
                        </mask>
                        <g id="Clip-19"></g>
                        <polygon id="Fill-18" fill="#FFFFFF" mask="url(#mask-10)" points="0 10.354 12.43 10.354 12.43 0.254 0 0.254"></polygon>
                    </g>
                    <path d="M36.6701,1.3885 L14.3731,1.3885 L14.3731,9.6995 L15.6761,8.8305 C17.6321,7.5225 20.3601,8.3595 21.1531,10.7115 L40.1661,10.7115 L40.1661,4.8845 C40.1661,2.9565 38.5981,1.3885 36.6701,1.3885" id="Fill-21" fill="#FFFFFF"></path>
                    <g id="Group-25" transform="translate(14.000000, 0.745700)">
                        <mask id="mask-12" fill="white">
                            <use xlink:href="#path-11"></use>
                        </mask>
                        <g id="Clip-24"></g>
                        <polygon id="Fill-23" fill="#FFFFFF" mask="url(#mask-12)" points="-0.015 10.354 26.555 10.354 26.555 0.254 -0.015 0.254"></polygon>
                    </g>
                    <path d="M9.446,10.7694 C8.561,10.1794 7.381,10.8164 7.381,11.8754 C7.381,12.9384 8.558,13.5754 9.446,12.9844 L11.107,11.8764 L9.446,10.7694 Z" id="Fill-26" fill="#FFFFFF"></path>
                    <g id="Group-30" transform="translate(7.000000, 9.745700)">
                        <mask id="mask-14" fill="white">
                            <use xlink:href="#path-13"></use>
                        </mask>
                        <g id="Clip-29"></g>
                        <polygon id="Fill-28" fill="#FFFFFF" mask="url(#mask-14)" points="-0.008 3.852 4.494 3.852 4.494 0.409 -0.008 0.409"></polygon>
                    </g>
                    <path d="M9.5154,19.5155 C9.1584,20.0495 8.4354,20.1915 7.8994,19.8385 C7.3634,19.4815 7.2194,18.7585 7.5764,18.2225 L9.4364,15.4325 C9.1954,15.4815 8.9554,15.5385 8.7094,15.5385 C7.1744,15.5385 5.7844,14.5915 5.2614,13.0415 L0.3884,13.0415 L0.3884,25.8615 C0.3884,27.7885 1.9564,29.3575 3.8844,29.3575 L12.0424,29.3575 L12.0424,15.7255 L9.5154,19.5155 Z" id="Fill-31" fill="#FFFFFF"></path>
                    <g id="Group-35" transform="translate(0.000000, 12.745700)">
                        <mask id="mask-16" fill="white">
                            <use xlink:href="#path-15"></use>
                        </mask>
                        <g id="Clip-34"></g>
                        <polygon id="Fill-33" fill="#FFFFFF" mask="url(#mask-16)" points="0 17 12.43 17 12.43 -0.092 0 -0.092"></polygon>
                    </g>
                    <g id="Group-44" transform="translate(11.000000, 14.745700)">
                        <path d="M14.0027,3.1282 C13.8257,2.9192 13.5107,2.8932 13.3017,3.0692 L12.9647,3.3552 L12.6527,3.0432 C12.4607,2.8492 12.1437,2.8492 11.9507,3.0432 C11.7567,3.2362 11.7567,3.5522 11.9507,3.7462 L12.2037,3.9992 L11.9307,4.2312 C11.7217,4.4072 11.6947,4.7232 11.8717,4.9312 C12.0487,5.1402 12.3637,5.1662 12.5727,4.9892 L12.9097,4.7042 L13.2217,5.0162 C13.4147,5.2102 13.7307,5.2102 13.9237,5.0162 C14.1177,4.8232 14.1177,4.5072 13.9237,4.3142 L13.6707,4.0602 L13.9447,3.8282 C14.1527,3.6522 14.1797,3.3362 14.0027,3.1282" id="Fill-36" fill="#0066CC"></path>
                        <path d="M24.2219,4.0603 L24.4959,3.8283 C24.7039,3.6523 24.7309,3.3363 24.5539,3.1283 C24.3769,2.9193 24.0619,2.8933 23.8529,3.0693 L23.5169,3.3543 L23.2049,3.0423 C23.0119,2.8493 22.6949,2.8493 22.5019,3.0423 C22.3079,3.2363 22.3079,3.5523 22.5019,3.7463 L22.7549,3.9993 L22.4819,4.2303 C22.2729,4.4073 22.2469,4.7233 22.4229,4.9313 C22.5999,5.1403 22.9149,5.1663 23.1239,4.9893 L23.4609,4.7043 L23.7729,5.0163 C23.9659,5.2093 24.2829,5.2093 24.4749,5.0163 C24.6689,4.8233 24.6689,4.5073 24.4749,4.3133 L24.2219,4.0603 Z" id="Fill-38" fill="#0066CC"></path>
                        <path d="M16.4602,10.969 C17.5182,10.27 18.8252,10.27 19.8822,10.969 C20.5152,11.387 21.1052,10.37 20.4762,9.954 C19.0912,9.039 17.2522,9.039 15.8672,9.954 C15.2392,10.369 15.8272,11.388 16.4602,10.969" id="Fill-40" fill="#0066CC"></path>
                        <polygon id="Fill-42" fill="#FFFFFF" points="3.5754 2.8015 2.4654 0.8335 0.4744 3.2825 0.4744 14.6115 3.5754 14.6115"></polygon>
                    </g>
                </g>
            </g>
        </g>
    </g>
</svg>