<svg width="100" height="100" viewBox="0 0 100 100" fill="none" xmlns="http://www.w3.org/2000/svg">
<circle opacity="0.1" cx="50" cy="50" r="50" fill="#E02020"/>
<mask id="mask0_4781_88592" style="mask-type:alpha" maskUnits="userSpaceOnUse" x="0" y="0" width="100" height="100">
<circle cx="50" cy="50" r="50" fill="white"/>
</mask>
<g mask="url(#mask0_4781_88592)">
<rect x="18.8232" y="21.1765" width="134.118" height="58.8235" rx="29.4118" fill="#E02020"/>
</g>
<path d="M31.7139 55.3795C31.4836 55.0759 31.0881 54.8962 30.7346 55.0385C30.3811 55.1809 30.2204 55.5845 30.2647 55.963C30.3781 56.9318 29.9374 57.9095 29.1217 58.4923C28.8206 58.7074 28.6473 59.0918 28.7855 59.4351C28.9237 59.7783 29.315 59.9354 29.6812 59.8819C30.6732 59.7368 31.6684 60.1364 32.2579 60.9135C32.4882 61.2172 32.8837 61.3968 33.2372 61.2545C33.5907 61.1121 33.7514 60.7086 33.7071 60.3301C33.5937 59.3612 34.0344 58.3835 34.8501 57.8007C35.1513 57.5856 35.3245 57.2013 35.1863 56.858C35.0481 56.5147 34.6568 56.3576 34.2907 56.4111C33.2987 56.5562 32.3034 56.1566 31.7139 55.3795Z" fill="white"/>
<path d="M45.012 58.6809C44.8738 58.3376 45.04 57.9472 45.3833 57.809L45.4203 57.7941C45.7636 57.6559 46.1539 57.8221 46.2921 58.1654C46.4304 58.5087 46.2641 58.8991 45.9208 59.0373L45.8838 59.0522C45.5405 59.1904 45.1502 59.0242 45.012 58.6809Z" fill="white"/>
<path d="M38.469 62.9594C38.3308 62.6161 38.497 62.2258 38.8403 62.0876L38.8773 62.0727C39.2206 61.9345 39.611 62.1007 39.7492 62.444C39.8874 62.7873 39.7212 63.1776 39.3779 63.3159L39.3409 63.3307C38.9976 63.469 38.6072 63.3027 38.469 62.9594Z" fill="white"/>
<path d="M38.8948 57.8569C38.7566 57.5136 38.9228 57.1232 39.2661 56.985L39.3031 56.9701C39.6464 56.8319 40.0367 56.9982 40.175 57.3415C40.3132 57.6848 40.1469 58.0751 39.8036 58.2133L39.7667 58.2282C39.4234 58.3664 39.033 58.2002 38.8948 57.8569Z" fill="white"/>
<path d="M34.2677 56.4011C34.6405 56.3331 35.0406 56.4952 35.1821 56.8468C35.3236 57.1983 35.1476 57.5925 34.8316 57.8018C33.7885 58.4929 33.2468 59.6961 33.5036 60.8093C33.5512 61.0156 33.4594 61.2388 33.263 61.3179C33.0667 61.397 32.8433 61.3018 32.7643 61.1055L30.4879 55.4515C30.4088 55.2552 30.5039 55.0318 30.7003 54.9528C30.8967 54.8737 31.1176 54.971 31.2262 55.1528C31.8124 56.1333 33.0367 56.6255 34.2677 56.4011Z" fill="white"/>
<path fill-rule="evenodd" clip-rule="evenodd" d="M46.6702 52.2053C46.5122 52.8492 46.7018 53.5334 47.1718 54.0074L51.2339 58.0724C51.7125 58.5462 52.397 58.7356 53.0455 58.5767C53.6481 58.431 54.2457 58.2609 54.8361 58.067L56.0119 60.8983C56.2308 61.428 56.7016 61.8147 57.266 61.9272C57.8303 62.0396 58.4135 61.8629 58.8204 61.4562L60.9306 59.3476C61.9763 58.3004 62.5281 56.8603 62.4497 55.3842L62.3766 53.9644C67.5052 49.8693 70.9593 43.6666 72.0649 35.2182C72.1464 34.6769 71.959 34.1082 71.5569 33.7064C71.1548 33.3046 70.5858 33.1174 70.0235 33.2017C61.5821 34.2993 55.3765 37.7421 51.2677 42.8712L49.8552 42.8064C48.3877 42.7286 46.9483 43.2785 45.9015 44.3201L43.786 46.437C43.3797 46.8506 43.2076 47.4287 43.3198 47.9876C43.432 48.5465 43.8138 49.0135 44.3395 49.2349L47.1793 50.4125C46.9858 51.0029 46.8159 51.601 46.6702 52.2053ZM64.2047 45.2286C63.0543 46.3808 61.1877 46.3847 60.0324 45.2374C59.4745 44.6833 59.1607 43.9297 59.1607 43.1436C59.1607 42.3576 59.4745 41.604 60.0324 41.0499C61.1877 39.9026 63.0543 39.9065 64.2047 41.0587C65.3552 42.2109 65.3552 44.0764 64.2047 45.2286ZM45.9514 55.0358C44.9194 55.9133 43.1195 57.9572 42.918 61.6689C42.9076 61.8518 42.9757 62.0305 43.1052 62.1601C43.2347 62.2897 43.4132 62.3578 43.5961 62.3474C47.3048 62.1431 49.347 60.3417 50.2238 59.3225C50.3111 59.2213 50.3253 59.0761 50.2592 58.9598C50.1932 58.8436 50.0613 58.7815 49.9297 58.8047C49.3665 58.9012 48.7919 58.9132 48.2251 58.8402C47.2741 58.7244 46.5246 57.9743 46.4089 57.0225C46.3418 56.459 46.3583 55.8888 46.4579 55.3302C46.4761 55.2026 46.4152 55.0768 46.3038 55.0121C46.1925 54.9474 46.0531 54.9568 45.9514 55.0358Z" fill="white"/>
</svg>
