<?xml version="1.0" encoding="UTF-8"?>
<svg width="22px" height="23px" viewBox="0 0 22 23" version="1.1" xmlns="http://www.w3.org/2000/svg" xmlns:xlink="http://www.w3.org/1999/xlink">
    <title>Icons / 20px</title>
    <g id="Page-1" stroke="none" stroke-width="1" fill="none" fill-rule="evenodd">
        <g id="Design-System-/-Assets" transform="translate(-804.000000, -964.000000)" fill="#FFFFFF" fill-rule="nonzero">
            <g id="Icons-/-20px" transform="translate(804.000000, 964.000000)">
                <g id="Group" transform="translate(0.000000, 0.200000)">
                    <path d="M2.55464531,16.4662751 C2.6386137,16.5150697 2.68459484,16.6099787 2.67087226,16.7061775 C2.59574213,17.1275262 2.58328387,17.5576777 2.63390176,17.9826741 C2.72118553,18.7006006 3.2865081,19.2663728 4.00386419,19.3537259 C4.43139424,19.4088019 4.86473926,19.3997955 5.28961603,19.3270038 C5.38884553,19.3094765 5.48836304,19.3563176 5.53815682,19.4439874 C5.5879506,19.5316573 5.57725261,19.641197 5.51143903,19.7175583 C4.85007786,20.486334 3.30964035,21.8450525 0.512205838,21.9992188 C0.374315774,22.007055 0.239633521,21.9556514 0.141973451,21.8579136 C0.0443133813,21.7601759 -0.00704942223,21.6253866 0.000780585246,21.4873868 C0.152770419,18.6877277 1.51040934,17.1460652 2.28884376,16.4841781 C2.36552182,16.4245632 2.47067693,16.4174805 2.55464531,16.4662751 Z M21.6026379,0.395688486 C21.9059487,0.698771628 22.0473536,1.1277143 21.9858865,1.53597325 C21.1744258,7.73626018 18.6860986,12.3329942 14.9889812,15.4220761 L14.6781,15.6760117 L14.7332618,16.7469356 C14.7884114,17.7861252 14.4295287,18.801624 13.7401376,19.5746267 L13.5873825,19.7364788 L11.9956873,21.3269794 C11.6888153,21.6337474 11.2488862,21.767032 10.8232272,21.6822135 C10.4448463,21.6068159 10.1221921,21.3679312 9.93922615,21.0351606 L9.87732578,20.9061067 L8.9904207,18.7705503 C8.54506863,18.9167694 8.09430214,19.0450779 7.63982256,19.1549903 C7.19957617,19.262875 6.73730498,19.1579283 6.38612312,18.8753226 L6.27335952,18.774589 L3.20937838,15.7084646 C2.85481856,15.3508972 2.711796,14.8348145 2.83099416,14.3491592 C2.90427945,14.0452851 2.9856419,13.7434914 3.07498318,13.4440962 L3.21496695,12.9968419 L1.07294332,12.1085725 C0.676487005,11.9416399 0.388464251,11.5893379 0.303841701,11.1677863 C0.228618232,10.7930566 0.322803765,10.406859 0.55990121,10.1065681 L0.655459995,9.99817606 L2.25115173,8.40146893 C2.9881454,7.6681287 3.98305445,7.25794281 5.01235157,7.25421653 L5.23336013,7.25966972 L6.29879548,7.3085641 C9.39799743,3.43976651 14.0788336,0.842878486 20.4460756,0.0149743049 C20.8701936,-0.0486277428 21.2993607,0.0926388585 21.6026379,0.395688486 Z M12.9099014,5.93479267 C12.4890688,6.35271918 12.2524228,6.92114532 12.2524228,7.51406333 C12.2524228,8.10698135 12.4890688,8.67540749 12.9099014,9.093334 C13.7813257,9.95874056 15.1892691,9.95576979 16.0570292,9.08669355 C16.9247894,8.2176173 16.9247894,6.81050937 16.0570292,5.94143312 C15.1892691,5.07235687 13.7813257,5.06938611 12.9099014,5.93479267 Z" id="Combined-Shape"></path>
                </g>
            </g>
        </g>
    </g>
</svg>