<svg width="17" height="15" viewBox="0 0 17 15" fill="none" xmlns="http://www.w3.org/2000/svg">
<path d="M8.49967 0.0625C8.25741 0.0625 8.01344 0.189563 7.88973 0.441973L5.85028 4.56982L1.29201 5.23089C0.733611 5.31159 0.510251 5.99842 0.914017 6.39163L4.21288 9.60427L3.43455 14.1408C3.35895 14.5803 3.70946 14.9375 4.10635 14.9375C4.21116 14.9375 4.3194 14.9135 4.42421 14.8585L8.49967 12.7173L12.5769 14.8585C12.6817 14.9135 12.7899 14.9375 12.8947 14.9375C13.2916 14.9375 13.6404 14.5803 13.5648 14.1408L12.7865 9.60427L16.0853 6.39163C16.4891 5.99842 16.2657 5.31159 15.7073 5.23089L11.1491 4.56982L9.10962 0.441973C8.98591 0.189563 8.74193 0.0625 8.49967 0.0625Z" fill="#F7B500"/>
</svg>
