<?xml version="1.0" encoding="UTF-8"?>
<svg width="22px" height="22px" viewBox="0 0 22 22" version="1.1" xmlns="http://www.w3.org/2000/svg" xmlns:xlink="http://www.w3.org/1999/xlink">
    <title>noun_stars_2492730</title>
    <g id="Page-1" stroke="none" stroke-width="1" fill="none" fill-rule="evenodd">
        <g id="Design-System-/-Assets" transform="translate(-85.000000, -1328.000000)" fill="#FFFFFF" fill-rule="nonzero">
            <g id="noun_stars_2492730" transform="translate(85.000000, 1328.000000)">
                <path d="M11,0.5 C10.657986,0.5 10.3135463,0.679383585 10.1389008,1.03572665 L7.25967621,6.86326908 L0.824475812,7.79654854 C0.0361455706,7.91048136 -0.279186526,8.88012236 0.290836879,9.43524183 L4.94804938,13.9707376 L3.84923831,20.3752164 C3.74251052,20.9957867 4.23733935,21.5 4.79766023,21.5 C4.94562375,21.5 5.09843853,21.4660626 5.24640206,21.3884913 L11,18.3656355 L16.7560236,21.3884913 C16.9039871,21.4660626 17.0568019,21.5 17.2047654,21.5 C17.7650863,21.5 18.2574895,20.9957867 18.1507617,20.3752164 L17.0519506,13.9707376 L21.7091631,9.43524183 C22.2791865,8.88012236 21.9638544,7.91048136 21.1755242,7.79654854 L14.7403238,6.86326908 L11.8610992,1.03572665 C11.6864537,0.679383585 11.342014,0.5 11,0.5 L11,0.5 Z" id="Path"></path>
            </g>
        </g>
    </g>
</svg>