<svg width="36" height="38" viewBox="0 0 36 38" fill="none" xmlns="http://www.w3.org/2000/svg">
  <ellipse cx="18" cy="19.1182" rx="18" ry="18.6709" fill="#909BA0" />
  <path
    d="M17.2074 9.79223L14.5572 14.9734L8.63389 15.8032C7.90827 15.9045 7.61802 16.7666 8.1427 17.2602L12.4295 21.2926L11.418 26.9868C11.3198 27.5385 11.7753 27.9868 12.291 27.9868C12.4272 27.9868 12.5679 27.9566 12.7041 27.8877L18 25.2001L23.2982 27.8877C23.4344 27.9566 23.575 27.9868 23.7112 27.9868C24.227 27.9868 24.6802 27.5385 24.582 26.9868L23.5705 21.2926L27.8573 17.2602C28.382 16.7666 28.0917 15.9045 27.3661 15.8032L21.4428 14.9734L18.7926 9.79223C18.6319 9.47541 18.3148 9.31592 18 9.31592C17.6852 9.31592 17.3682 9.47541 17.2074 9.79223Z"
    fill="white" />
</svg>