<?xml version="1.0" encoding="UTF-8"?>
<svg width="60px" height="60px" viewBox="0 0 60 60" version="1.1" xmlns="http://www.w3.org/2000/svg" xmlns:xlink="http://www.w3.org/1999/xlink">
    <title>C91CDE40-2634-4445-9801-80B202C7E6BB</title>
    <defs>
        <filter id="filter-1">
            <feColorMatrix in="SourceGraphic" type="matrix" values="0 0 0 0 0.960784 0 0 0 0 0.968627 0 0 0 0 0.980392 0 0 0 1.000000 0"></feColorMatrix>
        </filter>
    </defs>
    <g id="✅Surveys---Invision" stroke="none" stroke-width="1" fill="none" fill-rule="evenodd">
        <g id="Single-notification-sample" transform="translate(-159.000000, -447.000000)">
            <g id="Group-2-Copy" transform="translate(159.000000, 447.000000)">
                <circle id="Oval-Copy" fill="#34C06B" cx="30" cy="30" r="30"></circle>
                <g filter="url(#filter-1)" id="Icons/Streaks-Copy">
                    <g transform="translate(12.000000, 12.000000)">
                        <path d="M30,4.5 C31.6568542,4.5 33,5.84314575 33,7.5 L33,25.5 C33,27.1568542 31.6568542,28.5 30,28.5 L22.5,28.5 L18.8574929,34.5708451 C18.5733448,35.0444254 17.9590845,35.1979905 17.4855042,34.9138423 C17.3447546,34.8293925 17.2269568,34.7115947 17.1425071,34.5708451 L13.5,28.5 L6,28.5 C4.34314575,28.5 3,27.1568542 3,25.5 L3,7.5 C3,5.84314575 4.34314575,4.5 6,4.5 L30,4.5 Z M28.5,21 L22.5,21 C21.6715729,21 21,21.6715729 21,22.5 C21,23.3284271 21.6715729,24 22.5,24 L28.5,24 C29.3284271,24 30,23.3284271 30,22.5 C30,21.6715729 29.3284271,21 28.5,21 Z M12.3,21 C11.4715729,21 10.8,21.6715729 10.8,22.5 C10.8,23.3284271 11.4715729,24 12.3,24 C13.1284271,24 13.8,23.3284271 13.8,22.5 C13.8,21.6715729 13.1284271,21 12.3,21 Z M12,9 C9.17157288,9 7.5,10.6715729 7.5,13.5 C7.5,14.3284271 8.17157288,15 9,15 C9.82842712,15 10.5,14.3284271 10.5,13.5 C10.5,12.3284271 10.8284271,12 12,12 C12.7232606,12 13.0602932,12.2246884 13.2833592,12.6708204 C13.4417553,12.9876125 13.5,13.3370809 13.5,13.5 C13.5,14.2999147 13.2644843,14.7395439 12.3476681,15.8397234 L12.3476681,15.8397234 L12.0918572,16.1515701 C11.5332883,16.8447535 11.0991442,17.7364779 10.7894247,18.8267434 C10.7641733,18.9156329 10.7513647,19.0075934 10.7513647,19.1 C10.7513647,19.6522681 11.1990665,20.0999699 11.7513346,20.1 L11.7513346,20.1 L12.7366543,20.1 C13.1611609,20.1 13.5394072,19.831985 13.6801126,19.4314755 C13.8844479,18.849916 14.208521,18.2928497 14.6523319,17.7602766 L14.6523319,17.7602766 L14.9081428,17.4484299 C16.051827,16.029119 16.5,15.0867463 16.5,13.5 C16.5,12.9129191 16.3707447,12.1373875 15.9666408,11.3291796 C15.2522068,9.9003116 13.9017394,9 12,9 Z M28.5,15 L22.5,15 C21.6715729,15 21,15.6715729 21,16.5 C21,17.3284271 21.6715729,18 22.5,18 L28.5,18 C29.3284271,18 30,17.3284271 30,16.5 C30,15.6715729 29.3284271,15 28.5,15 Z M28.5,9 L22.5,9 C21.6715729,9 21,9.67157288 21,10.5 C21,11.3284271 21.6715729,12 22.5,12 L28.5,12 C29.3284271,12 30,11.3284271 30,10.5 C30,9.67157288 29.3284271,9 28.5,9 Z" id="Combined-Shape" fill="#FFF" fill-rule="nonzero"></path>
                    </g>
                </g>
            </g>
        </g>
    </g>
</svg>