<svg width="100" height="100" viewBox="0 0 100 100" fill="none" xmlns="http://www.w3.org/2000/svg">
  <circle opacity="0.1" cx="50" cy="50" r="50" fill="#E02020" />
  <mask id="mask0" style="mask-type:alpha" maskUnits="userSpaceOnUse" x="0" y="0" width="100" height="100">
    <circle cx="50" cy="50" r="50" fill="white" />
  </mask>
  <g mask="url(#mask0)">
    <rect x="18.8235" y="21.1765" width="134.118" height="58.8235" rx="29.4118" fill="#E02020" />
  </g>
  <path
    d="M79.0551 29.9213H77.6378C77.6378 32.9801 75.1008 35.5038 71.9685 35.5038V36.8879C75.1008 36.8879 77.6378 39.3654 77.6378 42.4243H79.0551C79.0551 39.3654 81.5921 36.8879 84.7244 36.8879V35.5038C81.5921 35.5038 79.0551 32.9801 79.0551 29.9213Z"
    fill="white" />
  <path
    d="M84.7242 43.8085H83.3069C83.3069 46.0922 81.3936 47.9608 79.0549 47.9608V49.3449C81.3936 49.3449 83.3069 51.2595 83.3069 53.5433H84.7242C84.7242 51.2595 86.6376 49.3449 88.9762 49.3449V47.9608C86.6376 47.9608 84.7242 46.0922 84.7242 43.8085Z"
    fill="white" />
  <path
    d="M71.9685 41.0403H70.5512C70.5512 42.5628 69.2756 43.8085 67.7166 43.8085V45.1926C69.2756 45.1926 70.5512 46.4382 70.5512 47.9608H71.9685C71.9685 46.4382 73.2442 45.1926 74.8032 45.1926V43.8085C73.2442 43.8085 71.9685 42.5628 71.9685 41.0403Z"
    fill="white" />
  <path d="M75.5906 50.3937H77.1654V51.9685H75.5906V50.3937Z" fill="white" />
  <path d="M69.2913 32.2834H70.8661V33.8583H69.2913V32.2834Z" fill="white" />
  <path d="M83.4646 29.9213H85.0394V31.4961H83.4646V29.9213Z" fill="white" />
  <path
    d="M74.8032 43.7795V45.1968C73.071 45.1968 71.6536 46.4723 71.6536 48.0314H70.8662V40.9448H71.6536C71.6536 42.5038 73.071 43.7795 74.8032 43.7795Z"
    fill="white" />
  <path
    d="M85.0394 35.5464V36.9411C81.9458 36.9411 79.4401 39.4374 79.4401 42.5197H78.7402V29.9213H79.4401C79.4401 33.0034 81.9458 35.5464 85.0394 35.5464Z"
    fill="white" />
  <path
    d="M88.9764 48.1248V49.4682C86.3779 49.4682 84.252 51.3266 84.252 53.5433H83.4646V44.0945H84.252C84.252 46.3111 86.3779 48.1248 88.9764 48.1248Z"
    fill="white" />
  <path fill-rule="evenodd" clip-rule="evenodd"
    d="M35.9136 38.4252C34.2567 38.4252 32.9136 39.7683 32.9136 41.4252V58.9422C32.9136 60.5991 34.2567 61.9422 35.9136 61.9422H43.2023L46.7542 67.8622C47.1426 68.5095 48.0808 68.5095 48.4692 67.8622L52.0212 61.9422H59.3099C60.9668 61.9422 62.3099 60.5991 62.3099 58.9422V41.4252C62.3099 39.7683 60.9668 38.4252 59.3099 38.4252H35.9136ZM57.9005 42.8346C58.7122 42.8346 59.3703 43.4927 59.3703 44.3044C59.3703 45.1162 58.7122 45.7743 57.9005 45.7743H52.0212C51.2095 45.7743 50.5514 45.1162 50.5514 44.3044C50.5514 43.4927 51.2095 42.8346 52.0212 42.8346H57.9005ZM59.3703 50.1837C59.3703 49.372 58.7122 48.7139 57.9005 48.7139H52.0212C51.2095 48.7139 50.5514 49.372 50.5514 50.1837C50.5514 50.9955 51.2095 51.6536 52.0212 51.6536H57.9005C58.7122 51.6536 59.3703 50.9955 59.3703 50.1837ZM57.9005 54.5931C58.7122 54.5931 59.3703 55.2512 59.3703 56.0629C59.3703 56.8747 58.7122 57.5327 57.9005 57.5327H52.0212C51.2095 57.5327 50.5514 56.8747 50.5514 56.0629C50.5514 55.2512 51.2095 54.5931 52.0212 54.5931H57.9005ZM43.4962 56.0629C43.4962 56.8747 42.8382 57.5327 42.0264 57.5327C41.2147 57.5327 40.5566 56.8747 40.5566 56.0629C40.5566 55.2512 41.2147 54.5931 42.0264 54.5931C42.8382 54.5931 43.4962 55.2512 43.4962 56.0629ZM45.6193 45.1169C44.9192 43.7168 43.5959 42.8346 41.7325 42.8346C38.9609 42.8346 37.323 44.4726 37.323 47.2441C37.323 48.0558 37.9811 48.7139 38.7928 48.7139C39.6046 48.7139 40.2626 48.0558 40.2626 47.2441C40.2626 46.0961 40.5845 45.7743 41.7325 45.7743C42.4412 45.7743 42.7714 45.9944 42.99 46.4316C43.1452 46.742 43.2023 47.0844 43.2023 47.2441C43.2023 48.0279 42.9715 48.4587 42.0731 49.5367L41.8225 49.8423C41.2005 50.6142 40.7884 51.7211 40.5448 52.5534C40.3701 53.1504 40.8333 53.7113 41.4554 53.7113H42.3744C42.8547 53.7113 43.2709 53.3686 43.4484 52.9223C43.6201 52.4904 43.8981 51.9386 44.3314 51.4186L44.5821 51.1131C45.7027 49.7223 46.1419 48.7989 46.1419 47.2441C46.1419 46.6688 46.0152 45.9089 45.6193 45.1169Z"
    fill="white" />
</svg>