<?xml version="1.0" encoding="UTF-8"?>
<svg width="79px" height="79px" viewBox="0 0 79 79" version="1.1" xmlns="http://www.w3.org/2000/svg" xmlns:xlink="http://www.w3.org/1999/xlink">
    <title>BCF5858F-537D-4ABC-9052-03A7CE18D374</title>
    <defs>
        <circle id="path-1" cx="39.5" cy="39.5" r="39.5"></circle>
    </defs>
    <g id="✅-Point-Balance-(Invision)" stroke="none" stroke-width="1" fill="none" fill-rule="evenodd">
        <g id="Balance-Details---Empty-State" transform="translate(-148.000000, -535.000000)">
            <g id="Group" transform="translate(148.000000, 535.000000)">
                <g id="Oval-2">
                    <mask id="mask-2" fill="white">
                        <use xlink:href="#path-1"></use>
                    </mask>
                    <use id="Oval" fill="#0066CC" opacity="0.1" xlink:href="#path-1"></use>
                    <rect id="Rectangle" fill="#0066CC" mask="url(#mask-2)" x="14.8705882" y="16.7294118" width="105.952941" height="46.4705882" rx="23.2352941"></rect>
                </g>
                <g id="Icons-/-16px" transform="translate(32.000000, 27.000000)" fill="#FFFFFF">
                    <path d="M12,0 C18.627417,0 24,5.372583 24,12 C24,18.627417 18.627417,24 12,24 C5.372583,24 0,18.627417 0,12 C0,5.372583 5.372583,0 12,0 Z M13.35,6.75 L8.625,6.75 L8.40309282,6.75697945 C6.64257351,6.86807424 5.25,8.29155304 5.25,10.03125 C5.25,11.8434343 6.76103897,13.3125 8.625,13.3125 L8.625,13.3125 L15.375,13.3125 L15.4963321,13.3230731 C15.8112185,13.378639 16.05,13.6465839 16.05,13.96875 C16.05,14.3311869 15.7477922,14.625 15.375,14.625 L15.375,14.625 L7.95,14.625 L7.95816004,14.8306037 C8.06088257,16.1196402 9.12128806,17.1476021 10.4484958,17.2428 L10.4484958,17.2428 L10.65,17.25 L15.375,17.25 L15.5969072,17.2430205 C17.3574265,17.1319258 18.75,15.708447 18.75,13.96875 C18.75,12.1565657 17.238961,10.6875 15.375,10.6875 L15.375,10.6875 L8.625,10.6875 L8.5036679,10.6769269 C8.18878147,10.621361 7.95,10.3534161 7.95,10.03125 C7.95,9.66881313 8.25220779,9.375 8.625,9.375 L8.625,9.375 L16.05,9.375 L16.04184,9.16939626 C15.9391174,7.88035979 14.8787119,6.85239787 13.5515042,6.75720003 L13.5515042,6.75720003 L13.35,6.75 Z" id="Combined-Shape"></path>
                </g>
            </g>
        </g>
    </g>
</svg>