<?xml version="1.0" encoding="UTF-8"?>
<svg width="62px" height="40px" viewBox="0 0 62 40" version="1.1" xmlns="http://www.w3.org/2000/svg" xmlns:xlink="http://www.w3.org/1999/xlink">
    <title>1A8FAC41-CF85-488A-B06C-850E396EE9B5</title>
    <defs>
        <path d="M0,3.39312241 C0,1.51915265 1.51719646,0 3.37741906,0 L58.6225809,0 C60.487878,0 62,1.51920319 62,3.39312241 L62,36.6068776 C62,38.4808473 60.4828035,40 58.6225809,40 L3.37741906,40 C1.51212202,40 0,38.4807968 0,36.6068776 L0,3.39312241 Z" id="path-1"></path>
    </defs>
    <g id="Your-Balance" stroke="none" stroke-width="1" fill="none" fill-rule="evenodd">
        <g id="Non-ECM---Use-cases" transform="translate(-2235.000000, -453.000000)">
            <g id="Cards/Profile/User-Level/NON-ECM-Max" transform="translate(2215.000000, 264.000000)">
                <g id="UI-/-Credit-Card" transform="translate(20.000000, 189.000000)">
                    <g id="card-bg">
                        <mask id="mask-2" fill="white">
                            <use xlink:href="#path-1"></use>
                        </mask>
                        <use id="Mask" fill="#282526" xlink:href="#path-1"></use>
                        <text id="••••-••••-••••" mask="url(#mask-2)"  font-size="4" font-weight="normal" fill="#FFFFFF">
                            <tspan x="4" y="35">••••  ••••  ••••  </tspan>
                        </text>
                        <path d="M50.0937748,6.52418065 C50.6418543,6.52418065 51.1117881,6.75761926 51.5027815,7.24545716 L51.5027815,7.24545716 L51.5027815,7.26670495 L51.0527152,7.86049469 L51.0333775,7.83924689 C50.7398675,7.52110423 50.426755,7.37265679 50.0550993,7.37265679 C49.7025166,7.37265679 49.4090066,7.47860864 49.1743046,7.75454284 C48.9393377,8.00894212 48.8219868,8.34861971 48.8219868,8.75146643 C48.8219868,9.17584807 48.9393377,9.49399073 49.1743046,9.74867714 C49.4090066,10.0243242 49.7025166,10.1515239 50.0550993,10.1515239 C50.426755,10.1515239 50.7398675,9.98182862 51.0333775,9.66397309 L51.0333775,9.66397309 L51.0527152,9.6427253 L51.5027815,10.236515 L51.5027815,10.2577628 C51.1117881,10.7453136 50.6418543,11 50.0937748,11 C49.506755,11 49.0174834,10.809057 48.6259603,10.4062103 C48.1957616,10.0030764 48,9.43024734 48,8.75146643 C48,8.05143771 48.1957616,7.49985643 48.6259603,7.09672259 C49.0174834,6.69416301 49.506755,6.52418065 50.0937748,6.52418065 Z M55.045298,5.25132286 L55.045298,6.58792403 L55.8670199,6.58792403 L55.8670199,7.39390459 L55.045298,7.39390459 L55.045298,9.70589442 C55.045298,10.0240371 55.162649,10.1940194 55.4169536,10.1940194 C55.6127152,10.1940194 55.8084768,10.1093154 56.0235762,9.96058083 L56.0235762,9.96058083 L56.0625166,9.93962016 L56.0625166,10.0033636 L55.866755,10.7668485 C55.6712583,10.9150088 55.4365563,10.9787522 55.1430464,10.9787522 C54.8691391,10.9577915 54.6537748,10.8515526 54.4776159,10.6608967 C54.301457,10.4487059 54.242649,10.1730588 54.242649,9.83338119 L54.242649,9.83338119 L54.242649,7.39419172 L53.5382781,7.39419172 L53.5382781,6.58792403 L54.242649,6.58792403 L54.242649,5.6969523 L55.045298,5.25132286 Z M52.794702,6.58792403 L52.794702,10.9150088 L51.9727152,10.9150088 L51.9727152,6.58792403 L52.794702,6.58792403 Z M57.4913907,6.58792403 L57.4913907,10.9150088 L56.669404,10.9150088 L56.669404,6.58792403 L57.4913907,6.58792403 Z M54.7321854,4 C55.3581457,4 55.9647682,4.14844743 56.5324503,4.48783789 C57.1194702,4.82694122 57.6090066,5.25132286 57.9806623,5.8238648 L57.9806623,5.8238648 L58,5.88760819 L57.0413245,5.88760819 C56.4153642,5.14537102 55.632053,4.78473276 54.7321854,4.78473276 C53.8124503,4.78473276 53.0296689,5.14537102 52.3838411,5.88760819 L52.3838411,5.88760819 L51.4442384,5.88760819 L51.4831788,5.8238648 C51.8550993,5.25132286 52.3247682,4.82722835 52.912053,4.48783789 C53.4794702,4.14844743 54.0863576,4 54.7321854,4 Z" id="Combined-Shape" fill="#FFFFFF" fill-rule="nonzero" mask="url(#mask-2)"></path>
                    </g>
                    <g id="Group" transform="translate(4.000000, 5.000000)" fill-rule="nonzero">
                        <path d="M1.49485931,4.09452787 C1.83926317,4.09452787 2.14153251,4.01758658 2.40166734,3.863704 C2.66180217,3.70982143 2.79186959,3.45408324 2.79186959,3.09648945 C2.79186959,2.80924197 2.6892812,2.5901425 2.48410444,2.43919102 C2.36539502,2.35272367 2.19685696,2.28457567 1.97849026,2.23474702 L1.97849026,2.23474702 L1.52563582,2.13142587 C1.22080177,2.06107955 1.02515106,2.00245761 0.938683712,1.95556006 C0.806784361,1.88228265 0.740834686,1.76650433 0.740834686,1.60822511 C0.740834686,1.46460137 0.797258297,1.33856421 0.910105519,1.23011364 C1.02295274,1.12166306 1.20834461,1.06743777 1.46628111,1.06743777 C1.78577065,1.06743777 2.01219787,1.1517068 2.14556277,1.32024486 C2.21737464,1.4125744 2.26427219,1.54520653 2.28625541,1.71814123 L2.28625541,1.71814123 L2.69734172,1.71814123 C2.69734172,1.35908189 2.57899869,1.0978479 2.34231264,0.934439259 C2.10562658,0.771030619 1.81801272,0.689326299 1.47947105,0.689326299 C1.11161842,0.689326299 0.827302038,0.782388618 0.626521916,0.968513258 C0.425741793,1.1546379 0.325351732,1.3927895 0.325351732,1.68296807 C0.325351732,1.95116342 0.427940115,2.15267632 0.633116883,2.28750676 C0.751826299,2.36518083 0.95407197,2.43625992 1.2398539,2.50074405 L1.2398539,2.50074405 L1.67732008,2.59966856 C1.91473891,2.65389385 2.08913916,2.7176452 2.20052083,2.79092262 C2.31043696,2.86566558 2.36539502,2.99096997 2.36539502,3.16683577 C2.36539502,3.4013235 2.23496122,3.56399937 1.97409361,3.65486337 C1.83926317,3.70176091 1.68977724,3.72520969 1.52563582,3.72520969 C1.15924874,3.72520969 0.903510552,3.61822466 0.758421266,3.4042546 C0.682212753,3.28994183 0.638979076,3.14118867 0.628720238,2.95799513 L0.628720238,2.95799513 L0.217633929,2.95799513 C0.213237284,3.30679563 0.324618957,3.5830515 0.55177895,3.78676272 C0.778938943,3.99193948 1.09329906,4.09452787 1.49485931,4.09452787 Z M3.52356901,4 L3.52356901,2.48975244 L5.20308741,2.48975244 L5.20308741,4 L5.64495023,4 L5.64495023,0.770664232 L5.20308741,0.770664232 L5.20308741,2.105046 L3.52356901,2.105046 L3.52356901,0.770664232 L3.08170618,0.770664232 L3.08170618,4 L3.52356901,4 Z M7.43184446,4.09452787 C7.9638385,4.09452787 8.37345927,3.90693768 8.66070674,3.53175731 C8.90545331,3.21226777 9.0278266,2.8114403 9.0278266,2.32927489 C9.0278266,1.8837482 8.92084157,1.51809389 8.70687151,1.23231196 C8.43281397,0.865924874 8.01073605,0.682731331 7.44063775,0.682731331 C6.89545376,0.682731331 6.48363468,0.882045905 6.2051805,1.28067505 C5.98827934,1.5913713 5.87982876,1.96508613 5.87982876,2.40181953 C5.87982876,2.88545049 6.0065987,3.28554518 6.26013856,3.60210363 C6.54445494,3.93038645 6.93502357,4.09452787 7.43184446,4.09452787 Z M7.4846042,3.70322646 C7.07864731,3.70322646 6.78517125,3.58048679 6.60417603,3.33500744 C6.42318081,3.08952809 6.3326832,2.78799152 6.3326832,2.43039773 C6.3326832,1.98340548 6.43820268,1.6452302 6.64924164,1.41587189 C6.8602806,1.18651357 7.13287259,1.07183442 7.46701762,1.07183442 C7.81142148,1.07183442 8.08291431,1.18761273 8.28149611,1.41916937 C8.48007791,1.65072601 8.57936881,1.95629284 8.57936881,2.33586986 C8.57936881,2.6949292 8.49326784,3.01258681 8.32106591,3.28884267 C8.14886398,3.56509853 7.87004341,3.70322646 7.4846042,3.70322646 Z M9.75293105,4 L9.75293105,2.63484172 L10.7685561,2.63484172 C11.0939078,2.63484172 11.3349905,2.54141301 11.4918042,2.3545556 C11.6486178,2.16769819 11.7270247,1.94823232 11.7270247,1.69615801 C11.7270247,1.40304834 11.6390918,1.17552196 11.463226,1.01357887 C11.2873602,0.851635777 11.0558035,0.770664232 10.7685561,0.770664232 L10.7685561,0.770664232 L9.31546487,0.770664232 L9.31546487,4 L9.75293105,4 Z M10.6234668,2.26552354 L9.75293105,2.26552354 L9.75293105,1.14657738 L10.6234668,1.14657738 C10.7920048,1.14657738 10.9246369,1.16929338 11.0213631,1.21472538 C11.1972289,1.29972718 11.2851618,1.4609375 11.2851618,1.69835633 C11.2851618,1.90939529 11.2239752,2.0566829 11.1016019,2.14021916 C10.9792286,2.22375541 10.8198502,2.26552354 10.6234668,2.26552354 L10.6234668,2.26552354 Z" id="SHOP" fill="#FFFFFF"></path>
                        <path d="M13.7498647,4 L13.7498647,2.69859307 L14.9699337,0.770664232 L14.4577246,0.770664232 L13.5300325,2.32267992 L12.6023404,0.770664232 L12.0923295,0.770664232 L13.3123985,2.69859307 L13.3123985,4 L13.7498647,4 Z M16.4556578,4.09452787 C16.9876518,4.09452787 17.3972726,3.90693768 17.68452,3.53175731 C17.9292666,3.21226777 18.0516399,2.8114403 18.0516399,2.32927489 C18.0516399,1.8837482 17.9446549,1.51809389 17.7306848,1.23231196 C17.4566273,0.865924874 17.0345493,0.682731331 16.464451,0.682731331 C15.9192671,0.682731331 15.507448,0.882045905 15.2289938,1.28067505 C15.0120926,1.5913713 14.9036421,1.96508613 14.9036421,2.40181953 C14.9036421,2.88545049 15.030412,3.28554518 15.2839519,3.60210363 C15.5682682,3.93038645 15.9588369,4.09452787 16.4556578,4.09452787 Z M16.5084175,3.70322646 C16.1024606,3.70322646 15.8089845,3.58048679 15.6279893,3.33500744 C15.4469941,3.08952809 15.3564965,2.78799152 15.3564965,2.43039773 C15.3564965,1.98340548 15.462016,1.6452302 15.6730549,1.41587189 C15.8840939,1.18651357 16.1566859,1.07183442 16.4908309,1.07183442 C16.8352348,1.07183442 17.1067276,1.18761273 17.3053094,1.41916937 C17.5038912,1.65072601 17.6031821,1.95629284 17.6031821,2.33586986 C17.6031821,2.6949292 17.5170811,3.01258681 17.3448792,3.28884267 C17.1726773,3.56509853 16.8938567,3.70322646 16.5084175,3.70322646 Z M19.598917,4.08573458 C20.1441009,4.08573458 20.5148847,3.89081665 20.7112682,3.50098079 C20.8182532,3.28701073 20.8717457,2.9814439 20.8717457,2.5842803 L20.8717457,2.5842803 L20.8717457,0.770664232 L20.4276846,0.770664232 L20.4276846,2.76674107 C20.4276846,2.99976326 20.3917786,3.18515512 20.3199668,3.32291667 C20.1866019,3.57645653 19.9345275,3.70322646 19.5637438,3.70322646 C19.2545131,3.70322646 19.0346809,3.58598259 18.9042471,3.35149486 C18.8163142,3.19614674 18.7723477,3.00122881 18.7723477,2.76674107 L18.7723477,2.76674107 L18.7723477,0.770664232 L18.3282866,0.770664232 L18.3282866,2.5842803 C18.3282866,2.9814439 18.3817791,3.28701073 18.4887641,3.50098079 C18.683682,3.89081665 19.053733,4.08573458 19.598917,4.08573458 Z M21.7639227,4 L21.7639227,2.61505682 L22.7597628,2.61505682 C22.9385597,2.61505682 23.0697262,2.63484172 23.1532625,2.67441153 C23.2998173,2.74622339 23.3782242,2.88764881 23.388483,3.09868777 L23.388483,3.09868777 L23.4148629,3.63727679 C23.4207251,3.76331394 23.4280528,3.84831575 23.4368461,3.8922822 C23.4456394,3.93624865 23.4573638,3.97215458 23.4720193,4 L23.4720193,4 L24.0084099,4 L24.0084099,3.92745536 C23.9409947,3.89814439 23.8940972,3.83219472 23.8677173,3.72960633 C23.8515963,3.66951885 23.8413374,3.57792208 23.8369408,3.45481602 L23.8369408,3.45481602 L23.8215525,3.02174648 C23.8142248,2.8341563 23.7786852,2.69859307 23.7149339,2.61505682 C23.6511825,2.53152056 23.5562883,2.46410534 23.4302511,2.41281115 C23.5738749,2.33806818 23.6856229,2.23914367 23.7654953,2.11603761 C23.8453677,1.99293155 23.8853039,1.83465233 23.8853039,1.64119995 C23.8853039,1.27041622 23.7336196,1.01614358 23.4302511,0.878382035 C23.2705064,0.806570166 23.0675279,0.770664232 22.8213158,0.770664232 L22.8213158,0.770664232 L21.3264565,0.770664232 L21.3264565,4 L21.7639227,4 Z M22.775151,2.25013528 L21.7639227,2.25013528 L21.7639227,1.14657738 L22.8323074,1.14657738 C22.9817933,1.14657738 23.1012355,1.16856061 23.190634,1.21252706 C23.3577065,1.29606331 23.4412427,1.45287698 23.4412427,1.68296807 C23.4412427,1.89693813 23.3815216,2.04495851 23.2620795,2.12702922 C23.1426373,2.20909993 22.9803278,2.25013528 22.775151,2.25013528 L22.775151,2.25013528 Z" id="YOUR" fill="#FDBB31"></path>
                        <path d="M25.6413164,4 L26.3909444,1.32244318 L27.1361757,4 L27.5956252,4 L28.4441776,0.770664232 L27.9649433,0.770664232 L27.356008,3.39765963 L26.6261649,0.770664232 L26.1513273,0.770664232 L25.4214842,3.39765963 L24.8125489,0.770664232 L24.3377112,0.770664232 L25.181867,4 L25.6413164,4 Z M28.5801317,4 L28.9296649,3.0327381 L30.2068903,3.0327381 L30.5344404,4 L31.0136747,4 L29.8419688,0.770664232 L29.3473462,0.770664232 L28.1316739,4 L28.5801317,4 Z M30.0661977,2.67660985 L29.0549693,2.67660985 L29.5759718,1.24989854 L30.0661977,2.67660985 Z M32.2114185,4 L32.2114185,2.69859307 L33.4314875,0.770664232 L32.9192783,0.770664232 L31.9915862,2.32267992 L31.0638941,0.770664232 L30.5538833,0.770664232 L31.7739523,2.69859307 L31.7739523,4 L32.2114185,4 Z" id="WAY" fill="#F04028"></path>
                    </g>
                    <g id="Group-2" transform="translate(43.000000, 27.000000)" fill-rule="nonzero">
                        <polygon id="Path" fill="#FF5F00" points="9.73438292 8.50436958 5.59062197 8.50436958 5.59062197 1.01784855 9.73445953 1.01784855"></polygon>
                        <path d="M5.8533324,4.76126311 C5.8533324,3.24262386 6.56063561,1.88981259 7.66211937,1.01800259 C6.82833425,0.357114626 5.79716434,-0.00157191579 4.73545317,2.83106871e-14 C2.12007087,2.83106871e-14 4.5519144e-13,2.13166111 4.5519144e-13,4.76126311 C4.5519144e-13,7.39086511 2.12007087,9.52252633 4.73545317,9.52252633 C5.7971906,9.52411548 6.82839026,9.16542798 7.66211937,8.50452362 C6.56078883,7.63286767 5.8533324,6.27997938 5.8533324,4.76126311" id="Path" fill="#EB001B"></path>
                        <path d="M15.324775,4.76126311 C15.324775,7.39086511 13.2047042,9.52252615 10.5893219,9.52252615 C9.52747225,9.52408765 8.49616021,9.16540801 7.6622726,8.50452362 C8.76398621,7.63271363 9.47128942,6.27997938 9.47128942,4.76126311 C9.47128942,3.24254683 8.76398621,1.88981259 7.6622726,1.01800259 C8.4961396,0.357134593 9.52742189,-0.00154409168 10.5892453,1.80629773e-07 C13.2046276,1.80629773e-07 15.324775,2.13166111 15.324775,4.76126311" id="Path" fill="#F79E1B"></path>
                    </g>
                </g>
            </g>
        </g>
    </g>
</svg>