<?xml version="1.0" encoding="UTF-8"?>
<svg width="150px" height="59px" viewBox="0 0 150 59" version="1.1" xmlns="http://www.w3.org/2000/svg" xmlns:xlink="http://www.w3.org/1999/xlink">
    <title>1D1F8DE5-A252-45F8-BDBE-412CFC3BD624@3x</title>
    <g id="Rewards" stroke="none" stroke-width="1" fill="none" fill-rule="evenodd">
        <g id="Gift-Card-Feed" transform="translate(-113.000000, -2154.000000)" fill="#909BA0">
            <g id="Logos/Raise+SYW" transform="translate(113.000000, 2154.000000)">
                <g id="Cobranding" transform="translate(0.000000, -0.000000)">
                    <path d="M-3.8191672e-13,11.6648753 L1.73890374,9.58047619 C2.94264706,10.5745125 4.20467914,11.2059864 5.73262032,11.2059864 C6.9368984,11.2059864 7.66283422,10.7270295 7.66283422,9.94437642 L7.66283422,9.90557823 C7.66283422,9.16038549 7.20494652,8.7777551 4.96858289,8.20380952 C2.27393048,7.51480726 0.535026738,6.76961451 0.535026738,4.11126984 L0.535026738,4.07247166 C0.535026738,1.64424036 2.48435829,0.0387981859 5.2171123,0.0387981859 C7.16644385,0.0387981859 8.82847594,0.650204082 10.1856952,1.74056689 L8.65668449,3.95875283 C7.47192513,3.13730159 6.30614973,2.63827664 5.17847594,2.63827664 C4.0513369,2.63827664 3.45868984,3.15603175 3.45868984,3.80623583 L3.45868984,3.84369615 C3.45868984,4.72267574 4.03235294,5.01031746 6.34425134,5.60433107 C9.05802139,6.31072562 10.5863636,7.28603175 10.5863636,9.61927438 L10.5863636,9.65673469 C10.5863636,12.3150794 8.56163102,13.8068027 5.67540107,13.8068027 C3.65,13.8068027 1.60561497,13.0990703 -3.8191672e-13,11.6648753" id="Fill-40"></path>
                    <polyline id="Fill-41" points="19.9878342 0.22877551 19.9878342 5.52673469 14.5609626 5.52673469 14.5609626 0.22877551 11.617246 0.22877551 11.617246 13.6141497 14.5609626 13.6141497 14.5609626 8.24260771 19.9878342 8.24260771 19.9878342 13.6141497 22.930615 13.6141497 22.930615 0.22877551 19.9878342 0.22877551"></polyline>
                    <path d="M24.0183155,6.96092971 L24.0183155,6.92213152 C24.0183155,3.11723356 27.0187166,0 31.1454545,0 C35.2740642,0 38.2358289,3.07843537 38.2358289,6.8846712 L38.2358289,6.92213152 C38.2358289,10.7270295 35.2360963,13.8456009 31.1086898,13.8456009 C26.9800802,13.8456009 24.0183155,10.7658277 24.0183155,6.96092971 M35.1593583,6.96092971 L35.1593583,6.92213152 C35.1593583,4.62768707 33.4776738,2.71587302 31.1086898,2.71587302 C28.7379679,2.71587302 27.0947861,4.58888889 27.0947861,6.8846712 L27.0947861,6.92213152 C27.0947861,9.21791383 28.7766043,11.1297279 31.1454545,11.1297279 C33.5168449,11.1297279 35.1593583,9.25537415 35.1593583,6.96092971" id="Fill-42"></path>
                    <path d="M39.3241979,0.22877551 L44.7886364,0.22877551 C47.9803476,0.22877551 49.9100267,2.12185941 49.9100267,4.85646259 L49.9100267,4.89526077 C49.9100267,7.9924263 47.501738,9.60054422 44.5026738,9.60054422 L42.2663102,9.60054422 L42.2663102,13.6141497 L39.3241979,13.6141497 L39.3241979,0.22877551 Z M44.5983957,6.97965986 C46.0691176,6.97965986 46.9299465,6.0993424 46.9299465,4.95278912 L46.9299465,4.9153288 C46.9299465,3.59485261 46.0131016,2.88712018 44.5402406,2.88712018 L42.2663102,2.88712018 L42.2663102,6.97965986 L44.5983957,6.97965986 L44.5983957,6.97965986 Z" id="Fill-43"></path>
                    <polyline id="Fill-44" points="62.1196524 0.22877551 58.8725936 5.60433107 55.6808824 0.22877551 52.2413102 0.22877551 57.3818182 8.3362585 57.3818182 13.6141497 60.3236631 13.6141497 60.3236631 8.28006803 65.4641711 0.22877551 62.1196524 0.22877551"></polyline>
                    <path d="M64.0291444,6.96092971 L64.0291444,6.92213152 C64.0291444,3.11723356 67.0294118,0 71.1574866,0 C75.284893,0 78.2470588,3.07843537 78.2470588,6.8846712 L78.2470588,6.92213152 C78.2470588,10.7270295 75.2467914,13.8456009 71.1199198,13.8456009 C66.9925134,13.8456009 64.0291444,10.7658277 64.0291444,6.96092971 M75.1695187,6.96092971 L75.1695187,6.92213152 C75.1695187,4.62768707 73.4877005,2.71587302 71.1199198,2.71587302 C68.7498663,2.71587302 67.1073529,4.58888889 67.1073529,6.8846712 L67.1073529,6.92213152 C67.1073529,9.21791383 68.7885027,11.1297279 71.1574866,11.1297279 C73.5270053,11.1297279 75.1695187,9.25537415 75.1695187,6.96092971" id="Fill-45"></path>
                    <path d="M79.4104278,7.87870748 L79.4104278,0.22877551 L82.3536096,0.22877551 L82.3536096,7.80244898 C82.3536096,9.9831746 83.4426471,11.1109977 85.2391711,11.1109977 C87.0356952,11.1109977 88.1241979,10.0206349 88.1241979,7.89743764 L88.1241979,0.22877551 L91.0667112,0.22877551 L91.0667112,7.78238095 C91.0667112,11.8361224 88.7934492,13.8268707 85.2016043,13.8268707 C81.6086898,13.8268707 79.4104278,11.8187302 79.4104278,7.87870748" id="Fill-46"></path>
                    <path d="M92.5372995,0.22877551 L98.6526738,0.22877551 C100.353342,0.22877551 101.673128,0.707732426 102.551203,1.58671202 C103.296658,2.33190476 103.697995,3.38480726 103.697995,4.64641723 L103.697995,4.68521542 C103.697995,6.84587302 102.532754,8.20247166 100.831952,8.83528345 L104.100401,13.6141497 L100.658957,13.6141497 L97.7930481,9.33163265 L95.4804813,9.33163265 L95.4804813,13.6141497 L92.5372995,13.6141497 L92.5372995,0.22877551 Z M98.4617647,6.73081633 C99.8955882,6.73081633 100.717246,5.96689342 100.717246,4.83773243 L100.717246,4.80027211 C100.717246,3.53732426 99.8386364,2.88712018 98.4046791,2.88712018 L95.4804813,2.88712018 L95.4804813,6.73081633 L98.4617647,6.73081633 L98.4617647,6.73081633 Z" id="Fill-47"></path>
                    <polyline id="Fill-48" points="124.832353 0.22877551 122.060963 9.29417234 119.073529 0.22877551 116.526872 0.22877551 113.538636 9.29417234 110.767914 0.22877551 107.61484 0.22877551 112.149332 13.6141497 114.774733 13.6141497 117.761765 4.95278912 120.748128 13.6141497 123.373797 13.6141497 127.909893 0.22877551 124.832353 0.22877551"></polyline>
                    <path d="M131.201337,0.206031746 L125.499465,13.6154875 L128.499465,13.6154875 L129.722727,10.6133107 L135.380481,10.6133107 L136.60107,13.6154875 L139.67861,13.6154875 L133.976738,0.206031746 L131.201337,0.206031746 Z M132.551604,3.67111111 L134.328342,8.01115646 L130.773529,8.01115646 L132.551604,3.67111111 L132.551604,3.67111111 Z" id="Fill-49"></path>
                    <polyline id="Fill-50" points="146.563636 0.22877551 143.313636 5.60433107 140.12246 0.22877551 136.683957 0.22877551 141.824332 8.3362585 141.824332 13.6141497 144.766845 13.6141497 144.766845 8.28006803 149.907219 0.22877551 146.563636 0.22877551"></polyline>
                    <path d="M-3.17079696e-13,26.4576871 L-3.17079696e-13,26.4229025 C-3.17079696e-13,23.1585034 2.3959893,20.2673696 5.9644385,20.2673696 C7.96965241,20.2673696 9.21029412,20.8453288 10.3997326,21.8487302 L9.53315508,22.8695238 C8.61550802,22.0694785 7.59585561,21.5089116 5.91350267,21.5089116 C3.27954545,21.5089116 1.3934492,23.7364626 1.3934492,26.3894558 L1.3934492,26.4229025 C1.3934492,29.2631973 3.21163102,31.371678 6.10040107,31.371678 C7.45989305,31.371678 8.71737968,30.8445578 9.53315508,30.1809751 L9.53315508,27.2229478 L5.91350267,27.2229478 L5.91350267,26.0148526 L10.8244652,26.0148526 L10.8244652,30.7589342 C9.72005348,31.7462812 8.05481283,32.5797732 6.04946524,32.5797732 C2.31109626,32.5797732 -3.17079696e-13,29.8585488 -3.17079696e-13,26.4576871" id="Fill-51"></path>
                    <polygon id="Fill-52" points="14.6002674 32.3750794 15.9427807 32.3750794 15.9427807 20.4720635 14.6002674 20.4720635"></polygon>
                    <polyline id="Fill-53" points="19.7185829 20.4720635 28.2659091 20.4720635 28.2659091 21.7122676 21.0609626 21.7122676 21.0609626 25.9640136 27.5012032 25.9640136 27.5012032 27.1881633 21.0609626 27.1881633 21.0609626 32.3750794 19.7185829 32.3750794 19.7185829 20.4720635"></polyline>
                    <polyline id="Fill-54" points="35.0913102 21.7122676 31.097861 21.7122676 31.097861 20.4720635 40.4438503 20.4720635 40.4438503 21.7122676 36.4508021 21.7122676 36.4508021 32.3750794 35.0913102 32.3750794 35.0913102 21.7122676"></polyline>
                    <path d="M47.9957219,26.4576871 L47.9957219,26.4229025 C47.9957219,23.0554875 50.5104278,20.2673696 54.0112299,20.2673696 C56.1691176,20.2673696 57.4606952,21.0326304 58.6501337,22.155102 L57.7324866,23.1411111 C56.7299465,22.1885488 55.6084225,21.5089116 53.9941176,21.5089116 C51.3601604,21.5089116 49.3890374,23.650839 49.3890374,26.3894558 L49.3890374,26.4229025 C49.3890374,29.1775737 51.377139,31.3382313 53.9941176,31.3382313 C55.6252674,31.3382313 56.696123,30.7080952 57.834492,29.6204082 L58.7181818,30.4873469 C57.4774064,31.7462812 56.1181818,32.5797732 53.9600267,32.5797732 C50.5275401,32.5797732 47.9957219,29.875941 47.9957219,26.4576871" id="Fill-55"></path>
                    <path d="M70.1506684,28.0216553 L67.4487968,21.9504082 L64.7300802,28.0216553 L70.1506684,28.0216553 Z M66.8371658,20.3864399 L68.0945187,20.3864399 L73.5152406,32.3750794 L72.0709893,32.3750794 L70.6776738,29.2297506 L64.2032086,29.2297506 L62.7927807,32.3750794 L61.4163102,32.3750794 L66.8371658,20.3864399 L66.8371658,20.3864399 Z" id="Fill-56"></path>
                    <path d="M81.3430481,26.5419728 C83.1272727,26.5419728 84.401738,25.624195 84.401738,24.0936735 L84.401738,24.0602268 C84.401738,22.5965986 83.2803476,21.7122676 81.3601604,21.7122676 L77.6895722,21.7122676 L77.6895722,26.5419728 L81.3430481,26.5419728 Z M76.3471925,20.4720635 L81.4620321,20.4720635 C82.923262,20.4720635 84.0959893,20.9135601 84.8435829,21.6614286 C85.4212567,22.2393878 85.7612299,23.0728798 85.7612299,24.0080499 L85.7612299,24.0428345 C85.7612299,26.0148526 84.401738,27.170771 82.5323529,27.5119274 L86.1859626,32.3750794 L84.5377005,32.3750794 L81.0882353,27.750068 L77.6895722,27.750068 L77.6895722,32.3750794 L76.3471925,32.3750794 L76.3471925,20.4720635 L76.3471925,20.4720635 Z" id="Fill-57"></path>
                    <path d="M94.0909091,31.1335374 C97.0987968,31.1335374 99.018984,29.093288 99.018984,26.4576871 L99.018984,26.4229025 C99.018984,23.7873016 97.0987968,21.7122676 94.0909091,21.7122676 L91.3042781,21.7122676 L91.3042781,31.1335374 L94.0909091,31.1335374 Z M89.9618984,20.4720635 L94.0909091,20.4720635 C97.8295455,20.4720635 100.412567,23.0394331 100.412567,26.3894558 L100.412567,26.4229025 C100.412567,29.7729252 97.8295455,32.3750794 94.0909091,32.3750794 L89.9618984,32.3750794 L89.9618984,20.4720635 L89.9618984,20.4720635 Z" id="Fill-58"></path>
                    <path d="M103.244385,30.6412018 L104.077139,29.6538549 C105.317647,30.7763265 106.507086,31.3382313 108.155348,31.3382313 C109.752674,31.3382313 110.806283,30.4873469 110.806283,29.3140363 L110.806283,29.2805896 C110.806283,28.1741723 110.211497,27.5453741 107.713503,27.018254 C104.977674,26.4229025 103.720321,25.5385714 103.720321,23.5839456 L103.720321,23.549161 C103.720321,21.6788209 105.368583,20.3008163 107.628743,20.3008163 C109.362032,20.3008163 110.602273,20.7944898 111.808824,21.7644444 L111.027273,22.8012925 C109.922727,21.8995692 108.818182,21.5089116 107.594519,21.5089116 C106.048262,21.5089116 105.062834,22.358458 105.062834,23.4300907 L105.062834,23.4648753 C105.062834,24.5860091 105.674465,25.2161451 108.29131,25.776712 C110.942246,26.3546712 112.165909,27.3246259 112.165909,29.144127 L112.165909,29.1775737 C112.165909,31.219161 110.466444,32.5449887 108.104412,32.5449887 C106.218316,32.5449887 104.671925,31.9161905 103.244385,30.6412018" id="Fill-59"></path>
                    <path d="M73.0918449,46.6487982 L73.0918449,46.6327438 C73.0918449,45.6453968 72.4122995,45.0139229 71.6196524,45.0139229 C70.8429144,45.0139229 70.1066845,45.6694785 70.1066845,46.6247166 L70.1066845,46.640771 C70.1066845,47.6120635 70.8429144,48.2595918 71.6196524,48.2595918 C72.4284759,48.2595918 73.0918449,47.6602268 73.0918449,46.6487982 Z M69.5081551,44.5443311 L70.1311497,44.5443311 L70.1311497,45.3858503 C70.4708556,44.8841497 70.9643048,44.4546939 71.732754,44.4546939 C72.7359626,44.4546939 73.7311497,45.2480499 73.7311497,46.6247166 L73.7311497,46.640771 C73.7311497,48.0094104 72.7441176,48.8188209 71.732754,48.8188209 C70.9562834,48.8188209 70.4546791,48.3973923 70.1311497,47.9278005 L70.1311497,50.0255782 L69.5081551,50.0255782 L69.5081551,44.5443311 L69.5081551,44.5443311 Z" id="Fill-60"></path>
                    <path d="M78.2614973,46.6568254 L78.2614973,46.640771 C78.2614973,45.7417234 77.5902406,45.0058957 76.7082888,45.0058957 C75.8022727,45.0058957 75.1794118,45.7417234 75.1794118,46.6247166 L75.1794118,46.640771 C75.1794118,47.5398186 75.8426471,48.267619 76.7244652,48.267619 C77.6304813,48.267619 78.2614973,47.5398186 78.2614973,46.6568254 Z M74.540107,46.6568254 L74.540107,46.640771 C74.540107,45.4594331 75.4624332,44.4546939 76.7244652,44.4546939 C77.9783422,44.4546939 78.9005348,45.4420408 78.9005348,46.6247166 L78.9005348,46.640771 C78.9005348,47.8221088 77.9701872,48.8268481 76.7082888,48.8268481 C75.4542781,48.8268481 74.540107,47.8395011 74.540107,46.6568254 L74.540107,46.6568254 Z" id="Fill-61"></path>
                    <polyline id="Fill-62" points="79.3052139 44.5443311 79.9685829 44.5443311 81.0688503 47.9037188 82.1933155 44.5282766 82.7110963 44.5282766 83.8435829 47.9037188 84.943984 44.5443311 85.5910428 44.5443311 84.1187166 48.7612925 83.576738 48.7612925 82.4522727 45.4594331 81.3196524 48.7612925 80.7695187 48.7612925 79.3052139 44.5443311"></polyline>
                    <path d="M89.3205882,46.3892517 C89.2477273,45.6293424 88.8108289,44.9818141 87.9858289,44.9818141 C87.2657754,44.9818141 86.7157754,45.5798413 86.6266043,46.3892517 L89.3205882,46.3892517 Z M88.0990642,48.2836735 C88.6733957,48.2836735 89.0778075,48.0495465 89.4176471,47.6936735 L89.806016,48.0415193 C89.3852941,48.5111111 88.8758021,48.8268481 88.0828877,48.8268481 C86.9340909,48.8268481 85.9957219,47.9438549 85.9957219,46.640771 C85.9957219,45.4259864 86.8450535,44.4546939 88.0020053,44.4546939 C89.2395722,44.4546939 89.951738,45.4420408 89.951738,46.6728798 C89.951738,46.7304082 89.951738,46.7946259 89.9435829,46.8922902 L86.6266043,46.8922902 C86.7157754,47.7739456 87.3628342,48.2836735 88.0990642,48.2836735 L88.0990642,48.2836735 Z" id="Fill-63"></path>
                    <path d="M90.894385,44.5443311 L91.5173797,44.5443311 L91.5173797,45.6373696 C91.8247326,44.9403401 92.4314171,44.4386395 93.2243316,44.4707483 L93.2243316,45.1436961 L93.1758021,45.1436961 C92.261631,45.1436961 91.5173797,45.7992517 91.5173797,47.0621995 L91.5173797,48.7291837 L90.894385,48.7291837 L90.894385,44.5443311" id="Fill-64"></path>
                    <path d="M96.953877,46.3892517 C96.8811497,45.6293424 96.4442513,44.9818141 95.618984,44.9818141 C94.8989305,44.9818141 94.3489305,45.5798413 94.259893,46.3892517 L96.953877,46.3892517 Z M95.7323529,48.2836735 C96.3066845,48.2836735 96.7110963,48.0495465 97.0509358,47.6936735 L97.4393048,48.0415193 C97.0187166,48.5111111 96.5089572,48.8268481 95.7161765,48.8268481 C94.5673797,48.8268481 93.628877,47.9438549 93.628877,46.640771 C93.628877,45.4259864 94.4783422,44.4546939 95.6351604,44.4546939 C96.8729947,44.4546939 97.584893,45.4420408 97.584893,46.6728798 C97.584893,46.7304082 97.584893,46.7946259 97.5768717,46.8922902 L94.259893,46.8922902 C94.3489305,47.7739456 94.996123,48.2836735 95.7323529,48.2836735 L95.7323529,48.2836735 Z" id="Fill-65"></path>
                    <path d="M102.018316,46.640771 L102.018316,46.6247166 C102.018316,45.6614512 101.282219,45.0139229 100.505481,45.0139229 C99.6965241,45.0139229 99.0330214,45.6119501 99.0330214,46.6247166 L99.0330214,46.640771 C99.0330214,47.6281179 99.7125668,48.2595918 100.505481,48.2595918 C101.282219,48.2595918 102.018316,47.6040363 102.018316,46.640771 Z M98.393984,46.6487982 L98.393984,46.6327438 C98.393984,45.2641043 99.3890374,44.4546939 100.392246,44.4546939 C101.168984,44.4546939 101.670455,44.8761224 101.994118,45.3457143 L101.994118,42.8198186 L102.616979,42.8198186 L102.616979,48.7291837 L101.994118,48.7291837 L101.994118,47.8876644 C101.654278,48.3893651 101.160829,48.8188209 100.392246,48.8188209 C99.3890374,48.8188209 98.393984,48.0254649 98.393984,46.6487982 L98.393984,46.6487982 Z" id="Fill-66"></path>
                    <path d="M97.3584225,55.4733787 L97.3584225,55.4573243 C97.3584225,54.4699773 96.678877,53.8385034 95.8859626,53.8385034 C95.109492,53.8385034 94.373262,54.494059 94.373262,55.4492971 L94.373262,55.4653515 C94.373262,56.436644 95.109492,57.0855102 95.8859626,57.0855102 C96.6950535,57.0855102 97.3584225,56.4861451 97.3584225,55.4733787 Z M94.3974599,56.752381 L94.3974599,57.5537642 L93.7745989,57.5537642 L93.7745989,51.6443991 L94.3974599,51.6443991 L94.3974599,54.2104308 C94.7372995,53.7087302 95.2307487,53.2792744 95.9993316,53.2792744 C97.0025401,53.2792744 97.9975936,54.0726304 97.9975936,55.4492971 L97.9975936,55.4653515 C97.9975936,56.8339909 97.0105615,57.6434014 95.9993316,57.6434014 C95.2225936,57.6434014 94.721123,57.2219728 94.3974599,56.752381 L94.3974599,56.752381 Z" id="Fill-67"></path>
                    <path d="M98.5802139,58.664195 L98.7903743,58.1691837 C98.9927807,58.2748753 99.1787433,58.3230385 99.4457219,58.3230385 C99.8177807,58.3230385 100.052406,58.1290476 100.303209,57.5377098 L98.402139,53.3689116 L99.0897059,53.3689116 L100.610695,56.8580726 L101.95361,53.3689116 L102.616979,53.3689116 L100.861364,57.6915646 C100.505481,58.5585034 100.10107,58.8742404 99.4699198,58.8742404 C99.1220588,58.8742404 98.8632353,58.8006576 98.5802139,58.664195" id="Fill-68"></path>
                    <path d="M123.740107,50.9995465 C123.574332,52.5367574 124.54893,52.7187075 125.149198,52.1902494 C125.563636,51.8250113 125.726738,51.4544218 125.89385,50.5647392 C126.039572,49.7874376 126.318984,48.3371882 126.318984,48.3371882 C125.559626,48.176644 123.976738,48.8134694 123.740107,50.9995465" id="Fill-70"></path>
                    <path d="M136.302941,47.2026757 C135.847059,46.9324263 135.530214,46.7277324 135.304278,46.5297279 L134.909893,47.5036961 C135.621123,47.5960091 136.063636,48.2729705 135.788235,49.0021088 C135.788235,49.0021088 134.801604,48.6917234 134.435294,49.4877551 C134.142513,50.1272562 134.514171,50.8550567 135.360428,50.8791383 C137.336364,50.9366667 138.268182,48.3679592 136.302941,47.2026757" id="Fill-71"></path>
                    <path d="M117.108824,44.5389796 C114.674599,44.8614059 112.475134,46.671542 112.692647,48.9298639 C112.809091,50.1433107 114.048262,50.5312925 114.913369,50.0857823 C115.586765,49.7406122 116.011096,48.8616327 115.657219,47.6736054 C116.98516,47.1652154 118.188503,48.0107483 117.961631,49.9279138 C121.85107,48.6515873 121.268182,43.985102 117.108824,44.5389796" id="Fill-72"></path>
                    <path d="M144.494118,42.2298186 C144.078342,42.0438549 143.615775,41.9502041 143.119786,41.9502041 C141.331016,41.9502041 139.496791,43.1596372 138.66123,44.860068 C138.495455,44.7329705 138.320321,44.6112245 138.135829,44.4961678 C137.778877,44.2740816 137.546257,43.9302494 137.514171,43.8794104 L136.786898,42.5910431 L133.542246,44.8680952 L133.560963,44.769093 C133.788235,44.4827891 133.968717,44.1831066 134.072995,43.8860998 C134.37246,43.0405669 134.138503,42.174966 133.462032,41.6264399 C133.071658,41.3093651 132.610428,41.1421315 132.129144,41.1421315 C131.564973,41.1421315 130.724064,41.370907 129.909893,42.4626077 C129.486096,43.0325397 129.154545,43.7268934 129.023529,44.3195692 C128.959358,44.6139002 128.943316,44.9390023 129.007487,45.2493878 L128.151872,45.4286621 C128.138503,45.4313379 126.702674,45.7323583 126.26016,45.8219955 C126.22139,45.8300227 126.174599,45.8380499 126.121123,45.8487528 C125.714706,45.9250113 124.975401,46.0654875 124.163904,46.3839002 C124.206684,45.85678 124.166578,45.3350113 124.042246,44.8306349 C123.77754,43.7549887 123.16123,42.8372109 122.258824,42.1776417 C121.356417,41.5153968 120.227005,41.1662132 118.99385,41.1662132 C118.734759,41.1662132 118.468717,41.1822676 118.202674,41.2130385 C115.529813,41.523424 113.463904,42.6351927 111.701337,44.7115646 C110.760561,45.8206576 110.175802,47.2628798 110.054144,48.7746712 C109.929412,50.3279365 110.327807,51.7260091 111.146257,52.611678 C111.729011,53.2431519 112.495588,53.6645805 113.361898,53.8398413 C113.28008,54.2840136 113.179679,54.8365533 113.034893,55.6459637 L112.675668,57.65678 L114.672995,57.2353515 C115.391176,57.0841723 116.623529,56.8192744 116.834358,56.772449 L117.746123,56.5731066 L117.896791,55.6499773 C117.902941,55.612517 117.909091,55.5763946 117.914973,55.5402721 C118.548663,55.9563492 119.274733,56.1811111 120.024465,56.1811111 C121.034225,56.1811111 122.000802,55.7891156 122.83369,55.0599773 C123.236096,55.2245351 123.667914,55.3101587 124.109091,55.3101587 C125.008824,55.3101587 125.843048,54.9556236 126.492781,54.3335147 C126.843048,54.4673016 127.22139,54.5382086 127.609091,54.5382086 C128.424599,54.5382086 129.17861,54.2345125 129.766845,53.7033787 C129.966043,53.7782993 130.173262,53.8291383 130.385829,53.8545578 C130.515508,53.8706122 130.647861,53.8773016 130.77754,53.8773016 C131.720053,53.8773016 132.60508,53.466576 133.35508,52.7120181 C133.773529,52.8578458 134.282888,52.9448073 134.899198,52.9448073 C135.118449,52.9448073 135.349733,52.9407937 135.586364,52.916712 C137.284225,52.7481406 138.780214,51.9146485 139.666578,50.7292971 C139.936631,50.9219501 140.236096,51.0838322 140.564973,51.208254 C140.939305,51.350068 141.352406,51.4223129 141.792246,51.4223129 C143.268182,51.4223129 145.106417,50.5754422 145.764171,48.9552834 L145.925936,48.5565986 L145.832353,48.1365079 C145.801604,48.0027211 145.784225,47.8782993 145.762834,47.7338095 C145.749465,47.6388209 145.736096,47.5451701 145.720053,47.4475057 L145.599733,46.7384354 C145.837701,46.3491156 146.004813,45.9317007 146.093048,45.4995692 C146.385829,44.0787528 145.757487,42.795737 144.494118,42.2298186 M132.597059,42.6953968 C133.603743,43.5128345 131.02754,45.3657823 130.433957,45.0915193 C129.939305,44.8627438 131.435294,41.7535374 132.597059,42.6953968 M135.45,51.5547619 C134.187968,51.6791837 133.435294,51.3821769 133.020856,50.9112472 C132.58369,51.6336961 131.753476,52.6304082 130.546257,52.4872562 C130.028877,52.4243764 129.658556,52.0738549 129.466043,51.7139683 C128.888503,53.4237642 126.960695,53.5722676 126.169251,52.4069841 C125.463369,54.0900227 123.766845,54.3067574 122.776203,53.4237642 L122.629144,53.2458277 C120.679947,55.9349433 117.675802,54.9462585 117.169118,51.7862132 C116.975134,52.9621995 116.843182,53.5669161 116.539439,55.429229 C116.335027,55.4733787 115.095588,55.7396145 114.388904,55.8881179 C114.732219,53.9682766 114.821791,53.5107256 115.016711,52.4859184 C113.979947,52.6799093 112.89492,52.4778912 112.156684,51.6778458 C111.016176,50.4443311 111.148663,47.4889796 112.749465,45.602585 C114.185294,43.9115193 115.902273,42.8653061 118.361096,42.5803401 C123.129144,42.0278005 125.090374,47.7498639 118.981684,50.9567347 C119.029813,51.2363492 119.109626,51.5146259 119.221257,51.7741723 C120.08262,53.7742857 121.48877,53.6739456 122.21738,52.7374376 C121.917914,52.1795465 121.796257,51.4397052 121.979412,50.556712 C122.556952,47.7672562 125.774866,47.3244218 126.532888,47.1705669 C126.984759,47.0795918 128.435294,46.7758957 128.435294,46.7758957 C128.435294,46.7758957 127.96738,49.13322 127.72139,50.7386621 C127.619786,51.391542 127.734759,51.6564399 127.929947,51.8049433 C128.419251,52.1782086 128.944652,51.5520862 129.264171,50.9005442 C129.222727,50.5727664 129.324332,50.1339456 129.383155,49.8208844 C129.52754,49.0596372 130.016845,46.44678 130.016845,46.44678 L131.921925,46.0480952 C131.921925,46.0480952 131.397861,48.8388889 131.229412,49.7299093 C130.986096,51.0303175 131.869786,51.5694785 132.633155,50.1419728 C132.443316,49.621542 132.646524,48.7077778 132.937968,48.2850113 C133.17861,47.9371655 133.54492,47.6816327 133.954011,47.5839683 L134.627807,45.7872109 L136.335027,44.5898186 C136.335027,44.5898186 136.71738,45.2333333 137.408556,45.664127 C140.737433,47.739161 138.812299,51.2202948 135.45,51.5547619 M141.293583,48.0000454 C141.54893,49.2148299 143.425936,49.0609751 144.363102,47.6762812 C144.405882,47.9278005 144.427273,48.1552381 144.490107,48.4375283 C143.999465,49.6469615 142.175936,50.3480045 141.050267,49.9225624 C139.337701,49.275034 139.109091,47.3003401 139.81631,45.6360317 C140.585027,43.8312472 142.708021,42.937551 143.93262,43.4860771 C145.773529,44.311542 144.535561,47.6134014 141.240107,47.6655782 C141.252139,47.7766213 141.269519,47.8876644 141.293583,48.0000454" id="Fill-73"></path>
                    <path d="M141.571658,45.6480726 C141.42861,45.9758503 141.308289,46.3598186 141.252139,46.7799093 C142.773529,46.7397732 143.801604,45.531678 143.368449,44.7864853 C143.10508,44.3342857 142.014171,44.6433333 141.571658,45.6480726" id="Fill-74"></path>
                    <path d="M145.205348,50.932382 C145.205348,50.7924092 145.2545,50.6749607 145.35111,50.5784276 C145.449415,50.4818946 145.566365,50.4336281 145.705348,50.4336281 C145.844331,50.4336281 145.96128,50.4818946 146.059585,50.5784276 C146.156195,50.6749607 146.205348,50.7924092 146.205348,50.932382 C146.205348,51.0739638 146.156195,51.1914123 146.059585,51.2895542 C145.96128,51.3860872 145.844331,51.4343537 145.705348,51.4343537 C145.566365,51.4343537 145.449415,51.3860872 145.35111,51.2895542 C145.2545,51.1914123 145.205348,51.0739638 145.205348,50.932382 L145.205348,50.932382 Z M145.266365,50.932382 C145.266365,51.0562661 145.308737,51.1624524 145.395178,51.2477232 C145.479924,51.334603 145.585009,51.3764339 145.705348,51.3764339 C145.827381,51.3764339 145.930771,51.334603 146.015517,51.2477232 C146.101958,51.1624524 146.146026,51.0562661 146.146026,50.932382 C146.146026,50.8101069 146.101958,50.7055295 146.015517,50.6202586 C145.930771,50.5349878 145.827381,50.4931568 145.705348,50.4931568 C145.585009,50.4931568 145.479924,50.5349878 145.395178,50.6202586 C145.308737,50.7055295 145.266365,50.8101069 145.266365,50.932382 L145.266365,50.932382 Z M145.591788,50.9709953 L145.591788,51.20911 L145.522297,51.20911 L145.522297,50.6411741 L145.703653,50.6411741 C145.773144,50.6411741 145.825687,50.6556541 145.862975,50.6830051 C145.900263,50.711965 145.918907,50.7521871 145.918907,50.8068891 C145.918907,50.8374579 145.910432,50.8632 145.893483,50.8857244 C145.876534,50.9066399 145.85111,50.9243376 145.820602,50.9388176 C145.85111,50.9500798 145.874839,50.9677775 145.888398,50.9903019 C145.903653,51.0144351 145.910432,51.0417861 145.910432,51.0755727 L145.910432,51.1141859 C145.910432,51.1318836 145.910432,51.1479725 145.913822,51.1624524 C145.913822,51.1769324 145.917212,51.1898034 145.922297,51.1978478 L145.922297,51.20911 L145.85111,51.20911 C145.846026,51.1994567 145.842636,51.1865857 145.840941,51.1672791 C145.840941,51.1495813 145.840941,51.1318836 145.840941,51.112577 L145.840941,51.0771816 C145.840941,51.0385684 145.830771,51.0128262 145.813822,50.9967374 C145.795178,50.9790397 145.766365,50.9709953 145.723992,50.9709953 L145.591788,50.9709953 Z M145.591788,50.9098577 L145.718907,50.9098577 C145.756195,50.9098577 145.786704,50.9018133 145.812127,50.8825067 C145.837551,50.8648089 145.85111,50.8406757 145.85111,50.808498 C145.85111,50.7698848 145.839246,50.7425338 145.817212,50.7264449 C145.796873,50.7103561 145.75789,50.7023117 145.703653,50.7023117 L145.591788,50.7023117 L145.591788,50.9098577 L145.591788,50.9098577 Z" id="Fill-75"></path>
                </g>
            </g>
        </g>
    </g>
</svg>