<?xml version="1.0" encoding="UTF-8"?>
<svg width="16px" height="16px" viewBox="0 0 16 16" version="1.1" xmlns="http://www.w3.org/2000/svg" xmlns:xlink="http://www.w3.org/1999/xlink">
    <title>Icons / 16px</title>
    <g id="Page-1" stroke="none" stroke-width="1" fill="none" fill-rule="evenodd">
        <g id="Design-System-/-Assets" transform="translate(-91.000000, -86.000000)" fill="#0066CC">
            <g id="Icons-/-16px" transform="translate(91.000000, 86.000000)">
                <path d="M8,0 C12.418278,0 16,3.581722 16,8 C16,12.418278 12.418278,16 8,16 C3.581722,16 0,12.418278 0,8 C0,3.581722 3.581722,0 8,0 Z M8.9,4.5 L5.75,4.5 L5.60206188,4.50465297 C4.42838234,4.57871616 3.5,5.52770203 3.5,6.6875 C3.5,7.89562289 4.50735931,8.875 5.75,8.875 L5.75,8.875 L10.25,8.875 L10.3308881,8.88204871 C10.5408124,8.91909268 10.7,9.0977226 10.7,9.3125 C10.7,9.55412458 10.4985281,9.75 10.25,9.75 L10.25,9.75 L5.3,9.75 L5.30544002,9.88706916 C5.37392171,10.7464268 6.08085871,11.4317348 6.96566389,11.4952 L6.96566389,11.4952 L7.1,11.5 L10.25,11.5 L10.3979381,11.495347 C11.5716177,11.4212838 12.5,10.472298 12.5,9.3125 C12.5,8.10437711 11.4926407,7.125 10.25,7.125 L10.25,7.125 L5.75,7.125 L5.66911193,7.11795129 C5.45918764,7.08090732 5.3,6.9022774 5.3,6.6875 C5.3,6.44587542 5.50147186,6.25 5.75,6.25 L5.75,6.25 L10.7,6.25 L10.69456,6.11293084 C10.6260783,5.25357319 9.91914129,4.56826524 9.03433611,4.50480002 L9.03433611,4.50480002 L8.9,4.5 Z" id="Combined-Shape"></path>
            </g>
        </g>
    </g>
</svg>