<svg width="82" height="32" viewBox="0 0 82 32" fill="white" xmlns="http://www.w3.org/2000/svg">
<path fill-rule="evenodd" clip-rule="evenodd" d="M11.7358 0.736791C11.5338 0.290856 11.08 0 10.5758 0H5.47975L5.41391 0.00164891C4.82476 0.0312165 4.33028 0.45539 4.2297 1.02807L0.0184085 25.007L0.00877015 25.0721C-0.0696819 25.721 0.386236 26.3234 1.05435 26.435C1.12507 26.4468 1.1967 26.4527 1.26846 26.4527H5.751L5.81783 26.451C6.41578 26.4206 6.91465 25.9839 7.00502 25.4007L9.20118 11.2266L15.0189 25.6681L15.0454 25.729C15.2504 26.1679 15.7006 26.4527 16.1994 26.4527H17.3183L17.3879 26.4509C17.8729 26.425 18.3029 26.1302 18.4902 25.6888L24.6265 11.2266L26.9649 26.3192L31.8576 13.8947L29.598 1.02807L29.5852 0.965063C29.4559 0.40372 28.9437 0 28.3479 0H23.2539L23.1854 0.00179685C22.6853 0.0280566 22.2449 0.340066 22.067 0.80109L16.932 14.1034L11.7618 0.798549L11.7358 0.736791ZM64.4003 0.691075C64.187 0.268009 63.7456 0 63.2622 0H56.4337C56.0835 0 55.7995 0.276886 55.7995 0.618442C55.7995 0.737585 55.8348 0.854193 55.9012 0.954243L63.456 12.3493L49.8303 31.023C49.6272 31.3013 49.6939 31.6874 49.9792 31.8854C50.0866 31.96 50.2151 32 50.3469 32H57.0193C57.4276 32 57.8109 31.8083 58.0491 31.4849L68.1169 17.8223L73.2255 25.8671C73.4567 26.2312 73.8646 26.4527 74.3037 26.4527H81.0487C81.3989 26.4527 81.6828 26.1758 81.6828 25.8343C81.6828 25.7067 81.6423 25.5822 81.5669 25.4779L72.073 12.3493L80.395 0.977715C80.5984 0.699704 80.5322 0.313481 80.2472 0.11506C80.1397 0.0402253 80.0109 0 79.8788 0H73.1133C72.7013 0 72.315 0.195121 72.0774 0.52326L67.5013 6.84122L64.4003 0.691075ZM31.3486 26.4527C31.1932 26.4527 31.039 26.4249 30.8939 26.3705C30.2618 26.1338 29.9357 25.4573 30.1415 24.8364L30.1647 24.7724L39.6072 0.793444C39.7872 0.336249 40.2257 0.0277392 40.723 0.00177647L40.7911 0H46.8152C47.3174 0 47.7699 0.288632 47.973 0.732034L47.9992 0.793444L55.4036 19.5978L50.4795 26.3461L48.8844 21.8568H38.7219L37.3842 25.6209C37.215 26.0972 36.7675 26.4234 36.256 26.4509L36.1859 26.4527H31.3486ZM40.6092 16.6294L43.8032 7.82355L46.9971 16.6294H40.6092Z" />
</svg>
