<svg width="159" height="65" viewBox="0 0 159 65" fill="none" xmlns="http://www.w3.org/2000/svg">
<path fill-rule="evenodd" clip-rule="evenodd" d="M47.3196 30.1354C47.0963 29.6381 46.5945 29.3137 46.0371 29.3137H40.4026L40.3298 29.3156C39.6785 29.3485 39.1317 29.8216 39.0205 30.4602L34.3643 57.2015L34.3537 57.274C34.267 57.9977 34.771 58.6694 35.5097 58.7939C35.5879 58.8071 35.6671 58.8137 35.7465 58.8137H40.7026L40.7764 58.8118C41.4376 58.7779 41.9891 58.2909 42.089 57.6404L44.5172 41.8336L50.9496 57.9387L50.9788 58.0065C51.2055 58.4961 51.7032 58.8137 52.2547 58.8137H53.4918L53.5688 58.8116C54.105 58.7828 54.5804 58.454 54.7875 57.9618L61.5721 41.8336L64.1575 58.6647L69.5671 44.8091L67.0688 30.4602L67.0547 30.39C66.9116 29.7639 66.3454 29.3137 65.6867 29.3137H60.0545L59.9787 29.3157C59.4258 29.345 58.939 29.693 58.7422 30.2071L53.0647 45.0418L47.3483 30.2043L47.3196 30.1354ZM105.548 30.0844C105.312 29.6126 104.824 29.3137 104.289 29.3137H96.7394C96.3522 29.3137 96.0383 29.6225 96.0383 30.0034C96.0383 30.1363 96.0773 30.2663 96.1507 30.3779L104.504 43.0856L89.4384 63.9104C89.2139 64.2208 89.2877 64.6514 89.6031 64.8722C89.7219 64.9553 89.8639 65 90.0097 65H97.3869C97.8383 65 98.2621 64.7862 98.5256 64.4256L109.657 49.189L115.305 58.1606C115.561 58.5666 116.012 58.8137 116.497 58.8137H123.955C124.342 58.8137 124.656 58.5049 124.656 58.124C124.656 57.9817 124.611 57.8428 124.528 57.7265L114.031 43.0856L123.232 30.4041C123.457 30.094 123.384 29.6633 123.069 29.442C122.95 29.3586 122.807 29.3137 122.661 29.3137H115.181C114.726 29.3137 114.299 29.5313 114.036 29.8973L108.976 36.943L105.548 30.0844ZM69.0043 58.8137C68.8324 58.8137 68.662 58.7826 68.5016 58.722C67.8027 58.458 67.4421 57.7036 67.6696 57.0112L67.6953 56.9398L78.1353 30.1986C78.3344 29.6887 78.8192 29.3447 79.369 29.3157L79.4443 29.3137H86.1048C86.6601 29.3137 87.1604 29.6356 87.385 30.1301L87.4139 30.1986L95.6006 51.1691L90.1562 58.6948L88.3927 53.6884H77.1565L75.6775 57.886C75.4904 58.4172 74.9957 58.781 74.4302 58.8116L74.3526 58.8137H69.0043ZM79.2432 47.8588L82.7746 38.0385L86.306 47.8588H79.2432Z" fill="#0066CC"/>
<path fill-rule="evenodd" clip-rule="evenodd" d="M8.87488 0.703687C7.81355 0.270649 6.36795 0 5.03215 0C1.55539 0 0.0548961 1.85846 0.0548961 4.14995C0.0548961 6.83666 2.27669 7.61199 4.08415 8.24274C5.32345 8.67521 6.36795 9.03972 6.36795 9.90575C6.36795 10.844 5.7092 11.3853 4.2087 11.3853C2.8546 11.3853 1.61029 11.0244 0.402572 10.3929L0 13.0092C1.18942 13.6407 2.65331 14.0196 4.2453 14.0196C7.44758 14.0196 9.33235 12.3777 9.33235 9.70727C9.33235 6.97719 7.0921 6.21916 5.28064 5.60623C4.05121 5.19023 3.01929 4.84106 3.01929 3.98756C3.01929 3.26583 3.47676 2.68844 5.17854 2.68844C6.22156 2.68844 7.35608 2.90496 8.4906 3.26583L8.87488 0.703687ZM36.323 7.00078C36.323 2.18323 34.5846 0.0180433 30.2844 0.0180433C26.0025 0.0180433 24.2275 2.18323 24.2275 7.00078C24.2275 11.8183 26.0574 14.0196 30.2844 14.0196C34.5846 14.0196 36.323 11.9085 36.323 7.00078ZM73.7621 0.0180433C78.0623 0.0180433 79.8007 2.18323 79.8007 7.00078C79.8007 11.9085 78.0623 14.0196 73.7621 14.0196C69.5351 14.0196 67.7053 11.8183 67.7053 7.00078C67.7053 2.18323 69.4802 0.0180433 73.7621 0.0180433ZM84.7963 8.89532V0.234562H81.7221V8.93141C81.7221 12.3416 83.6434 14.0196 87.2666 14.0196C90.908 14.0196 92.7745 12.3416 92.7745 8.93141V0.234562H89.7186V8.89532C89.7186 10.5553 88.9867 11.259 87.2666 11.259C85.5465 11.259 84.7963 10.5373 84.7963 8.89532ZM14.2547 0.234562V5.48515H19.049V0.234562H22.1231V13.767H19.049V8.22772H14.2547V13.767H11.1622V0.234562H14.2547ZM48.7112 4.87168C48.7112 1.71411 47.1558 0.234562 43.3497 0.234562H38.4273V13.767H41.5198V9.36445H43.3497C47.1741 9.36445 48.7112 7.72251 48.7112 4.87168ZM57.7325 0.234562L60.0381 5.35885L60.6054 6.69405H60.6602L61.2092 5.3408L63.4234 0.234562H66.8086L62.1424 9.45467V13.767H58.9951V9.45467L54.2557 0.234562H57.7325ZM105.327 4.43864C105.327 1.55172 103.626 0.234562 100.222 0.234562H95.1899V13.767H98.2824V8.71489H100.222L102.619 13.767H106.224L103.022 8.11946C104.504 7.66838 105.327 6.33318 105.327 4.43864ZM144.841 0.234562L147.146 5.35885L147.714 6.69405H147.769L148.318 5.3408L150.532 0.234562H153.917L149.251 9.45467V13.767H146.103V9.45467L141.364 0.234562H144.841ZM142.623 13.767L137.829 0.234562H134.151L129.412 13.767H132.669L133.438 11.1327H138.415L139.183 13.767H142.623ZM114.861 0.234562L116.581 9.40054L116.819 10.844H116.874L117.13 9.41858L119.07 0.234562H122.418L124.358 9.32836L124.633 10.7538H124.687L124.925 9.31032L126.645 0.234562H129.701L126.462 13.767H122.766L120.955 4.70929L120.698 3.26583H120.643L120.387 4.72733L118.594 13.767H114.898L111.659 0.234562H114.861ZM73.7621 2.74257L73.8867 2.74358C75.8947 2.77681 76.5801 3.64113 76.5801 7.00078L76.5792 7.20643C76.5497 10.4467 75.806 11.2951 73.7804 11.2951L73.6544 11.294C71.747 11.2601 71.0063 10.4325 70.9479 7.40787L70.9441 7.00078C70.9441 3.57256 71.6761 2.74257 73.7621 2.74257ZM30.409 2.74358L30.2844 2.74257C28.24 2.74257 27.4962 3.5397 27.4673 6.79819L27.4664 7.00078C27.4664 10.359 28.1863 11.2587 30.1766 11.294L30.3027 11.2951C32.3282 11.2951 33.0719 10.4467 33.1015 7.20643L33.1024 7.00078C33.1024 3.64113 32.417 2.77681 30.409 2.74358ZM135.944 2.52606H135.999L136.365 3.95147L137.683 8.58859H134.188L135.56 3.95147L135.944 2.52606ZM43.3497 2.77866H41.5198V6.92861H43.3497C44.8685 6.92861 45.5272 6.5497 45.5272 4.85364C45.5272 3.22974 44.9416 2.77866 43.3497 2.77866ZM98.2824 2.76062H100.24C101.594 2.76062 102.107 3.19366 102.107 4.56494C102.107 6.02645 101.558 6.44144 100.185 6.44144H98.2824V2.76062ZM156.999 0.615944C158.105 0.615944 159 1.50784 159 2.68254C159 3.67986 158.105 4.56126 156.999 4.56126C155.894 4.56126 154.999 3.67986 154.999 2.68254C154.999 1.50784 155.894 0.615944 156.999 0.615944ZM155.399 2.5886C155.399 1.70951 156.127 1.01048 157.005 1.01048C157.883 1.01048 158.6 1.70951 158.6 2.5886C158.6 3.44651 157.883 4.16673 157.005 4.16673C156.127 4.16673 155.399 3.44651 155.399 2.5886ZM157.115 1.60227C157.728 1.60227 157.959 1.86465 157.959 2.24363C157.959 2.48657 157.839 2.70035 157.597 2.78781L158 3.57493H157.426L157.094 2.85583H156.742V3.57493H156.199V1.60227H157.115ZM156.742 2.03956H157.125C157.346 2.03956 157.436 2.12702 157.436 2.27278C157.436 2.40883 157.346 2.506 157.155 2.506H156.742V2.03956Z" fill="#262C2F"/>
</svg>
