<?xml version="1.0" encoding="UTF-8"?>
<svg width="20px" height="21px" viewBox="0 0 20 21" version="1.1" xmlns="http://www.w3.org/2000/svg" xmlns:xlink="http://www.w3.org/1999/xlink">
    <title>Icons / 16px</title>
    <g stroke="none" stroke-width="1" fill="none" fill-rule="evenodd">
        <g id="Earn-Returned" transform="translate(-45.000000, -621.000000)">
            <g id="Icons-/-16px" transform="translate(45.000000, 621.500000)">
                <circle id="Oval-Copy-7" fill="#FF5F00" cx="10" cy="10" r="10"></circle>
                <path d="M10,4.375 C9.30877251,4.375 8.75,4.79407938 8.75,5.3125 L8.75,10.9375 C8.75,11.4559206 9.30877251,11.875 10,11.875 C10.6912275,11.875 11.25,11.4549975 11.25,10.9375 L11.25,5.3125 C11.25,4.79407938 10.6912861,4.375 10,4.375 Z" id="Path-Copy-3" fill="#FFFFFF" fill-rule="nonzero"></path>
                <path d="M11.1499625,13.9006797 C11.0874537,13.7382247 10.9999062,13.6007852 10.88732,13.4883614 C10.8248112,13.4383887 10.7622437,13.375879 10.6872449,13.3384434 C10.6247361,13.2884708 10.5496787,13.2522069 10.4746212,13.225961 C10.3995637,13.1872366 10.3245649,13.1635098 10.2370174,13.1509727 C9.83804006,13.063506 9.39907116,13.2021757 9.11268002,13.4883614 C9.00009382,13.6007852 8.91260496,13.7382833 8.85003753,13.9006797 C8.78752873,14.0505977 8.75,14.2130528 8.75,14.3755079 C8.75,14.5379629 8.78752873,14.7003594 8.85003753,14.850336 C8.91254632,15.0002539 9.00009382,15.1376934 9.11268002,15.2626543 C9.23775625,15.3750781 9.37532251,15.4625449 9.52537881,15.5250547 C9.6754351,15.5875059 9.83804006,15.625 10.000645,15.625 C10.16325,15.625 10.3245649,15.5875059 10.4746212,15.5250547 C10.6246775,15.4626035 10.7610123,15.3751367 10.88732,15.2626543 C10.9999062,15.1376934 11.087395,15.0002539 11.1499625,14.850336 C11.2124713,14.700418 11.25,14.5379629 11.25,14.3755079 C11.25,14.2130528 11.2124713,14.0505977 11.1499625,13.9006797 Z" id="Path-Copy-4" fill="#FFFFFF" fill-rule="nonzero"></path>
            </g>
        </g>
    </g>
</svg>