<?xml version="1.0" encoding="UTF-8"?>
<svg width="44px" height="44px" viewBox="0 0 54 54" version="1.1" xmlns="http://www.w3.org/2000/svg" xmlns:xlink="http://www.w3.org/1999/xlink">
    <title>0FAA4AA9-5E70-4423-868C-C853211C0AB4</title>
    <defs>
        <path d="M3.51451187,3.51451187 C-1.17150396,8.2005277 -1.17150396,15.7994723 3.51451187,20.4854881 C8.2005277,25.171504 15.7994723,25.171504 20.4854881,20.4854881 C25.171504,15.7994723 25.171504,8.2005277 20.4854881,3.51451187 C15.7994723,-1.17150396 8.2005277,-1.17150396 3.51451187,3.51451187 Z" id="path-1"></path>
    </defs>
    <g id="Features-Onboarding" stroke="none" stroke-width="1" fill="none" fill-rule="evenodd">
        <g id="Earn" transform="translate(-316.000000, -118.000000)">
            <g id="UI/More-Info" transform="translate(331.000000, 133.000000)">
                <g id="Shape" stroke="#FF5F00" stroke-opacity="0.1">
                    <path stroke-width="8" d="M12,-4 C16.0949868,-4 20.1899237,-2.43790678 23.3139153,0.686084749 C26.4379068,3.81007627 28,7.90501319 28,12 C28,16.0949868 26.4379068,20.1899237 23.3139153,23.3139153 C20.1899237,26.4379068 16.0949868,28 12,28 C7.90501319,28 3.81007627,26.4379068 0.686084749,23.3139153 C-2.43790678,20.1899237 -4,16.0949868 -4,12 C-4,7.90501319 -2.43790678,3.81007627 0.686084749,0.686084749 C3.81007627,-2.43790678 7.90501319,-4 12,-4 Z" fill="#FF5F00" fill-rule="evenodd"></path>
                    <path stroke-width="15" d="M12,-7.5 C16.9907652,-7.5 21.9814368,-5.59614117 25.788789,-1.78878899 C29.5961412,2.0185632 31.5,7.00923483 31.5,12 C31.5,16.9907652 29.5961412,21.9814368 25.788789,25.788789 C21.9814368,29.5961412 16.9907652,31.5 12,31.5 C7.00923483,31.5 2.0185632,29.5961412 -1.78878899,25.788789 C-5.59614117,21.9814368 -7.5,16.9907652 -7.5,12 C-7.5,7.00923483 -5.59614117,2.0185632 -1.78878899,-1.78878899 C2.0185632,-5.59614117 7.00923483,-7.5 12,-7.5 Z"></path>
                </g>
            </g>
        </g>
    </g>
</svg>
