<?xml version="1.0" encoding="UTF-8"?>
<svg width="24px" height="24px" viewBox="0 0 24 24" version="1.1" xmlns="http://www.w3.org/2000/svg" xmlns:xlink="http://www.w3.org/1999/xlink">
    <title>6AC62C2C-60F2-478F-A407-9B14FC83C40A</title>
    <g id="Features-Onboarding" stroke="none" stroke-width="1" fill="none" fill-rule="evenodd">
        <g id="Earn-4" transform="translate(-331.000000, -133.000000)">
            <g id="Banners-/Title-+-copy" transform="translate(20.000000, 129.000000)">
                <g id="UI/More-Info" transform="translate(311.000000, 4.000000)">
                    <path d="M3.51451187,3.51451187 C-1.17150396,8.2005277 -1.17150396,15.7994723 3.51451187,20.4854881 C8.2005277,25.171504 15.7994723,25.171504 20.4854881,20.4854881 C25.171504,15.7994723 25.171504,8.2005277 20.4854881,3.51451187 C15.7994723,-1.17150396 8.2005277,-1.17150396 3.51451187,3.51451187 Z" id="Shape" fill-opacity="0.08" fill="#E2E3E3"></path>
                    <path d="M12.9430207,9.91256831 C13.2751227,9.91256831 13.4704768,10.0874317 13.4704768,10.4590164 C13.4704768,10.7650273 13.431406,11.0710383 13.3727998,11.3770492 C13.196981,12.5136612 13.0016269,13.6284153 12.8258082,14.7650273 C12.767202,15.136612 12.6890603,15.5081967 12.6499895,15.8797814 C12.6304541,16.0546448 12.6499895,16.2513661 12.6890603,16.4262295 C12.7476665,16.6666667 12.9039498,16.7978142 13.1188394,16.7759563 C13.2946581,16.7540984 13.4704768,16.6885246 13.6462955,16.6010929 C13.7830434,16.5355191 13.9002559,16.4262295 14.0370038,16.3825137 C14.2714288,16.295082 14.4472475,16.4480874 14.3886412,16.6885246 C14.3495704,16.8196721 14.2714288,16.9726776 14.1932871,17.0601093 C13.6853664,17.6502732 13.0602331,18 12.3178874,18 C11.96625,18 11.634148,18 11.2825106,17.9344262 C10.7159836,17.8469945 9.99317328,17.0601093 10.0908504,16.2295082 C10.168992,15.6612022 10.2471337,15.0928962 10.3252753,14.5245902 C10.4815586,13.5409836 10.6378419,12.5355191 10.7941252,11.5519126 C10.7941252,11.4863388 10.8136606,11.420765 10.8136606,11.3551913 C10.8136606,10.9398907 10.6964482,10.7868852 10.3252753,10.7431694 C10.168992,10.7213115 10.0127087,10.6994536 9.85642539,10.6557377 C9.68060667,10.5901639 9.58292961,10.4153005 9.60246502,10.2622951 C9.62200043,10.0874317 9.7196775,9.97814208 9.91503163,9.93442623 C10.0127087,9.91256831 10.1299212,9.91256831 10.2471337,9.91256831 L12.9430207,9.91256831 L12.9430207,9.91256831 Z M12.3764937,6 C13.1579102,6 13.7830434,6.72131148 13.7830434,7.59562842 C13.7830434,8.46994536 13.1383748,9.19125683 12.3764937,9.19125683 C11.5950772,9.19125683 10.9504085,8.46994536 10.9504085,7.57377049 C10.9504085,6.69945355 11.5950772,6 12.3764937,6 Z" id="Combined-Shape" fill="#909BA0" fill-rule="nonzero"></path>
                </g>
            </g>
        </g>
    </g>
</svg>
