<svg width="52" height="32" viewBox="0 0 52 32" fill="none" xmlns="http://www.w3.org/2000/svg">
<rect x="1.11328" y="1.09082" width="50" height="30" rx="4" fill="white" stroke="#E2E3E3"/>
<path d="M10.5143 11L6 20.9872H11.4043L12.0743 19.3948H13.6057L14.2756 20.9872H20.2242V19.7718L20.7543 20.9872H23.8314L24.3614 19.7461V20.9872H36.7329L38.2372 19.4361L39.6458 20.9872L46 21L41.4714 16.0215L46 11H39.7443L38.28 12.5224L36.9157 11H23.4572L22.3015 13.5778L21.1187 11H15.7257V12.174L15.1258 11C15.1258 11 10.5143 11 10.5143 11ZM11.56 12.4182H14.1943L17.1887 19.1905V12.4182H20.0744L22.3872 17.2739L24.5187 12.4182H27.3901V19.5846H25.6429L25.6287 13.969L23.0815 19.5846H21.5186L18.9571 13.969V19.5846H15.3629L14.6814 17.978H11L10.32 19.5832H8.39426L11.56 12.4182ZM28.9886 12.4182H36.0928L38.2657 14.7646L40.5086 12.4182H42.6815L39.38 16.02L42.6815 19.5804H40.4101L38.2372 17.2067L35.9828 19.5804H28.9886V12.4182ZM12.8415 13.6307L11.6286 16.4928H14.053L12.8415 13.6307ZM30.7429 13.902V15.2102H34.6186V16.6684H30.7429V18.0966H35.0901L37.11 15.993L35.1758 13.9008H30.7429V13.902Z" fill="#2478BC"/>
</svg>
