<svg width="14" height="12" viewBox="0 0 14 12" fill="none" xmlns="http://www.w3.org/2000/svg">
<path fill-rule="evenodd" clip-rule="evenodd" d="M9.20419 5.33244L6.71991 2.75641C6.34633 2.36902 6.34633 1.75545 6.71991 1.36807L6.83066 1.25323C7.22391 0.845459 7.87703 0.845459 8.27028 1.25323L12.8726 6.02554C13.0594 6.21923 13.0594 6.52602 12.8726 6.71971L8.27028 11.492C7.87703 11.8998 7.22391 11.8998 6.83066 11.492L6.71991 11.3772C6.34633 10.9898 6.34633 10.3762 6.71991 9.98885L9.21046 7.40631L1.20732 7.40631C0.655039 7.40631 0.207324 6.9586 0.207324 6.40631V6.33244C0.207324 5.78015 0.655039 5.33244 1.20732 5.33244L9.20419 5.33244Z" fill="#0066CC"/>
</svg>
