<svg width="40" height="40" viewBox="0 0 40 40" fill="none" xmlns="http://www.w3.org/2000/svg">
<circle cx="20" cy="20" r="20" fill="#0066CC"/>
<path d="M32 18V15.2283C32 14.0326 30.9953 13 29.7116 13H10.2884C9.06047 13 8 13.9783 8 15.2283V18H32Z" fill="white"/>
<path fill-rule="evenodd" clip-rule="evenodd" d="M8 27V20H32V27C32 28.0374 30.9395 29 30 29H10C9.00465 29 8 27.984 8 27ZM28 26C28.5523 26 29 25.5523 29 25C29 24.4477 28.5523 24 28 24H23C22.4477 24 22 24.4477 22 25C22 25.5523 22.4477 26 23 26H28Z" fill="white"/>
</svg>
