<svg width="52" height="32" viewBox="0 0 52 32" fill="none" xmlns="http://www.w3.org/2000/svg">
<rect x="1.11328" y="1.09082" width="50" height="30" rx="4" stroke="#E2E3E3"/>
<path d="M27.7195 12.8418C29.6631 12.8418 31.2387 14.2538 31.2387 15.998V16C31.2387 17.7442 29.6631 19.1582 27.7195 19.1582C25.7758 19.1582 24.2002 17.7442 24.2002 16V15.998C24.2002 14.2538 25.7758 12.8418 27.7195 12.8418Z" fill="#F47216"/>
<path d="M22.1927 12.8823C22.7478 12.8823 23.2133 12.9892 23.7801 13.247V14.6094C23.2434 14.1386 22.7778 13.9415 22.162 13.9415C20.9518 13.9415 20.0002 14.8406 20.0002 15.9805C20.0002 17.1825 20.9225 18.0281 22.222 18.0281C22.8071 18.0281 23.264 17.8412 23.7801 17.378V18.7411C23.1932 18.9891 22.7177 19.0869 22.162 19.0869C20.1972 19.0869 18.6704 17.7338 18.6704 15.9889C18.6703 14.2627 20.2378 12.8823 22.1927 12.8823Z" fill="black"/>
<path d="M16.0925 12.9199C16.8178 12.9199 17.4814 13.1427 18.0362 13.5782L17.3611 14.3715C17.0249 14.0335 16.707 13.8909 16.3206 13.8909C15.7643 13.8909 15.3593 14.175 15.3593 14.5488C15.3593 14.8694 15.5866 15.0391 16.361 15.2963C17.8287 15.7779 18.2637 16.205 18.2637 17.1481C18.2637 18.2974 17.3229 19.0975 15.9821 19.0975C15.0002 19.0975 14.2864 18.7505 13.6919 17.9675L14.5254 17.247C14.8225 17.7626 15.3183 18.0388 15.9338 18.0388C16.5095 18.0388 16.9356 17.6825 16.9356 17.2015C16.9356 16.9521 16.8065 16.7384 16.5488 16.5872C16.419 16.5157 16.1619 16.409 15.6568 16.2491C14.4449 15.8576 14.0291 15.4391 14.0291 14.6212C14.0291 13.6496 14.922 12.9199 16.0925 12.9199Z" fill="black"/>
<path d="M30.8374 13.0234H32.2468L34.0111 17.011L35.7982 13.0234H37.1969L34.339 19.1124H33.6446L30.8374 13.0234Z" fill="black"/>
<path d="M11.915 13.0327H13.2054V18.9694H11.915V13.0327Z" fill="black"/>
<path d="M37.7803 13.0327H41.4397V14.0386H39.0698V15.3564H41.3524V16.3618H39.0698V17.9643H41.4397V18.9694H37.7803V13.0327Z" fill="black"/>
<path d="M45.042 16.4684C46.0139 16.2909 46.5487 15.6944 46.5487 14.7855C46.5487 13.674 45.6958 13.0327 44.2076 13.0327H42.2944V18.9694H43.5833V16.5845H43.7516L45.5376 18.9694H47.1245L45.042 16.4684ZM43.9603 15.7656H43.5833V13.9677H43.9807C44.7842 13.9677 45.221 14.2701 45.221 14.8478C45.2211 15.4446 44.7843 15.7656 43.9603 15.7656Z" fill="black"/>
<path d="M7.76995 13.0327H5.87598V18.9694H7.76009C8.76183 18.9694 9.48545 18.7573 10.1204 18.2841C10.8752 17.7236 11.3214 16.8789 11.3214 16.0052C11.3214 14.2532 9.86263 13.0327 7.76995 13.0327ZM9.27746 17.4925C8.87201 17.8209 8.34539 17.9643 7.5117 17.9643H7.1653V14.0386H7.51163C8.34532 14.0386 8.85116 14.1727 9.27739 14.5188C9.72367 14.8754 9.9921 15.4279 9.9921 15.9967C9.99216 16.5664 9.72367 17.1359 9.27746 17.4925Z" fill="black"/>
</svg>
