<svg width="100%" height="57" viewBox="0 0 330 57" fill="none" xmlns="http://www.w3.org/2000/svg">
  <path d="M23.9023 4.73828H151.714" stroke="#909BA0" stroke-dasharray="4 6" />
  <path d="M153.164 4.73828L293.108 4.73828" stroke="#909BA0" stroke-linecap="round" stroke-dasharray="4 6" />
  <path
    d="M7.33203 28.7383H9.52637L6.09473 18.874H3.66797L0.243164 28.7383H2.3623L3.11426 26.3457H6.58008L7.33203 28.7383ZM4.82324 20.7607H4.87109L6.13574 24.8008H3.55859L4.82324 20.7607ZM16.752 24.1377C16.6631 22.4766 15.4053 21.2529 13.4229 21.2529C11.2285 21.2529 9.82715 22.7158 9.82715 25.0674C9.82715 27.46 11.2285 28.8955 13.4365 28.8955C15.3643 28.8955 16.6562 27.7812 16.7588 26.0518H14.8994C14.7764 26.8516 14.2568 27.3301 13.457 27.3301C12.4658 27.3301 11.8506 26.5098 11.8506 25.0674C11.8506 23.6523 12.4658 22.8184 13.4502 22.8184C14.2705 22.8184 14.7832 23.3652 14.8994 24.1377H16.752ZM18.2559 19.7217V21.4102H17.2236V22.9141H18.2559V26.7627C18.2559 28.1914 18.9258 28.7656 20.6484 28.7656C21.0518 28.7656 21.3936 28.7314 21.5986 28.6836V27.2139C21.4756 27.2344 21.291 27.248 21.1133 27.248C20.5254 27.248 20.252 26.9814 20.252 26.4209V22.9141H21.6055V21.4102H20.252V19.7217H18.2559ZM22.7334 28.7383H24.7295V21.4102H22.7334V28.7383ZM23.7246 20.4189C24.3057 20.4189 24.7637 19.9541 24.7637 19.3936C24.7637 18.8262 24.3057 18.3682 23.7246 18.3682C23.1436 18.3682 22.6855 18.8262 22.6855 19.3936C22.6855 19.9541 23.1436 20.4189 23.7246 20.4189ZM32.7617 21.4102H30.6768L29.1592 26.9746H29.1182L27.5938 21.4102H25.4541L27.9902 28.7383H30.2461L32.7617 21.4102ZM36.1113 27.4121C35.4346 27.4121 34.9834 27.0703 34.9834 26.5234C34.9834 26.0039 35.4072 25.6689 36.1523 25.6143L37.6973 25.5186V26.0518C37.6973 26.8447 36.9795 27.4121 36.1113 27.4121ZM35.4551 28.8545C36.3711 28.8545 37.2803 28.3965 37.6904 27.6172H37.7314V28.7383H39.6592V23.7002C39.6592 22.2236 38.4355 21.2529 36.5557 21.2529C34.6143 21.2529 33.4043 22.2305 33.3291 23.6523H35.1543C35.25 23.1123 35.7217 22.7432 36.4668 22.7432C37.2188 22.7432 37.6973 23.1396 37.6973 23.8232V24.3086L35.8516 24.418C34.0264 24.5273 33.001 25.2998 33.001 26.6328C33.001 27.9521 34.0605 28.8545 35.4551 28.8545ZM41.4844 19.7217V21.4102H40.4521V22.9141H41.4844V26.7627C41.4844 28.1914 42.1543 28.7656 43.877 28.7656C44.2803 28.7656 44.6221 28.7314 44.8271 28.6836V27.2139C44.7041 27.2344 44.5195 27.248 44.3418 27.248C43.7539 27.248 43.4805 26.9814 43.4805 26.4209V22.9141H44.834V21.4102H43.4805V19.7217H41.4844ZM49.1064 22.7295C49.9951 22.7295 50.6035 23.3721 50.6445 24.3086H47.5342C47.6025 23.3926 48.2314 22.7295 49.1064 22.7295ZM50.6719 26.4961C50.4873 27.0566 49.9268 27.4189 49.1953 27.4189C48.1768 27.4189 47.5137 26.7012 47.5137 25.6553V25.5322H52.5654V24.9238C52.5654 22.6953 51.2188 21.2529 49.0859 21.2529C46.9189 21.2529 45.5518 22.7705 45.5518 25.1084C45.5518 27.4531 46.9053 28.8955 49.1611 28.8955C50.9727 28.8955 52.2852 27.9316 52.5039 26.4961H50.6719ZM15.1729 49.8955C17.3877 49.8955 18.8027 48.4805 18.8027 46.0674C18.8027 43.6885 17.3672 42.2529 15.1729 42.2529C12.9785 42.2529 11.543 43.6953 11.543 46.0674C11.543 48.4736 12.958 49.8955 15.1729 49.8955ZM15.1729 48.3711C14.1885 48.3711 13.5664 47.5439 13.5664 46.0742C13.5664 44.6182 14.2021 43.7773 15.1729 43.7773C16.1436 43.7773 16.7725 44.6182 16.7725 46.0742C16.7725 47.5439 16.1504 48.3711 15.1729 48.3711ZM20.3682 49.7383H22.3643V43.9141H23.7725V42.4443H22.3164V41.959C22.3164 41.4395 22.6035 41.1523 23.2598 41.1523C23.458 41.1523 23.6562 41.166 23.7998 41.1934V39.874C23.5674 39.8262 23.1504 39.7852 22.7812 39.7852C21.0449 39.7852 20.3682 40.4551 20.3682 41.8906V42.4443H19.3701V43.9141H20.3682V49.7383ZM25.3584 49.7383H27.3545V43.9141H28.7627V42.4443H27.3066V41.959C27.3066 41.4395 27.5938 41.1523 28.25 41.1523C28.4482 41.1523 28.6465 41.166 28.79 41.1934V39.874C28.5576 39.8262 28.1406 39.7852 27.7715 39.7852C26.0352 39.7852 25.3584 40.4551 25.3584 41.8906V42.4443H24.3604V43.9141H25.3584V49.7383ZM32.8984 43.7295C33.7871 43.7295 34.3955 44.3721 34.4365 45.3086H31.3262C31.3945 44.3926 32.0234 43.7295 32.8984 43.7295ZM34.4639 47.4961C34.2793 48.0566 33.7188 48.4189 32.9873 48.4189C31.9688 48.4189 31.3057 47.7012 31.3057 46.6553V46.5322H36.3574V45.9238C36.3574 43.6953 35.0107 42.2529 32.8779 42.2529C30.7109 42.2529 29.3438 43.7705 29.3438 46.1084C29.3438 48.4531 30.6973 49.8955 32.9531 49.8955C34.7646 49.8955 36.0771 48.9316 36.2959 47.4961H34.4639ZM37.3896 49.7383H39.3857V45.6436C39.3857 44.6113 39.96 44.0098 40.9443 44.0098C41.2314 44.0098 41.5049 44.0576 41.6689 44.126V42.3691C41.5322 42.3281 41.334 42.2939 41.1016 42.2939C40.2402 42.2939 39.6182 42.7998 39.3584 43.7295H39.3174V42.4102H37.3896V49.7383Z"
    fill="#909BA0" />
  <circle cx="22.4199" cy="4.73828" r="4" fill="#909BA0" />
  <path
    d="M109.696 29.7383V19.874H107.303L104.501 26.9561H104.446L101.643 19.874H99.2505V29.7383H101.089V23.0801H101.144L103.824 29.7383H105.123L107.802 23.0801H107.857V29.7383H109.696ZM113.832 28.4121C113.155 28.4121 112.704 28.0703 112.704 27.5234C112.704 27.0039 113.128 26.6689 113.873 26.6143L115.418 26.5186V27.0518C115.418 27.8447 114.7 28.4121 113.832 28.4121ZM113.175 29.8545C114.091 29.8545 115.001 29.3965 115.411 28.6172H115.452V29.7383H117.379V24.7002C117.379 23.2236 116.156 22.2529 114.276 22.2529C112.335 22.2529 111.125 23.2305 111.049 24.6523H112.875C112.97 24.1123 113.442 23.7432 114.187 23.7432C114.939 23.7432 115.418 24.1396 115.418 24.8232V25.3086L113.572 25.418C111.747 25.5273 110.721 26.2998 110.721 27.6328C110.721 28.9521 111.781 29.8545 113.175 29.8545ZM120.743 25.3496H120.715V19.874H118.719V29.7383H120.715V27.3184L121.235 26.7578L123.334 29.7383H125.63L122.698 25.5547L125.494 22.4102H123.231L120.743 25.3496ZM129.151 23.7295C130.04 23.7295 130.648 24.3721 130.689 25.3086H127.579C127.647 24.3926 128.276 23.7295 129.151 23.7295ZM130.716 27.4961C130.532 28.0566 129.971 28.4189 129.24 28.4189C128.221 28.4189 127.558 27.7012 127.558 26.6553V26.5322H132.61V25.9238C132.61 23.6953 131.263 22.2529 129.13 22.2529C126.963 22.2529 125.596 23.7705 125.596 26.1084C125.596 28.4531 126.95 29.8955 129.206 29.8955C131.017 29.8955 132.33 28.9316 132.548 27.4961H130.716ZM139.248 28.4121C138.571 28.4121 138.12 28.0703 138.12 27.5234C138.12 27.0039 138.544 26.6689 139.289 26.6143L140.834 26.5186V27.0518C140.834 27.8447 140.116 28.4121 139.248 28.4121ZM138.591 29.8545C139.507 29.8545 140.417 29.3965 140.827 28.6172H140.868V29.7383H142.795V24.7002C142.795 23.2236 141.572 22.2529 139.692 22.2529C137.751 22.2529 136.541 23.2305 136.465 24.6523H138.291C138.386 24.1123 138.858 23.7432 139.603 23.7432C140.355 23.7432 140.834 24.1396 140.834 24.8232V25.3086L138.988 25.418C137.163 25.5273 136.137 26.2998 136.137 27.6328C136.137 28.9521 137.197 29.8545 138.591 29.8545ZM151.142 22.2939C150.083 22.2939 149.269 22.8271 148.873 23.6885H148.832V22.4102H146.863V32.1309H148.859V28.5078H148.9C149.29 29.335 150.11 29.8545 151.176 29.8545C153.008 29.8545 154.143 28.4326 154.143 26.0742C154.143 23.709 153.002 22.2939 151.142 22.2939ZM150.472 28.248C149.495 28.248 148.852 27.4004 148.852 26.0742C148.852 24.7617 149.495 23.8936 150.472 23.8936C151.47 23.8936 152.099 24.748 152.099 26.0742C152.099 27.4072 151.47 28.248 150.472 28.248ZM161.943 22.4102H159.947V26.6074C159.947 27.5781 159.393 28.2139 158.504 28.2139C157.623 28.2139 157.137 27.6943 157.137 26.7168V22.4102H155.141V27.1338C155.141 28.8428 156.194 29.875 157.78 29.875C158.887 29.875 159.612 29.3418 159.974 28.4189H160.015V29.7383H161.943V22.4102ZM163.242 29.7383H165.238V25.6436C165.238 24.6113 165.812 24.0098 166.796 24.0098C167.084 24.0098 167.357 24.0576 167.521 24.126V22.3691C167.384 22.3281 167.186 22.2939 166.954 22.2939C166.092 22.2939 165.47 22.7998 165.211 23.7295H165.169V22.4102H163.242V29.7383ZM174.753 25.1377C174.665 23.4766 173.407 22.2529 171.424 22.2529C169.23 22.2529 167.829 23.7158 167.829 26.0674C167.829 28.46 169.23 29.8955 171.438 29.8955C173.366 29.8955 174.658 28.7812 174.76 27.0518H172.901C172.778 27.8516 172.258 28.3301 171.459 28.3301C170.467 28.3301 169.852 27.5098 169.852 26.0674C169.852 24.6523 170.467 23.8184 171.452 23.8184C172.272 23.8184 172.785 24.3652 172.901 25.1377H174.753ZM175.772 29.7383H177.768V25.5547C177.768 24.5908 178.322 23.9277 179.265 23.9277C180.174 23.9277 180.639 24.502 180.639 25.4453V29.7383H182.635V25.0215C182.635 23.3262 181.706 22.2734 180.079 22.2734C178.964 22.2734 178.165 22.793 177.775 23.7158H177.734V19.874H175.772V29.7383ZM186.744 28.4121C186.067 28.4121 185.616 28.0703 185.616 27.5234C185.616 27.0039 186.04 26.6689 186.785 26.6143L188.33 26.5186V27.0518C188.33 27.8447 187.612 28.4121 186.744 28.4121ZM186.087 29.8545C187.003 29.8545 187.913 29.3965 188.323 28.6172H188.364V29.7383H190.292V24.7002C190.292 23.2236 189.068 22.2529 187.188 22.2529C185.247 22.2529 184.037 23.2305 183.961 24.6523H185.787C185.882 24.1123 186.354 23.7432 187.099 23.7432C187.851 23.7432 188.33 24.1396 188.33 24.8232V25.3086L186.484 25.418C184.659 25.5273 183.633 26.2998 183.633 27.6328C183.633 28.9521 184.693 29.8545 186.087 29.8545ZM191.461 24.5635C191.461 25.6641 192.178 26.375 193.593 26.6758L194.844 26.9355C195.562 27.0996 195.815 27.3184 195.815 27.708C195.815 28.1865 195.35 28.4941 194.598 28.4941C193.805 28.4941 193.347 28.1523 193.224 27.5098H191.276C191.406 28.9521 192.575 29.8955 194.598 29.8955C196.485 29.8955 197.804 28.9453 197.804 27.5029C197.804 26.4297 197.175 25.8281 195.644 25.5068L194.393 25.2402C193.655 25.083 193.381 24.8301 193.381 24.4541C193.381 23.9688 193.839 23.6543 194.53 23.6543C195.268 23.6543 195.712 24.0576 195.774 24.6523H197.613C197.572 23.2168 196.41 22.2529 194.53 22.2529C192.664 22.2529 191.461 23.1689 191.461 24.5635ZM202.077 23.7295C202.965 23.7295 203.574 24.3721 203.615 25.3086H200.504C200.573 24.3926 201.202 23.7295 202.077 23.7295ZM203.642 27.4961C203.458 28.0566 202.897 28.4189 202.166 28.4189C201.147 28.4189 200.484 27.7012 200.484 26.6553V26.5322H205.536V25.9238C205.536 23.6953 204.189 22.2529 202.056 22.2529C199.889 22.2529 198.522 23.7705 198.522 26.1084C198.522 28.4531 199.876 29.8955 202.131 29.8955C203.943 29.8955 205.255 28.9316 205.474 27.4961H203.642ZM118.877 43.4102H116.908L115.794 48.8447H115.753L114.447 43.4102H112.533L111.234 48.8447H111.193L110.086 43.4102H108.076L110.024 50.7383H112.123L113.442 45.5566H113.483L114.809 50.7383H116.935L118.877 43.4102ZM119.69 50.7383H121.686V43.4102H119.69V50.7383ZM120.681 42.4189C121.262 42.4189 121.72 41.9541 121.72 41.3936C121.72 40.8262 121.262 40.3682 120.681 40.3682C120.1 40.3682 119.642 40.8262 119.642 41.3936C119.642 41.9541 120.1 42.4189 120.681 42.4189ZM123.552 41.7217V43.4102H122.52V44.9141H123.552V48.7627C123.552 50.1914 124.222 50.7656 125.945 50.7656C126.348 50.7656 126.69 50.7314 126.895 50.6836V49.2139C126.772 49.2344 126.587 49.248 126.41 49.248C125.822 49.248 125.548 48.9814 125.548 48.4209V44.9141H126.902V43.4102H125.548V41.7217H123.552ZM128.044 50.7383H130.04V46.5547C130.04 45.5908 130.593 44.9277 131.537 44.9277C132.446 44.9277 132.911 45.502 132.911 46.4453V50.7383H134.907V46.0215C134.907 44.3262 133.977 43.2734 132.35 43.2734C131.236 43.2734 130.436 43.793 130.046 44.7158H130.005V40.874H128.044V50.7383ZM139.008 50.7383H141.004V40.874H139.008V50.7383ZM142.385 50.7383H144.381V43.4102H142.385V50.7383ZM143.377 42.4189C143.958 42.4189 144.416 41.9541 144.416 41.3936C144.416 40.8262 143.958 40.3682 143.377 40.3682C142.795 40.3682 142.337 40.8262 142.337 41.3936C142.337 41.9541 142.795 42.4189 143.377 42.4189ZM145.714 50.7383H147.711V46.5342C147.711 45.584 148.278 44.9277 149.173 44.9277C150.069 44.9277 150.52 45.4746 150.52 46.4316V50.7383H152.516V46.0146C152.516 44.2988 151.6 43.2734 149.973 43.2734C148.845 43.2734 148.073 43.8066 147.683 44.7158H147.642V43.4102H145.714V50.7383ZM155.852 46.3496H155.825V40.874H153.829V50.7383H155.825V48.3184L156.344 47.7578L158.443 50.7383H160.74L157.807 46.5547L160.603 43.4102H158.34L155.852 46.3496ZM164.26 44.7295C165.149 44.7295 165.757 45.3721 165.798 46.3086H162.688C162.756 45.3926 163.385 44.7295 164.26 44.7295ZM165.826 48.4961C165.641 49.0566 165.081 49.4189 164.349 49.4189C163.331 49.4189 162.668 48.7012 162.668 47.6553V47.5322H167.719V46.9238C167.719 44.6953 166.373 43.2529 164.24 43.2529C162.073 43.2529 160.706 44.7705 160.706 47.1084C160.706 49.4531 162.059 50.8955 164.315 50.8955C166.127 50.8955 167.439 49.9316 167.658 48.4961H165.826ZM171.472 50.8545C172.552 50.8545 173.4 50.2871 173.755 49.4805H173.79V50.7383H175.758V40.874H173.762V44.668H173.721C173.366 43.8545 172.545 43.2939 171.486 43.2939C169.647 43.2939 168.485 44.7363 168.485 47.0605C168.485 49.4053 169.64 50.8545 171.472 50.8545ZM172.149 44.8936C173.14 44.8936 173.776 45.7412 173.776 47.0742C173.776 48.4141 173.14 49.248 172.149 49.248C171.144 49.248 170.529 48.4209 170.529 47.0742C170.529 45.7344 171.144 44.8936 172.149 44.8936ZM184.399 50.9092C186.819 50.9092 188.507 49.5146 188.74 47.3135H186.73C186.511 48.4824 185.629 49.2002 184.406 49.2002C182.827 49.2002 181.836 47.9014 181.836 45.7959C181.836 43.7178 182.84 42.4121 184.399 42.4121C185.602 42.4121 186.532 43.2051 186.723 44.415H188.733C188.576 42.207 186.771 40.7031 184.399 40.7031C181.542 40.7031 179.73 42.624 179.73 45.8027C179.73 48.9883 181.528 50.9092 184.399 50.9092ZM194.379 50.9092C196.799 50.9092 198.488 49.5146 198.72 47.3135H196.711C196.492 48.4824 195.61 49.2002 194.386 49.2002C192.807 49.2002 191.816 47.9014 191.816 45.7959C191.816 43.7178 192.821 42.4121 194.379 42.4121C195.583 42.4121 196.512 43.2051 196.704 44.415H198.713C198.556 42.207 196.752 40.7031 194.379 40.7031C191.522 40.7031 189.711 42.624 189.711 45.8027C189.711 48.9883 191.508 50.9092 194.379 50.9092Z"
    fill="#909BA0" />
  <circle cx="151.354" cy="4.73828" r="4" fill="#909BA0" />
  <path
    d="M288.306 25.5957V24.4814H284.149V25.9854H286.296L286.289 26.1426C286.248 27.3662 285.312 28.1934 283.965 28.1934C282.324 28.1934 281.285 26.8877 281.285 24.748C281.285 22.6494 282.263 21.4121 283.89 21.4121C285.004 21.4121 285.845 22.0273 286.146 23.0596H288.217C287.923 21.0635 286.187 19.7031 283.883 19.7031C280.984 19.7031 279.18 21.6172 279.18 24.7754C279.18 27.9814 280.984 29.9092 283.931 29.9092C286.679 29.9092 288.306 28.2822 288.306 25.5957ZM292.79 23.7295C293.679 23.7295 294.287 24.3721 294.328 25.3086H291.218C291.286 24.3926 291.915 23.7295 292.79 23.7295ZM294.355 27.4961C294.171 28.0566 293.61 28.4189 292.879 28.4189C291.86 28.4189 291.197 27.7012 291.197 26.6553V26.5322H296.249V25.9238C296.249 23.6953 294.902 22.2529 292.77 22.2529C290.603 22.2529 289.235 23.7705 289.235 26.1084C289.235 28.4531 290.589 29.8955 292.845 29.8955C294.656 29.8955 295.969 28.9316 296.188 27.4961H294.355ZM297.814 20.7217V22.4102H296.782V23.9141H297.814V27.7627C297.814 29.1914 298.484 29.7656 300.207 29.7656C300.61 29.7656 300.952 29.7314 301.157 29.6836V28.2139C301.034 28.2344 300.85 28.248 300.672 28.248C300.084 28.248 299.811 27.9814 299.811 27.4209V23.9141H301.164V22.4102H299.811V20.7217H297.814ZM254.905 47.9219C254.967 49.7812 256.532 50.9092 258.884 50.9092C261.352 50.9092 262.862 49.6855 262.862 47.7578C262.862 46.2607 261.953 45.4199 259.868 45.0029L258.822 44.791C257.66 44.5586 257.182 44.1826 257.182 43.5742C257.182 42.8496 257.865 42.3711 258.884 42.3711C259.923 42.3711 260.654 42.877 260.723 43.7178H262.671C262.637 41.9062 261.188 40.7031 258.884 40.7031C256.689 40.7031 255.117 41.8994 255.117 43.7041C255.117 45.1738 256.081 46.1172 258.05 46.5068L259.089 46.7119C260.326 46.9648 260.791 47.334 260.791 47.9834C260.791 48.708 260.039 49.2412 258.938 49.2412C257.817 49.2412 256.983 48.749 256.854 47.9219H254.905ZM268.721 50.7383V47.0537L272.159 40.874H269.944L267.729 45.085H267.682L265.474 40.874H263.225L266.656 47.0537V50.7383H268.721ZM279.07 43.998H279.132L281.005 50.7383H282.953L285.571 40.874H283.432L281.873 48.0176H281.818L279.973 40.874H278.229L276.384 48.0176H276.329L274.777 40.874H272.638L275.249 50.7383H277.197L279.07 43.998ZM293.569 43.2939C292.51 43.2939 291.696 43.8271 291.3 44.6885H291.259V43.4102H289.29V53.1309H291.286V49.5078H291.327C291.717 50.335 292.537 50.8545 293.604 50.8545C295.436 50.8545 296.57 49.4326 296.57 47.0742C296.57 44.709 295.429 43.2939 293.569 43.2939ZM292.899 49.248C291.922 49.248 291.279 48.4004 291.279 47.0742C291.279 45.7617 291.922 44.8936 292.899 44.8936C293.897 44.8936 294.526 45.748 294.526 47.0742C294.526 48.4072 293.897 49.248 292.899 49.248ZM300.966 50.8955C303.181 50.8955 304.596 49.4805 304.596 47.0674C304.596 44.6885 303.16 43.2529 300.966 43.2529C298.771 43.2529 297.336 44.6953 297.336 47.0674C297.336 49.4736 298.751 50.8955 300.966 50.8955ZM300.966 49.3711C299.981 49.3711 299.359 48.5439 299.359 47.0742C299.359 45.6182 299.995 44.7773 300.966 44.7773C301.937 44.7773 302.565 45.6182 302.565 47.0742C302.565 48.5439 301.943 49.3711 300.966 49.3711ZM305.662 50.7383H307.658V43.4102H305.662V50.7383ZM306.653 42.4189C307.234 42.4189 307.692 41.9541 307.692 41.3936C307.692 40.8262 307.234 40.3682 306.653 40.3682C306.072 40.3682 305.614 40.8262 305.614 41.3936C305.614 41.9541 306.072 42.4189 306.653 42.4189ZM308.991 50.7383H310.987V46.5342C310.987 45.584 311.555 44.9277 312.45 44.9277C313.346 44.9277 313.797 45.4746 313.797 46.4316V50.7383H315.793V46.0146C315.793 44.2988 314.877 43.2734 313.25 43.2734C312.122 43.2734 311.35 43.8066 310.96 44.7158H310.919V43.4102H308.991V50.7383ZM317.591 41.7217V43.4102H316.559V44.9141H317.591V48.7627C317.591 50.1914 318.261 50.7656 319.983 50.7656C320.387 50.7656 320.729 50.7314 320.934 50.6836V49.2139C320.811 49.2344 320.626 49.248 320.448 49.248C319.86 49.248 319.587 48.9814 319.587 48.4209V44.9141H320.94V43.4102H319.587V41.7217H317.591ZM321.911 45.5635C321.911 46.6641 322.629 47.375 324.044 47.6758L325.295 47.9355C326.013 48.0996 326.266 48.3184 326.266 48.708C326.266 49.1865 325.801 49.4941 325.049 49.4941C324.256 49.4941 323.798 49.1523 323.675 48.5098H321.727C321.856 49.9521 323.025 50.8955 325.049 50.8955C326.936 50.8955 328.255 49.9453 328.255 48.5029C328.255 47.4297 327.626 46.8281 326.095 46.5068L324.844 46.2402C324.105 46.083 323.832 45.8301 323.832 45.4541C323.832 44.9688 324.29 44.6543 324.98 44.6543C325.719 44.6543 326.163 45.0576 326.225 45.6523H328.063C328.022 44.2168 326.86 43.2529 324.98 43.2529C323.114 43.2529 321.911 44.1689 321.911 45.5635Z"
    fill="#909BA0" />
  <circle cx="293.502" cy="4.73828" r="4" fill="#909BA0" />
</svg>