<svg width="100%" height="56" viewBox="0 0 330 56" fill="none" xmlns="http://www.w3.org/2000/svg">
  <path d="M23.9023 4H151.714" stroke="#0066CC" />
  <path d="M153.164 4L293.108 4" stroke="#909BA0" stroke-linecap="round" stroke-dasharray="4 6" />
  <path
    d="M7.33203 28H9.52637L6.09473 18.1357H3.66797L0.243164 28H2.3623L3.11426 25.6074H6.58008L7.33203 28ZM4.82324 20.0225H4.87109L6.13574 24.0625H3.55859L4.82324 20.0225ZM16.752 23.3994C16.6631 21.7383 15.4053 20.5146 13.4229 20.5146C11.2285 20.5146 9.82715 21.9775 9.82715 24.3291C9.82715 26.7217 11.2285 28.1572 13.4365 28.1572C15.3643 28.1572 16.6562 27.043 16.7588 25.3135H14.8994C14.7764 26.1133 14.2568 26.5918 13.457 26.5918C12.4658 26.5918 11.8506 25.7715 11.8506 24.3291C11.8506 22.9141 12.4658 22.0801 13.4502 22.0801C14.2705 22.0801 14.7832 22.627 14.8994 23.3994H16.752ZM18.2559 18.9834V20.6719H17.2236V22.1758H18.2559V26.0244C18.2559 27.4531 18.9258 28.0273 20.6484 28.0273C21.0518 28.0273 21.3936 27.9932 21.5986 27.9453V26.4756C21.4756 26.4961 21.291 26.5098 21.1133 26.5098C20.5254 26.5098 20.252 26.2432 20.252 25.6826V22.1758H21.6055V20.6719H20.252V18.9834H18.2559ZM22.7334 28H24.7295V20.6719H22.7334V28ZM23.7246 19.6807C24.3057 19.6807 24.7637 19.2158 24.7637 18.6553C24.7637 18.0879 24.3057 17.6299 23.7246 17.6299C23.1436 17.6299 22.6855 18.0879 22.6855 18.6553C22.6855 19.2158 23.1436 19.6807 23.7246 19.6807ZM32.7617 20.6719H30.6768L29.1592 26.2363H29.1182L27.5938 20.6719H25.4541L27.9902 28H30.2461L32.7617 20.6719ZM36.1113 26.6738C35.4346 26.6738 34.9834 26.332 34.9834 25.7852C34.9834 25.2656 35.4072 24.9307 36.1523 24.876L37.6973 24.7803V25.3135C37.6973 26.1064 36.9795 26.6738 36.1113 26.6738ZM35.4551 28.1162C36.3711 28.1162 37.2803 27.6582 37.6904 26.8789H37.7314V28H39.6592V22.9619C39.6592 21.4854 38.4355 20.5146 36.5557 20.5146C34.6143 20.5146 33.4043 21.4922 33.3291 22.9141H35.1543C35.25 22.374 35.7217 22.0049 36.4668 22.0049C37.2188 22.0049 37.6973 22.4014 37.6973 23.085V23.5703L35.8516 23.6797C34.0264 23.7891 33.001 24.5615 33.001 25.8945C33.001 27.2139 34.0605 28.1162 35.4551 28.1162ZM41.4844 18.9834V20.6719H40.4521V22.1758H41.4844V26.0244C41.4844 27.4531 42.1543 28.0273 43.877 28.0273C44.2803 28.0273 44.6221 27.9932 44.8271 27.9453V26.4756C44.7041 26.4961 44.5195 26.5098 44.3418 26.5098C43.7539 26.5098 43.4805 26.2432 43.4805 25.6826V22.1758H44.834V20.6719H43.4805V18.9834H41.4844ZM49.1064 21.9912C49.9951 21.9912 50.6035 22.6338 50.6445 23.5703H47.5342C47.6025 22.6543 48.2314 21.9912 49.1064 21.9912ZM50.6719 25.7578C50.4873 26.3184 49.9268 26.6807 49.1953 26.6807C48.1768 26.6807 47.5137 25.9629 47.5137 24.917V24.7939H52.5654V24.1855C52.5654 21.957 51.2188 20.5146 49.0859 20.5146C46.9189 20.5146 45.5518 22.0322 45.5518 24.3701C45.5518 26.7148 46.9053 28.1572 49.1611 28.1572C50.9727 28.1572 52.2852 27.1934 52.5039 25.7578H50.6719ZM15.1729 49.1572C17.3877 49.1572 18.8027 47.7422 18.8027 45.3291C18.8027 42.9502 17.3672 41.5146 15.1729 41.5146C12.9785 41.5146 11.543 42.957 11.543 45.3291C11.543 47.7354 12.958 49.1572 15.1729 49.1572ZM15.1729 47.6328C14.1885 47.6328 13.5664 46.8057 13.5664 45.3359C13.5664 43.8799 14.2021 43.0391 15.1729 43.0391C16.1436 43.0391 16.7725 43.8799 16.7725 45.3359C16.7725 46.8057 16.1504 47.6328 15.1729 47.6328ZM20.3682 49H22.3643V43.1758H23.7725V41.7061H22.3164V41.2207C22.3164 40.7012 22.6035 40.4141 23.2598 40.4141C23.458 40.4141 23.6562 40.4277 23.7998 40.4551V39.1357C23.5674 39.0879 23.1504 39.0469 22.7812 39.0469C21.0449 39.0469 20.3682 39.7168 20.3682 41.1523V41.7061H19.3701V43.1758H20.3682V49ZM25.3584 49H27.3545V43.1758H28.7627V41.7061H27.3066V41.2207C27.3066 40.7012 27.5938 40.4141 28.25 40.4141C28.4482 40.4141 28.6465 40.4277 28.79 40.4551V39.1357C28.5576 39.0879 28.1406 39.0469 27.7715 39.0469C26.0352 39.0469 25.3584 39.7168 25.3584 41.1523V41.7061H24.3604V43.1758H25.3584V49ZM32.8984 42.9912C33.7871 42.9912 34.3955 43.6338 34.4365 44.5703H31.3262C31.3945 43.6543 32.0234 42.9912 32.8984 42.9912ZM34.4639 46.7578C34.2793 47.3184 33.7188 47.6807 32.9873 47.6807C31.9688 47.6807 31.3057 46.9629 31.3057 45.917V45.7939H36.3574V45.1855C36.3574 42.957 35.0107 41.5146 32.8779 41.5146C30.7109 41.5146 29.3438 43.0322 29.3438 45.3701C29.3438 47.7148 30.6973 49.1572 32.9531 49.1572C34.7646 49.1572 36.0771 48.1934 36.2959 46.7578H34.4639ZM37.3896 49H39.3857V44.9053C39.3857 43.873 39.96 43.2715 40.9443 43.2715C41.2314 43.2715 41.5049 43.3193 41.6689 43.3877V41.6309C41.5322 41.5898 41.334 41.5557 41.1016 41.5557C40.2402 41.5557 39.6182 42.0615 39.3584 42.9912H39.3174V41.6719H37.3896V49Z"
    fill="#0066CC" />
  <circle cx="22.4199" cy="4" r="4" fill="#0066CC" />
  <path
    d="M109.689 29V19.1357H107.296L104.494 26.2178H104.439L101.636 19.1357H99.2437V29H101.083V22.3418H101.137L103.817 29H105.116L107.795 22.3418H107.85V29H109.689ZM113.182 29.1162C114.098 29.1162 115.007 28.6582 115.418 27.8789H115.459V29H117.386V23.9619C117.386 22.4854 116.163 21.5146 114.283 21.5146C112.341 21.5146 111.131 22.4922 111.056 23.9141H112.881C112.977 23.374 113.449 23.0049 114.194 23.0049C114.946 23.0049 115.424 23.4014 115.424 24.085V24.5703L113.579 24.6797C111.753 24.7891 110.728 25.5615 110.728 26.8945C110.728 28.2139 111.788 29.1162 113.182 29.1162ZM113.838 27.6738C113.162 27.6738 112.711 27.332 112.711 26.7852C112.711 26.2656 113.134 25.9307 113.879 25.876L115.424 25.7803V26.3135C115.424 27.1064 114.707 27.6738 113.838 27.6738ZM120.75 24.6113H120.722V19.1357H118.726V29H120.722V26.5801L121.242 26.0195L123.34 29H125.637L122.705 24.8164L125.501 21.6719H123.238L120.75 24.6113ZM130.723 26.7578C130.539 27.3184 129.978 27.6807 129.247 27.6807C128.228 27.6807 127.565 26.9629 127.565 25.917V25.7939H132.617V25.1855C132.617 22.957 131.27 21.5146 129.137 21.5146C126.97 21.5146 125.603 23.0322 125.603 25.3701C125.603 27.7148 126.957 29.1572 129.212 29.1572C131.024 29.1572 132.336 28.1934 132.555 26.7578H130.723ZM129.158 22.9912C130.046 22.9912 130.655 23.6338 130.696 24.5703H127.586C127.654 23.6543 128.283 22.9912 129.158 22.9912ZM138.598 29.1162C139.514 29.1162 140.423 28.6582 140.834 27.8789H140.875V29H142.802V23.9619C142.802 22.4854 141.579 21.5146 139.699 21.5146C137.757 21.5146 136.547 22.4922 136.472 23.9141H138.297C138.393 23.374 138.865 23.0049 139.61 23.0049C140.362 23.0049 140.84 23.4014 140.84 24.085V24.5703L138.995 24.6797C137.169 24.7891 136.144 25.5615 136.144 26.8945C136.144 28.2139 137.204 29.1162 138.598 29.1162ZM139.254 27.6738C138.578 27.6738 138.127 27.332 138.127 26.7852C138.127 26.2656 138.55 25.9307 139.295 25.876L140.84 25.7803V26.3135C140.84 27.1064 140.123 27.6738 139.254 27.6738ZM151.149 21.5557C150.089 21.5557 149.276 22.0889 148.879 22.9502H148.838V21.6719H146.87V31.3926H148.866V27.7695H148.907C149.296 28.5967 150.117 29.1162 151.183 29.1162C153.015 29.1162 154.15 27.6943 154.15 25.3359C154.15 22.9707 153.008 21.5557 151.149 21.5557ZM150.479 27.5098C149.502 27.5098 148.859 26.6621 148.859 25.3359C148.859 24.0234 149.502 23.1553 150.479 23.1553C151.477 23.1553 152.106 24.0098 152.106 25.3359C152.106 26.6689 151.477 27.5098 150.479 27.5098ZM161.95 21.6719H159.954V25.8691C159.954 26.8398 159.4 27.4756 158.511 27.4756C157.629 27.4756 157.144 26.9561 157.144 25.9785V21.6719H155.148V26.3955C155.148 28.1045 156.201 29.1367 157.787 29.1367C158.894 29.1367 159.619 28.6035 159.981 27.6807H160.022V29H161.95V21.6719ZM163.249 29H165.245V24.9053C165.245 23.873 165.819 23.2715 166.803 23.2715C167.09 23.2715 167.364 23.3193 167.528 23.3877V21.6309C167.391 21.5898 167.193 21.5557 166.961 21.5557C166.099 21.5557 165.477 22.0615 165.217 22.9912H165.176V21.6719H163.249V29ZM174.76 24.3994C174.671 22.7383 173.414 21.5146 171.431 21.5146C169.237 21.5146 167.836 22.9775 167.836 25.3291C167.836 27.7217 169.237 29.1572 171.445 29.1572C173.373 29.1572 174.665 28.043 174.767 26.3135H172.908C172.785 27.1133 172.265 27.5918 171.465 27.5918C170.474 27.5918 169.859 26.7715 169.859 25.3291C169.859 23.9141 170.474 23.0801 171.459 23.0801C172.279 23.0801 172.792 23.627 172.908 24.3994H174.76ZM175.779 29H177.775V24.8164C177.775 23.8525 178.329 23.1895 179.272 23.1895C180.181 23.1895 180.646 23.7637 180.646 24.707V29H182.642V24.2832C182.642 22.5879 181.712 21.5352 180.086 21.5352C178.971 21.5352 178.171 22.0547 177.782 22.9775H177.741V19.1357H175.779V29ZM186.094 29.1162C187.01 29.1162 187.919 28.6582 188.33 27.8789H188.371V29H190.298V23.9619C190.298 22.4854 189.075 21.5146 187.195 21.5146C185.253 21.5146 184.044 22.4922 183.968 23.9141H185.794C185.889 23.374 186.361 23.0049 187.106 23.0049C187.858 23.0049 188.336 23.4014 188.336 24.085V24.5703L186.491 24.6797C184.666 24.7891 183.64 25.5615 183.64 26.8945C183.64 28.2139 184.7 29.1162 186.094 29.1162ZM186.751 27.6738C186.074 27.6738 185.623 27.332 185.623 26.7852C185.623 26.2656 186.046 25.9307 186.792 25.876L188.336 25.7803V26.3135C188.336 27.1064 187.619 27.6738 186.751 27.6738ZM191.467 23.8252C191.467 24.9258 192.185 25.6367 193.6 25.9375L194.851 26.1973C195.569 26.3613 195.822 26.5801 195.822 26.9697C195.822 27.4482 195.357 27.7559 194.605 27.7559C193.812 27.7559 193.354 27.4141 193.231 26.7715H191.283C191.413 28.2139 192.582 29.1572 194.605 29.1572C196.492 29.1572 197.811 28.207 197.811 26.7646C197.811 25.6914 197.182 25.0898 195.651 24.7686L194.4 24.502C193.662 24.3447 193.388 24.0918 193.388 23.7158C193.388 23.2305 193.846 22.916 194.537 22.916C195.275 22.916 195.719 23.3193 195.781 23.9141H197.62C197.579 22.4785 196.417 21.5146 194.537 21.5146C192.67 21.5146 191.467 22.4307 191.467 23.8252ZM203.649 26.7578C203.464 27.3184 202.904 27.6807 202.172 27.6807C201.154 27.6807 200.491 26.9629 200.491 25.917V25.7939H205.543V25.1855C205.543 22.957 204.196 21.5146 202.063 21.5146C199.896 21.5146 198.529 23.0322 198.529 25.3701C198.529 27.7148 199.882 29.1572 202.138 29.1572C203.95 29.1572 205.262 28.1934 205.481 26.7578H203.649ZM202.084 22.9912C202.972 22.9912 203.581 23.6338 203.622 24.5703H200.511C200.58 23.6543 201.209 22.9912 202.084 22.9912ZM118.877 42.6719H116.908L115.794 48.1064H115.753L114.447 42.6719H112.533L111.234 48.1064H111.193L110.086 42.6719H108.076L110.024 50H112.123L113.442 44.8184H113.483L114.809 50H116.935L118.877 42.6719ZM120.681 41.6807C121.262 41.6807 121.72 41.2158 121.72 40.6553C121.72 40.0879 121.262 39.6299 120.681 39.6299C120.1 39.6299 119.642 40.0879 119.642 40.6553C119.642 41.2158 120.1 41.6807 120.681 41.6807ZM119.69 50H121.686V42.6719H119.69V50ZM123.552 40.9834V42.6719H122.52V44.1758H123.552V48.0244C123.552 49.4531 124.222 50.0273 125.945 50.0273C126.348 50.0273 126.69 49.9932 126.895 49.9453V48.4756C126.772 48.4961 126.587 48.5098 126.41 48.5098C125.822 48.5098 125.548 48.2432 125.548 47.6826V44.1758H126.902V42.6719H125.548V40.9834H123.552ZM128.044 50H130.04V45.8164C130.04 44.8525 130.593 44.1895 131.537 44.1895C132.446 44.1895 132.911 44.7637 132.911 45.707V50H134.907V45.2832C134.907 43.5879 133.977 42.5352 132.35 42.5352C131.236 42.5352 130.436 43.0547 130.046 43.9775H130.005V40.1357H128.044V50ZM139.008 50H141.004V40.1357H139.008V50ZM143.377 41.6807C143.958 41.6807 144.416 41.2158 144.416 40.6553C144.416 40.0879 143.958 39.6299 143.377 39.6299C142.795 39.6299 142.337 40.0879 142.337 40.6553C142.337 41.2158 142.795 41.6807 143.377 41.6807ZM142.385 50H144.381V42.6719H142.385V50ZM145.714 50H147.711V45.7959C147.711 44.8457 148.278 44.1895 149.173 44.1895C150.069 44.1895 150.52 44.7363 150.52 45.6934V50H152.516V45.2764C152.516 43.5605 151.6 42.5352 149.973 42.5352C148.845 42.5352 148.073 43.0684 147.683 43.9775H147.642V42.6719H145.714V50ZM155.852 45.6113H155.825V40.1357H153.829V50H155.825V47.5801L156.344 47.0195L158.443 50H160.74L157.807 45.8164L160.603 42.6719H158.34L155.852 45.6113ZM165.826 47.7578C165.641 48.3184 165.081 48.6807 164.349 48.6807C163.331 48.6807 162.668 47.9629 162.668 46.917V46.7939H167.719V46.1855C167.719 43.957 166.373 42.5146 164.24 42.5146C162.073 42.5146 160.706 44.0322 160.706 46.3701C160.706 48.7148 162.059 50.1572 164.315 50.1572C166.127 50.1572 167.439 49.1934 167.658 47.7578H165.826ZM164.26 43.9912C165.149 43.9912 165.757 44.6338 165.798 45.5703H162.688C162.756 44.6543 163.385 43.9912 164.26 43.9912ZM171.472 50.1162C172.552 50.1162 173.4 49.5488 173.755 48.7422H173.79V50H175.758V40.1357H173.762V43.9297H173.721C173.366 43.1162 172.545 42.5557 171.486 42.5557C169.647 42.5557 168.485 43.998 168.485 46.3223C168.485 48.667 169.64 50.1162 171.472 50.1162ZM172.149 44.1553C173.14 44.1553 173.776 45.0029 173.776 46.3359C173.776 47.6758 173.14 48.5098 172.149 48.5098C171.144 48.5098 170.529 47.6826 170.529 46.3359C170.529 44.9961 171.144 44.1553 172.149 44.1553ZM184.399 50.1641C186.819 50.1641 188.507 48.7764 188.74 46.5752H186.73C186.511 47.7441 185.629 48.4619 184.406 48.4619C182.827 48.4619 181.836 47.1631 181.836 45.0576C181.836 42.9795 182.84 41.6738 184.399 41.6738C185.602 41.6738 186.532 42.4668 186.723 43.6768H188.733C188.576 41.4688 186.771 39.9648 184.399 39.9648C181.542 39.9648 179.73 41.8857 179.73 45.0645C179.73 48.25 181.528 50.1641 184.399 50.1641ZM194.379 50.1641C196.799 50.1641 198.488 48.7764 198.72 46.5752H196.711C196.492 47.7441 195.61 48.4619 194.386 48.4619C192.807 48.4619 191.816 47.1631 191.816 45.0576C191.816 42.9795 192.821 41.6738 194.379 41.6738C195.583 41.6738 196.512 42.4668 196.704 43.6768H198.713C198.556 41.4688 196.752 39.9648 194.379 39.9648C191.522 39.9648 189.711 41.8857 189.711 45.0645C189.711 48.25 191.508 50.1641 194.379 50.1641Z"
    fill="#909BA0" />
  <circle cx="151.354" cy="4" r="4" fill="#909BA0" />
  <path
    d="M288.306 24.8574V23.7432H284.149V25.2471H286.296L286.289 25.4043C286.248 26.6279 285.312 27.4551 283.965 27.4551C282.324 27.4551 281.285 26.1494 281.285 24.0098C281.285 21.9111 282.263 20.6738 283.89 20.6738C285.004 20.6738 285.845 21.2891 286.146 22.3213H288.217C287.923 20.3252 286.187 18.9648 283.883 18.9648C280.984 18.9648 279.18 20.8789 279.18 24.0371C279.18 27.2432 280.984 29.1709 283.931 29.1709C286.679 29.1709 288.306 27.5439 288.306 24.8574ZM292.79 22.9912C293.679 22.9912 294.287 23.6338 294.328 24.5703H291.218C291.286 23.6543 291.915 22.9912 292.79 22.9912ZM294.355 26.7578C294.171 27.3184 293.61 27.6807 292.879 27.6807C291.86 27.6807 291.197 26.9629 291.197 25.917V25.7939H296.249V25.1855C296.249 22.957 294.902 21.5146 292.77 21.5146C290.603 21.5146 289.235 23.0322 289.235 25.3701C289.235 27.7148 290.589 29.1572 292.845 29.1572C294.656 29.1572 295.969 28.1934 296.188 26.7578H294.355ZM297.814 19.9834V21.6719H296.782V23.1758H297.814V27.0244C297.814 28.4531 298.484 29.0273 300.207 29.0273C300.61 29.0273 300.952 28.9932 301.157 28.9453V27.4756C301.034 27.4961 300.85 27.5098 300.672 27.5098C300.084 27.5098 299.811 27.2432 299.811 26.6826V23.1758H301.164V21.6719H299.811V19.9834H297.814ZM254.905 47.1836C254.967 49.043 256.532 50.1709 258.884 50.1709C261.352 50.1709 262.862 48.9473 262.862 47.0195C262.862 45.5225 261.953 44.6816 259.868 44.2646L258.822 44.0527C257.66 43.8203 257.182 43.4443 257.182 42.8359C257.182 42.1113 257.865 41.6328 258.884 41.6328C259.923 41.6328 260.654 42.1387 260.723 42.9795H262.671C262.637 41.168 261.188 39.9648 258.884 39.9648C256.689 39.9648 255.117 41.1611 255.117 42.9658C255.117 44.4355 256.081 45.3789 258.05 45.7686L259.089 45.9736C260.326 46.2266 260.791 46.5957 260.791 47.2451C260.791 47.9697 260.039 48.5029 258.938 48.5029C257.817 48.5029 256.983 48.0107 256.854 47.1836H254.905ZM268.721 50V46.3154L272.159 40.1357H269.944L267.729 44.3467H267.682L265.474 40.1357H263.225L266.656 46.3154V50H268.721ZM279.07 43.2598H279.132L281.005 50H282.953L285.571 40.1357H283.432L281.873 47.2793H281.818L279.973 40.1357H278.229L276.384 47.2793H276.329L274.777 40.1357H272.638L275.249 50H277.197L279.07 43.2598ZM293.569 42.5557C292.51 42.5557 291.696 43.0889 291.3 43.9502H291.259V42.6719H289.29V52.3926H291.286V48.7695H291.327C291.717 49.5967 292.537 50.1162 293.604 50.1162C295.436 50.1162 296.57 48.6943 296.57 46.3359C296.57 43.9707 295.429 42.5557 293.569 42.5557ZM292.899 48.5098C291.922 48.5098 291.279 47.6621 291.279 46.3359C291.279 45.0234 291.922 44.1553 292.899 44.1553C293.897 44.1553 294.526 45.0098 294.526 46.3359C294.526 47.6689 293.897 48.5098 292.899 48.5098ZM300.966 50.1572C303.181 50.1572 304.596 48.7422 304.596 46.3291C304.596 43.9502 303.16 42.5146 300.966 42.5146C298.771 42.5146 297.336 43.957 297.336 46.3291C297.336 48.7354 298.751 50.1572 300.966 50.1572ZM300.966 48.6328C299.981 48.6328 299.359 47.8057 299.359 46.3359C299.359 44.8799 299.995 44.0391 300.966 44.0391C301.937 44.0391 302.565 44.8799 302.565 46.3359C302.565 47.8057 301.943 48.6328 300.966 48.6328ZM305.662 50H307.658V42.6719H305.662V50ZM306.653 41.6807C307.234 41.6807 307.692 41.2158 307.692 40.6553C307.692 40.0879 307.234 39.6299 306.653 39.6299C306.072 39.6299 305.614 40.0879 305.614 40.6553C305.614 41.2158 306.072 41.6807 306.653 41.6807ZM308.991 50H310.987V45.7959C310.987 44.8457 311.555 44.1895 312.45 44.1895C313.346 44.1895 313.797 44.7363 313.797 45.6934V50H315.793V45.2764C315.793 43.5605 314.877 42.5352 313.25 42.5352C312.122 42.5352 311.35 43.0684 310.96 43.9775H310.919V42.6719H308.991V50ZM317.591 40.9834V42.6719H316.559V44.1758H317.591V48.0244C317.591 49.4531 318.261 50.0273 319.983 50.0273C320.387 50.0273 320.729 49.9932 320.934 49.9453V48.4756C320.811 48.4961 320.626 48.5098 320.448 48.5098C319.86 48.5098 319.587 48.2432 319.587 47.6826V44.1758H320.94V42.6719H319.587V40.9834H317.591ZM321.911 44.8252C321.911 45.9258 322.629 46.6367 324.044 46.9375L325.295 47.1973C326.013 47.3613 326.266 47.5801 326.266 47.9697C326.266 48.4482 325.801 48.7559 325.049 48.7559C324.256 48.7559 323.798 48.4141 323.675 47.7715H321.727C321.856 49.2139 323.025 50.1572 325.049 50.1572C326.936 50.1572 328.255 49.207 328.255 47.7646C328.255 46.6914 327.626 46.0898 326.095 45.7686L324.844 45.502C324.105 45.3447 323.832 45.0918 323.832 44.7158C323.832 44.2305 324.29 43.916 324.98 43.916C325.719 43.916 326.163 44.3193 326.225 44.9141H328.063C328.022 43.4785 326.86 42.5146 324.98 42.5146C323.114 42.5146 321.911 43.4307 321.911 44.8252Z"
    fill="#909BA0" />
  <circle cx="293.502" cy="4" r="4" fill="#909BA0" />
</svg>