<svg width="52" height="32" viewBox="0 0 52 32" fill="none" xmlns="http://www.w3.org/2000/svg">
<rect x="1.11328" y="1.09082" width="50" height="30" rx="4" fill="white" stroke="#E2E3E3"/>
<path d="M18.4714 25.955V24.6575C18.4714 24.1599 18.1686 23.8356 17.6715 23.8356C17.4104 23.8356 17.1311 23.9223 16.9363 24.2011C16.7849 23.963 16.5708 23.8356 16.2445 23.8356C16.1232 23.8304 16.0024 23.8553 15.8931 23.9081C15.7838 23.961 15.6892 24.0401 15.6179 24.1385V23.8774H15.207V25.9534H15.6179V24.7655C15.6179 24.4 15.8341 24.2251 16.1369 24.2251C16.4398 24.2251 16.6126 24.4199 16.6126 24.7655V25.955H17.0235V24.7655C17.0235 24.4 17.2397 24.2251 17.5425 24.2251C17.8454 24.2251 18.0182 24.4199 18.0182 24.7655V25.955H18.4714ZM25.2184 23.9004H24.4613V23.2738H24.0514V23.9004H23.6191V24.2659H24.0514V25.2412C24.0514 25.7169 24.2242 25.9983 24.7432 25.9983C24.9399 25.9942 25.1325 25.9422 25.3045 25.8469L25.1745 25.4814C25.0578 25.5543 24.9226 25.5918 24.785 25.5895C24.5688 25.5895 24.4608 25.4595 24.4608 25.2433V24.2492H25.2178V23.903L25.2184 23.9004ZM29.0675 23.8356C28.9556 23.8331 28.8449 23.8597 28.7464 23.9128C28.6478 23.9659 28.5647 24.0436 28.5052 24.1385V23.8774H28.0943V25.9534H28.5052V24.7875C28.5052 24.4413 28.678 24.2251 28.9594 24.2251C29.0544 24.229 29.1486 24.2435 29.2403 24.2685L29.3704 23.879C29.2712 23.854 29.1697 23.8394 29.0675 23.8356ZM23.2505 24.0518C23.0343 23.9004 22.7315 23.8356 22.4072 23.8356C21.8882 23.8356 21.564 24.0737 21.564 24.4846C21.564 24.8308 21.8021 25.025 22.2558 25.0903L22.472 25.1117C22.7101 25.155 22.8615 25.2417 22.8615 25.3498C22.8615 25.5012 22.6886 25.6109 22.3639 25.6109C22.1159 25.616 21.873 25.5401 21.6721 25.3947L21.4559 25.719C21.7587 25.9351 22.1263 25.98 22.3435 25.98C22.9492 25.98 23.2734 25.6991 23.2734 25.3096C23.2734 24.9441 23.0124 24.7692 22.5597 24.7039L22.3435 24.6825C22.1488 24.6611 21.978 24.5958 21.978 24.4664C21.978 24.3149 22.1508 24.2053 22.3889 24.2053C22.65 24.2053 22.9079 24.3134 23.038 24.3781L23.2505 24.0518ZM29.5218 24.917C29.5218 25.5435 29.9327 25.9983 30.6031 25.9983C30.9059 25.9983 31.1221 25.9335 31.3383 25.7602L31.1221 25.436C30.9691 25.5599 30.7786 25.6285 30.5817 25.6307C30.2162 25.6307 29.9327 25.3498 29.9327 24.9389C29.9327 24.528 30.2126 24.2492 30.5817 24.2492C30.7786 24.2513 30.9691 24.32 31.1221 24.4439L31.3383 24.1197C31.1221 23.9468 30.9059 23.8816 30.6031 23.8816C29.9541 23.8382 29.5218 24.2925 29.5218 24.9196V24.917ZM26.6239 23.8356C26.0183 23.8356 25.6074 24.268 25.6074 24.917C25.6074 25.566 26.0397 25.9983 26.6668 25.9983C26.9718 26.0047 27.2697 25.9055 27.51 25.7174L27.2938 25.4145C27.1201 25.5492 26.9079 25.6249 26.6882 25.6307C26.4073 25.6307 26.1044 25.4579 26.0616 25.0903H27.5972V24.9175C27.5972 24.2685 27.2077 23.8361 26.6239 23.8361V23.8356ZM26.6025 24.2251C26.9054 24.2251 27.1215 24.4199 27.1429 24.7441H26.0188C26.0835 24.4413 26.2799 24.2251 26.6025 24.2251ZM21.0016 24.917V23.879H20.5907V24.14C20.4393 23.9453 20.2252 23.8372 19.9203 23.8372C19.3366 23.8372 18.9037 24.2914 18.9037 24.9185C18.9037 25.5456 19.336 25.9999 19.9203 25.9999C20.2231 25.9999 20.4393 25.8918 20.5907 25.697V25.9581H21.0016V24.917ZM19.3366 24.917C19.3366 24.5274 19.5747 24.2251 19.9856 24.2251C20.3751 24.2251 20.6121 24.528 20.6121 24.917C20.6121 25.3279 20.3511 25.6088 19.9856 25.6088C19.5747 25.6302 19.3366 25.3059 19.3366 24.917ZM35.3179 23.8356C35.206 23.8331 35.0954 23.8597 34.9968 23.9128C34.8982 23.9659 34.8151 24.0436 34.7556 24.1385V23.8774H34.3447V25.9534H34.7551V24.7875C34.7551 24.4413 34.9279 24.2251 35.2093 24.2251C35.3043 24.229 35.3985 24.2435 35.4903 24.2685L35.6203 23.879C35.5211 23.854 35.4196 23.8394 35.3174 23.8356H35.3179ZM33.7176 24.917V23.879H33.3067V24.14C33.1553 23.9453 32.9412 23.8372 32.6363 23.8372C32.0525 23.8372 31.6197 24.2914 31.6197 24.9185C31.6197 25.5456 32.052 25.9999 32.6363 25.9999C32.9391 25.9999 33.1553 25.8918 33.3067 25.697V25.9581H33.7176V24.917ZM32.0525 24.917C32.0525 24.5274 32.2906 24.2251 32.7015 24.2251C33.0911 24.2251 33.3281 24.528 33.3281 24.917C33.3281 25.3279 33.067 25.6088 32.7015 25.6088C32.2906 25.6302 32.0525 25.3059 32.0525 24.917ZM37.8915 24.917V23.0571H37.4806V24.1385C37.3292 23.9437 37.1151 23.8356 36.8102 23.8356C36.2265 23.8356 35.7936 24.2899 35.7936 24.917C35.7936 25.544 36.2259 25.9983 36.8102 25.9983C37.113 25.9983 37.3292 25.8902 37.4806 25.6955V25.9565H37.8915V24.917ZM36.2265 24.917C36.2265 24.5274 36.4645 24.2251 36.8755 24.2251C37.265 24.2251 37.502 24.528 37.502 24.917C37.502 25.3279 37.241 25.6088 36.8755 25.6088C36.464 25.6307 36.2259 25.3065 36.2259 24.917H36.2265Z" fill="black"/>
<path d="M30.279 8.13525H22.7749V20.375H30.279V8.13525Z" fill="#FF5F00"/>
<path d="M23.5321 14.2552C23.5323 13.0777 23.799 11.9156 24.312 10.8557C24.8251 9.79591 25.5712 8.86588 26.4946 8.13529C25.3462 7.23238 23.967 6.6708 22.5145 6.51476C21.062 6.35872 19.5949 6.6145 18.281 7.25287C16.967 7.89125 15.8591 8.88645 15.0841 10.1247C14.309 11.363 13.8979 12.7944 13.8979 14.2552C13.8979 15.716 14.309 17.1474 15.0841 18.3857C15.8591 19.6239 16.967 20.6191 18.281 21.2575C19.5949 21.8959 21.062 22.1517 22.5145 21.9956C23.967 21.8396 25.3462 21.278 26.4946 20.3751C25.5712 19.6445 24.8251 18.7145 24.312 17.6546C23.799 16.5948 23.5323 15.4327 23.5321 14.2552Z" fill="#EB001B"/>
<path d="M39.1024 14.2559C39.1035 15.7157 38.6936 17.1463 37.9198 18.3841C37.146 19.6219 36.0395 20.617 34.7267 21.2554C33.414 21.8939 31.948 22.15 30.4965 21.9944C29.0451 21.8389 27.6667 21.278 26.519 20.3758C27.4427 19.6454 28.189 18.7154 28.7021 17.6556C29.2152 16.5957 29.4817 15.4335 29.4817 14.2559C29.4817 13.0784 29.2152 11.9161 28.7021 10.8563C28.189 9.79641 27.4427 8.86642 26.519 8.13603C27.6667 7.2339 29.0451 6.67298 30.4965 6.51743C31.948 6.36188 33.414 6.61798 34.7267 7.25643C36.0395 7.89489 37.146 8.88992 37.9198 10.1277C38.6936 11.3655 39.1035 12.7961 39.1024 14.2559Z" fill="#F79E1B"/>
</svg>
