<svg width="71" height="71" viewBox="0 0 71 71" fill="none" xmlns="http://www.w3.org/2000/svg">
<ellipse cx="35.7246" cy="35.1826" rx="35" ry="35" fill="#FCE9E9"/>
<mask id="mask0" mask-type="alpha" maskUnits="userSpaceOnUse" x="0" y="0" width="71" height="71">
<ellipse cx="35.7246" cy="35.1826" rx="35" ry="35" fill="white"/>
</mask>
<g mask="url(#mask0)">
<rect x="13.9004" y="15.0063" width="93.8823" height="41.1765" rx="20.5882" fill="#E02020"/>
</g>
<path d="M50.4224 32.0632C50.491 31.6939 50.5311 31.319 50.5311 30.9387C50.5311 27.2453 47.2923 24.252 43.304 24.252C40.6031 24.252 38.257 25.6246 37.0153 27.6532C36.2943 27.2232 35.4417 26.9696 34.5204 26.9696C31.9855 26.9696 29.9255 28.8715 29.9255 31.2198C29.9255 31.2308 29.9255 31.2474 29.9255 31.2584C26.9385 31.8758 24.7012 34.4336 24.7012 37.4931V37.7632C24.7012 41.2857 27.6653 44.1412 31.3217 44.1412H46.949C50.6055 44.1412 53.5696 41.2857 53.5696 37.7632V37.4931C53.5696 35.1943 52.3107 33.1878 50.4224 32.0632ZM38.6461 31.6884H39.6246C39.7963 31.6884 39.9336 31.8041 39.9336 31.9475L39.8363 37.0024C39.8363 37.1458 39.699 37.2615 39.5273 37.2615H38.772C38.6004 37.2615 38.463 37.1458 38.463 37.0024L38.3371 31.9475C38.3371 31.8041 38.4802 31.6884 38.6461 31.6884ZM39.1382 39.5217C38.6805 39.5217 38.3085 39.1634 38.3085 38.7224C38.3085 38.2814 38.6805 37.923 39.1382 37.923C39.596 37.923 39.968 38.2814 39.968 38.7224C39.9622 39.1689 39.596 39.5217 39.1382 39.5217Z" fill="white"/>
</svg>
