<svg width="81" height="81" viewBox="0 0 81 81" fill="none" xmlns="http://www.w3.org/2000/svg">
<ellipse opacity="0.1" cx="40.6856" cy="40.2085" rx="40" ry="40" fill="#E02020"/>
<mask id="mask0" mask-type="alpha" maskUnits="userSpaceOnUse" x="0" y="0" width="81" height="81">
<ellipse cx="40.6856" cy="40.2085" rx="40" ry="40" fill="white"/>
</mask>
<g mask="url(#mask0)">
<rect x="15.7441" y="17.1499" width="107.294" height="47.0588" rx="23.5294" fill="#E02020"/>
</g>
<path fill-rule="evenodd" clip-rule="evenodd" d="M57.4816 36.6435C57.5601 36.2214 57.6058 35.793 57.6058 35.3583C57.6058 31.1372 53.9044 27.7163 49.3463 27.7163C46.2596 27.7163 43.5783 29.285 42.1592 31.6034C41.3352 31.112 40.3608 30.8222 39.308 30.8222C36.4109 30.8222 34.0566 32.9957 34.0566 35.6796V35.7237C30.6429 36.4293 28.0859 39.3525 28.0859 42.849V43.1577C28.0859 47.1834 31.4735 50.4469 35.6523 50.4469H53.512C57.6908 50.4469 61.0784 47.1834 61.0784 43.1577V42.849C61.0784 40.2219 59.6397 37.9287 57.4816 36.6435ZM42.6666 39.7613C42.7924 39.637 42.7924 39.4505 42.6666 39.3262L42.4779 39.1398L42.6666 38.9533C42.7924 38.829 42.7924 38.6425 42.6666 38.5182C42.5408 38.3939 42.3521 38.3939 42.2263 38.5182L42.0376 38.7047L41.8489 38.5182C41.7231 38.3939 41.5344 38.3939 41.4086 38.5182C41.2828 38.6425 41.2828 38.829 41.4086 38.9533L41.5973 39.1398L41.4086 39.3262C41.2828 39.4505 41.2828 39.637 41.4086 39.7613C41.4715 39.8235 41.5501 39.8545 41.6288 39.8545C41.7074 39.8545 41.786 39.8235 41.8489 39.7613L42.0376 39.5748L42.2263 39.7613C42.2892 39.8235 42.3678 39.8545 42.4464 39.8545C42.5251 39.8545 42.6037 39.8235 42.6666 39.7613ZM47.1323 44.6716C47.2266 44.6716 47.321 44.625 47.3839 44.5473C47.4782 44.4074 47.4468 44.2054 47.3052 44.0967C46.7706 43.7082 46.0316 43.4907 45.2296 43.4907C44.4434 43.4907 43.7044 43.7082 43.154 44.0967C43.0125 44.2054 42.9811 44.3919 43.0754 44.5318C43.1855 44.6716 43.3742 44.7027 43.5157 44.6095C43.956 44.2987 44.5692 44.1277 45.2296 44.1277C45.89 44.1277 46.519 44.2987 46.9436 44.6095C47.0065 44.6561 47.0694 44.6716 47.1323 44.6716ZM49.2393 39.3262C49.3651 39.4505 49.3651 39.637 49.2393 39.7613C49.1764 39.8235 49.0978 39.8545 49.0192 39.8545C48.9406 39.8545 48.8619 39.8235 48.799 39.7613L48.6103 39.5748L48.4217 39.7613C48.3588 39.8235 48.2801 39.8545 48.2015 39.8545C48.1229 39.8545 48.0443 39.8235 47.9814 39.7613C47.8556 39.637 47.8556 39.4505 47.9814 39.3262L48.1701 39.1398L47.9814 38.9533C47.8556 38.829 47.8556 38.6425 47.9814 38.5182C48.1072 38.3939 48.2959 38.3939 48.4217 38.5182L48.6103 38.7047L48.799 38.5182C48.9248 38.3939 49.1135 38.3939 49.2393 38.5182C49.3651 38.6425 49.3651 38.829 49.2393 38.9533L49.0506 39.1398L49.2393 39.3262Z" fill="white"/>
</svg>
