<svg width="60" height="60" viewBox="0 0 60 60" fill="none" xmlns="http://www.w3.org/2000/svg">
<circle cx="30" cy="30" r="30" fill="#0066CC"/>
<g clip-path="url(#clip0)">
<path d="M24.1293 32.0078L28.4215 27.7388L17.7745 17.1644C15.4085 19.5176 15.4085 23.3341 17.7745 25.7024L24.1293 32.0078ZM34.4123 29.2775C36.7328 30.3485 39.9936 29.5943 42.4051 27.1958C45.3019 24.3146 45.8631 20.1814 43.6336 17.9639C41.4193 15.7615 37.2636 16.3046 34.3516 19.1858C31.9401 21.5843 31.1818 24.8275 32.2586 27.1354L17.456 41.8582L19.5945 43.9851L30.0443 33.6219L40.4789 44.0002L42.6174 41.8733L32.1828 31.4949L34.4123 29.2775Z" fill="white"/>
</g>
<defs>
<clipPath id="clip0">
<rect width="29" height="29" fill="white" transform="translate(16 15)"/>
</clipPath>
</defs>
</svg>
