<svg width="52" height="32" viewBox="0 0 52 32" fill="none" xmlns="http://www.w3.org/2000/svg">
<rect x="1" y="1" width="50" height="30" rx="4" fill="white" stroke="#E5E5E5"/>
<rect x="1.11328" y="1.09082" width="50" height="30" rx="4" fill="white" stroke="#E2E3E3"/>
<path fill-rule="evenodd" clip-rule="evenodd" d="M20.7127 10.2241L15.3922 22.5976L11.8152 22.6019L8.78598 12.2379L8.54053 11.457L8.56078 11.4681L8.59404 11.4865L8.56139 11.4695L8.561 11.4682C8.57689 11.4768 8.59252 11.4855 8.60835 11.4941C9.15334 11.7828 11.5728 13.1625 13.0688 15.3976C13.2965 16.5343 13.5146 17.5669 13.8225 18.6806L17.1322 10.2241H20.7127L20.7127 10.2241Z" fill="#006CB5"/>
<path fill-rule="evenodd" clip-rule="evenodd" d="M35.1043 18.5585C35.0793 21.1342 32.7752 22.7973 29.2231 22.7973C27.7091 22.7809 26.2489 22.4832 25.4561 22.1355L25.9309 19.3603L26.3675 19.5601C27.4797 20.0229 28.1968 20.2086 29.5501 20.2086C30.5225 20.2086 31.562 19.8274 31.5694 18.9951C31.5737 18.452 31.1328 18.0665 29.8174 17.4592C28.5367 16.865 26.8389 15.8722 26.8605 14.0907C26.8768 11.6803 29.232 10 32.571 10C33.8788 10 34.926 10.2673 35.5972 10.5213L35.1391 13.2076L34.8327 13.0632C34.2135 12.8134 33.4117 12.5711 32.3038 12.5883C30.9841 12.5883 30.3691 13.1404 30.3691 13.6574C30.3648 14.2341 31.0863 14.6209 32.2659 15.1933C34.2178 16.0764 35.1215 17.1498 35.1042 18.5585H35.1043Z" fill="#006CB5"/>
<path fill-rule="evenodd" clip-rule="evenodd" d="M44.2668 10.2241H41.6575C40.8474 10.2241 40.2402 10.4446 39.8883 11.255L34.8687 22.614H38.4152C38.4152 22.614 38.9962 21.0867 39.1289 20.751C39.5144 20.751 42.9643 20.7597 43.4564 20.7597C43.5543 21.1932 43.8637 22.614 43.8637 22.614H46.9999L44.2668 10.2241V10.2241ZM40.0998 18.2179C40.7071 16.6755 41.316 15.1221 41.8943 13.5677C42.2269 15.1187 42.567 16.668 42.9046 18.2179H40.0998H40.0998Z" fill="#006CB5"/>
<path fill-rule="evenodd" clip-rule="evenodd" d="M22.0807 10.2124H25.4588L23.345 22.6109H19.9678L22.0807 10.2124Z" fill="#006CB5"/>
<path fill-rule="evenodd" clip-rule="evenodd" d="M5 10.104L10.716 10.108C11.4208 10.1329 11.9889 10.3577 12.1888 11.1127L13.0688 15.3997C11.5729 13.1646 9.1534 11.785 8.60841 11.4962C8.59258 11.4876 8.57695 11.4789 8.56106 11.4703L8.56145 11.4716L8.5941 11.4886L8.56083 11.4702C8.46973 11.4202 8.37762 11.371 8.28464 11.3228C7.28625 10.8047 6.18206 10.3893 5 10.104L5 10.104Z" fill="#FAA841"/>
</svg>
