<svg width="60" height="60" viewBox="0 0 60 60" fill="none" xmlns="http://www.w3.org/2000/svg">
<circle cx="30" cy="30" r="30" fill="#0066CC"/>
<path d="M22.9412 23.4375C22.064 23.4375 21.3529 24.172 21.3529 25.0781C21.3529 25.8835 21.9148 26.5534 22.6557 26.6923L22.9412 26.7188H38.8235C43.2093 26.7188 46.7647 30.3914 46.7647 34.9219C46.7647 39.2711 43.4881 42.8298 39.3457 43.1076L38.8235 43.125H27.7059L27.2318 43.107C24.1089 42.869 21.6138 40.2991 21.3721 37.0765L21.3529 36.5625H38.8235C39.7007 36.5625 40.4118 35.828 40.4118 34.9219C40.4118 34.1165 39.8499 33.4466 39.109 33.3077L38.8235 33.2812H22.9412C18.5554 33.2812 15 29.6086 15 25.0781C15 20.7289 18.2766 17.1702 22.419 16.8924L22.9412 16.875H34.0588L34.533 16.893C37.6558 17.131 40.1509 19.7009 40.3926 22.9235L40.4118 23.4375H22.9412Z" fill="white"/>
</svg>
