<svg width="101" height="101" viewBox="0 0 101 101" fill="none" xmlns="http://www.w3.org/2000/svg">
<ellipse opacity="0.1" cx="50.6064" cy="50.2617" rx="50" ry="50" fill="#0066CC"/>
<mask id="mask0_2633_47552" style="mask-type:alpha" maskUnits="userSpaceOnUse" x="0" y="0" width="101" height="101">
<ellipse cx="50.6064" cy="50.2617" rx="50" ry="50" fill="white"/>
</mask>
<g mask="url(#mask0_2633_47552)">
<rect x="19.4297" y="21.438" width="134.118" height="58.8235" rx="29.4118" fill="#0066CC"/>
</g>
<ellipse cx="51.3228" cy="50.3936" rx="17.3228" ry="17.3228" fill="white"/>
<path d="M47.2466 46.6043C46.7401 46.6043 46.3295 47.0285 46.3295 47.5517C46.3295 48.0167 46.6539 48.4035 47.0817 48.4837L47.2466 48.499H56.4175C58.95 48.499 61.003 50.6197 61.003 53.2357C61.003 55.7471 59.1109 57.802 56.719 57.9623L56.4175 57.9724H49.9979L49.7241 57.962C47.9209 57.8246 46.4801 56.3407 46.3406 54.4799L46.3295 54.1831H56.4175C56.924 54.1831 57.3346 53.7589 57.3346 53.2357C57.3346 52.7706 57.0102 52.3838 56.5823 52.3036L56.4175 52.2884H47.2466C44.7141 52.2884 42.6611 50.1677 42.6611 47.5517C42.6611 45.0403 44.5532 42.9854 46.9451 42.825L47.2466 42.8149H53.6662L53.94 42.8253C55.7432 42.9628 57.1839 44.4467 57.3235 46.3075L57.3346 46.6043H47.2466Z" fill="#0066CC"/>
</svg>
