<?xml version="1.0" encoding="UTF-8"?>
<svg width="35px" height="35px" viewBox="0 0 35 35" version="1.1" xmlns="http://www.w3.org/2000/svg" xmlns:xlink="http://www.w3.org/1999/xlink">
    <title>158B9966-35B7-4BBD-9625-72B876AEC2AB@3x</title>
    <defs>
        <linearGradient x1="49.9844444%" y1="0.0311111111%" x2="49.9844444%" y2="99.9977778%" id="linearGradient-1">
            <stop stop-color="#D3D7DD" offset="0%"></stop>
            <stop stop-color="#888C90" offset="100%"></stop>
        </linearGradient>
        <linearGradient x1="50.1109688%" y1="0.167820069%" x2="50.1109688%" y2="100.108821%" id="linearGradient-2">
            <stop stop-color="#D9DADB" offset="0%"></stop>
            <stop stop-color="#7D8082" offset="100%"></stop>
        </linearGradient>
    </defs>
    <g id="1.-Push-Notifications-Modal" stroke="none" stroke-width="1" fill="none" fill-rule="evenodd">
        <g id="Push-Notification-Banner---Recovery" transform="translate(-40.000000, -314.000000)">
            <g id="apple-settings" transform="translate(40.000000, 314.000000)">
                <path d="M22.7888889,0 C26.2888889,0 28.0388889,0 29.9444444,0.583333333 C32.0055556,1.32222222 33.6388889,2.95555556 34.3777778,5.01666667 C35,6.92222222 35,8.71111111 35,12.2111111 L35,22.7888889 C35,26.2888889 35,28.0388889 34.4166667,29.9444444 C33.6777778,32.0055556 32.0444444,33.6388889 29.9833333,34.3777778 C28.0388889,35 26.2888889,35 22.7888889,35 L12.2111111,35 C8.71111111,35 6.96111111,35 5.05555556,34.4166667 C2.95555556,33.6388889 1.36111111,32.0444444 0.583333333,29.9444444 C0,28.0777778 0,26.3277778 0,22.7888889 L0,12.2111111 C0,8.71111111 0,6.96111111 0.583333333,5.05555556 C1.36111111,2.99444444 2.95555556,1.36111111 5.05555556,0.622222222 C6.92222222,0 8.67222222,0 12.2111111,0 L22.7888889,0 Z" id="Background_9_" fill="url(#linearGradient-1)" fill-rule="nonzero"></path>
                <circle id="Oval_3_" fill="#2E2E30" fill-rule="nonzero" cx="17" cy="17" r="15"></circle>
                <g id="Shape_3_" transform="translate(7.000000, 6.000000)" fill-rule="nonzero">
                    <g id="Group" transform="translate(10.911063, 11.156854) rotate(8.000000) translate(-10.911063, -11.156854) translate(1.286063, 1.243061)" fill="#000000">
                        <path d="M9.28870673,1.35425701 L9.67765248,1.35425701 L9.9499145,0.264384535 C10.0277037,-0.0859316166 10.1054928,-0.0470075997 10.1443874,0.264384535 L10.2610711,1.35425701 C10.3777548,1.35425701 10.5333331,1.39318102 10.6500169,1.39318102 L11.0389626,0.342232569 C11.1556463,0.0308404339 11.2334355,0.0308404339 11.2334355,0.381156585 L11.1945409,1.47102906 C11.3112246,1.50995307 11.4668029,1.54887709 11.5834867,1.54887709 L12.0891161,0.57577667 C12.2446944,0.264384535 12.3224836,0.303308552 12.283589,0.653624703 L12.1280107,1.74349717 C12.2446944,1.78242119 12.4002727,1.82134521 12.5169565,1.89919324 L13.1003751,0.965016838 C13.294848,0.69254872 13.3726371,0.731472737 13.294848,1.04286487 L13.0225859,2.13273734 C13.1392697,2.21058538 13.2559534,2.24950939 13.3726371,2.32735743 L14.0727395,1.47102906 C14.3061069,1.19856094 14.3838961,1.23748496 14.2672124,1.58780111 L13.8782666,2.59982554 C13.9949503,2.67767358 14.1116341,2.75552161 14.1894232,2.83336965 L15.0062093,2.09381333 C15.2395767,1.86026922 15.3173659,1.89919324 15.1617876,2.21058538 L14.6172635,3.26153383 C14.7339473,3.33938186 14.8117364,3.4172299 14.9284201,3.53400195 L15.8229954,2.91121768 C16.0952574,2.7165976 16.1730465,2.75552161 15.9785737,3.06691375 L15.3562605,3.96216613 C15.4340496,4.04001417 15.5507333,4.15678622 15.6285225,4.27355827 L16.6008869,3.72862203 C16.9120435,3.57292597 16.950938,3.650774 16.7175706,3.8843181 L15.9785737,4.70172245 L16.2119411,5.05203861 L17.2232001,4.62387442 C17.5343567,4.50710237 17.5732512,4.5849504 17.3398838,4.77957049 L16.5230977,5.51912681 C16.6008869,5.63589886 16.6397814,5.75267091 16.7175706,5.86944296 L17.7677241,5.55805082 C18.0788807,5.48020279 18.1566699,5.55805082 17.8455133,5.75267091 L16.950938,6.37545518 C16.9898326,6.49222723 17.0676218,6.60899928 17.1065163,6.76469535 L18.1566699,6.60899928 C18.5067211,6.57007526 18.5067211,6.6479233 18.234459,6.80361936 L17.3009892,7.30963158 C17.3398838,7.42640363 17.3787784,7.5820997 17.4176729,7.69887175 L18.5067211,7.65994773 C18.8567722,7.65994773 18.8567722,7.73779577 18.5456156,7.85456782 L17.5343567,8.24380799 C17.5732512,8.36058004 17.5732512,8.5162761 17.5732512,8.63304815 L18.6234048,8.7498202 C18.973456,8.78874422 18.973456,8.86659225 18.6234048,8.94444029 L17.5732512,9.21690841 L17.5732512,9.64507259 L18.6234048,9.83969268 C18.973456,9.91754071 18.973456,9.99538874 18.6234048,10.0343128 L17.5732512,10.1900088 C17.5732512,10.3457049 17.5343567,10.4624769 17.5343567,10.618173 L18.5456156,10.9684892 C18.8567722,11.0852612 18.8567722,11.1631092 18.5067211,11.1631092 L17.4565675,11.1631092 C17.4176729,11.2798813 17.4176729,11.4355774 17.3787784,11.5523494 L18.3511428,12.0194376 C18.6622994,12.1751337 18.6234048,12.2529817 18.3122482,12.2140577 L17.2620946,12.0972857 C17.2232001,12.2140577 17.1843055,12.3697538 17.1454109,12.4865258 L18.0399862,13.0703861 C18.3122482,13.2650062 18.3122482,13.3428542 17.962197,13.2650062 L16.950938,13.0314621 C16.8731489,13.1482341 16.8342543,13.3039302 16.7564652,13.4207022 L17.5732512,14.0824105 C17.8455133,14.2770306 17.8066187,14.3938026 17.4565675,14.2770306 L16.406414,13.7710184 L16.1730465,14.1213345 L16.9120435,14.8608908 C17.1454109,15.0944349 17.1065163,15.172283 16.7953597,15.0165869 L15.8618899,14.5494987 C15.7841008,14.6662708 15.7063116,14.7830428 15.5896279,14.8608908 L16.2508357,15.6782952 C16.4453086,15.9507633 16.406414,16.0286114 16.0952574,15.8339913 L15.2006822,15.250131 C15.0839984,15.3669031 15.0062093,15.4447511 14.8895256,15.5225991 L15.4340496,16.4178515 C15.6285225,16.7292437 15.5507333,16.7681677 15.2784713,16.5346236 L14.4616852,15.8729153 L14.1116341,16.1064594 L14.5394744,17.0795598 C14.6950527,17.3909519 14.6172635,17.429876 14.3838961,17.1963319 L13.6837937,16.4178515 C13.56711,16.4956996 13.4504263,16.5735476 13.294848,16.6513956 L13.6060046,17.6634201 C13.7226883,17.9748122 13.6448992,18.0137362 13.4115317,17.7412681 L12.7892185,16.8849397 C12.6725348,16.9238637 12.5169565,17.0017118 12.4002727,17.0406358 L12.5947456,18.0526602 C12.6725348,18.4029764 12.555851,18.4029764 12.4002727,18.1305083 L11.8946433,17.3131039 C11.7779595,17.3520279 11.6223812,17.3909519 11.5056975,17.429876 L11.5834867,18.4808244 C11.6223812,18.8311406 11.5056975,18.8311406 11.3890138,18.5197484 L10.9611735,17.546648 C10.8444897,17.585572 10.6889114,17.585572 10.5333331,17.624496 L10.455544,18.6754445 C10.455544,19.0257606 10.3388603,19.0257606 10.2610711,18.7143685 L10.0277037,17.6634201 C9.87212535,17.6634201 9.75544163,17.6634201 9.59986333,17.7023441 L9.40539045,18.7532925 C9.3276013,19.1036087 9.24981215,19.1036087 9.21091757,18.7532925 L9.05533927,17.7023441 C8.89976097,17.7023441 8.78307725,17.7023441 8.62749895,17.6634201 L8.31634234,18.6754445 C8.23855319,18.9868366 8.12186947,18.9868366 8.12186947,18.6365205 L8.08297489,17.585572 C7.92739659,17.546648 7.81071287,17.546648 7.69402914,17.507724 L7.22729424,18.4808244 C7.11061051,18.7922165 6.99392679,18.7922165 7.03282136,18.4419004 L7.11061051,17.3909519 C6.99392679,17.3520279 6.83834849,17.3131039 6.72166476,17.2741799 L6.17714071,18.2083563 C6.02156241,18.5197484 5.90487868,18.4808244 5.98266783,18.1305083 L6.17714071,17.0795598 C6.06045698,17.0406358 5.94377326,16.9627878 5.78819495,16.9238637 L5.12698718,17.7801921 C4.9325143,18.0526602 4.85472515,18.0137362 4.9325143,17.7023441 L5.28256548,16.6903196 C5.16588175,16.6124716 5.04919802,16.5346236 4.9325143,16.4956996 L4.19351737,17.2741799 C3.96014992,17.507724 3.88236077,17.4688 4.03793907,17.1574078 L4.50467397,16.1843074 C4.38799025,16.1064594 4.27130652,16.0286114 4.19351737,15.9118393 L3.37673129,16.4956996 C3.10446926,16.7292437 3.02668011,16.6513956 3.22115299,16.3789275 L3.76567704,15.4447511 C3.64899332,15.3669031 3.57120417,15.250131 3.49341502,15.172283 L2.59883979,15.7561432 C2.32657776,15.9507633 2.24878861,15.8729153 2.44326148,15.6004472 L3.10446926,14.7441188 C3.02668011,14.6273467 2.94889096,14.5494987 2.87110181,14.4327267 L1.89873743,14.8998149 C1.58758083,15.0555109 1.54868625,14.9776629 1.78205371,14.7441188 L2.55994521,13.9656385 C2.48215606,13.8488664 2.40436691,13.7320944 2.36547233,13.6153223 L1.35421338,13.9656385 C1.04305678,14.0824105 1.0041622,14.0045625 1.27642423,13.7710184 L2.13210488,13.1093101 C2.05431573,12.992538 2.01542116,12.875766 1.97652658,12.7589939 L0.8485839,12.992538 C0.498532723,13.0703861 0.459638148,12.992538 0.77079475,12.797918 L1.70426456,12.2529817 C1.66536998,12.1362097 1.6264754,11.9805136 1.58758083,11.8637416 L0.498532723,11.9805136 C0.148481546,12.0194376 0.148481546,11.9415896 0.459638148,11.7858935 L1.43200253,11.3188053 C1.39310795,11.2020333 1.39310795,11.0463372 1.35421338,10.9295651 L0.265165272,10.8906411 C-0.0848859055,10.8906411 -0.0848859055,10.7738691 0.226270696,10.696021 L1.27642423,10.3457049 C1.27642423,10.2289328 1.23752965,10.0732368 1.23752965,9.95646473 L0.148481546,9.80076866 C-0.201569631,9.76184464 -0.201569631,9.64507259 0.148481546,9.60614857 L1.23752965,9.41152849 L1.23752965,9.02228832 L0.187376121,8.7498202 C-0.123780481,8.67197217 -0.123780481,8.55520012 0.226270696,8.55520012 L1.3153188,8.47735209 C1.3153188,8.36058004 1.35421338,8.20488397 1.39310795,8.08811192 L0.381848997,7.69887175 C0.0706923955,7.5820997 0.0706923955,7.50425167 0.420743573,7.50425167 L1.50979168,7.54317568 C1.54868625,7.42640363 1.58758083,7.27070756 1.6264754,7.15393551 L0.654111024,6.6479233 C0.342954422,6.49222723 0.381848997,6.41437919 0.731900174,6.45330321 L1.82094828,6.6479233 C1.85984286,6.53115124 1.93763201,6.41437919 1.97652658,6.29760714 L1.08195135,5.67482287 C0.809689325,5.48020279 0.8485839,5.40235476 1.1597405,5.48020279 L2.20989403,5.79159492 C2.28768318,5.67482287 2.32657776,5.55805082 2.40436691,5.44127877 L1.58758083,4.70172245 C1.3153188,4.46817835 1.39310795,4.39033032 1.70426456,4.54602639 L2.71552351,4.97419057 C2.79331266,4.85741852 2.87110181,4.77957049 2.94889096,4.66279844 L2.20989403,3.80647007 C1.97652658,3.53400195 2.05431573,3.49507793 2.32657776,3.650774 L3.29894214,4.19571023 C3.37673129,4.07893818 3.49341502,4.00109015 3.57120417,3.8843181 L2.94889096,2.87229366 C2.75441809,2.59982554 2.83220724,2.52197751 3.10446926,2.7165976 L3.99904449,3.37830588 C4.07683364,3.30045785 4.19351737,3.22260981 4.3102011,3.14476178 L3.80457162,2.17166136 C3.64899332,1.86026922 3.72678247,1.82134521 3.96014992,2.05488931 L4.776936,2.83336965 C4.89361972,2.75552161 5.01030345,2.67767358 5.0880926,2.59982554 L4.69914685,1.54887709 C4.58246312,1.23748496 4.66025227,1.19856094 4.89361972,1.43210504 L5.59372208,2.28843341 C5.7104058,2.21058538 5.82708953,2.17166136 5.94377326,2.13273734 L5.67151123,1.04286487 C5.59372208,0.69254872 5.67151123,0.653624703 5.8659841,0.965016838 L6.44940273,1.89919324 L6.79945391,1.78242119 L6.68277018,0.69254872 C6.64387561,0.342232569 6.72166476,0.342232569 6.87724306,0.653624703 L7.34397796,1.66564914 C7.46066169,1.62672512 7.61623999,1.58780111 7.73292372,1.58780111 L7.73292372,0.459004619 C7.73292372,0.108688468 7.81071287,0.108688468 7.92739659,0.420080602 L8.31634234,1.47102906 C8.43302607,1.47102906 8.58860437,1.43210504 8.7052881,1.43210504 L8.82197182,0.342232569 C8.8608664,-0.00808358289 8.93865555,-0.00808358289 9.0164447,0.342232569 L9.28870673,1.35425701 L9.28870673,1.35425701 Z M8.96619518,15.6855295 C12.5459053,15.6855295 15.4473546,12.7756457 15.4473546,9.18552946 C15.4473546,5.59541318 12.5459053,2.68552946 8.96619518,2.68552946 C5.38648504,2.68552946 2.4473546,5.55762248 2.4473546,9.14773876 C2.4473546,12.737855 5.38648504,15.6855295 8.96619518,15.6855295 L8.96619518,15.6855295 Z" id="path-3_14_"></path>
                    </g>
                    <g id="Group" transform="translate(10.911063, 11.156854) rotate(8.000000) translate(-10.911063, -11.156854) translate(1.286063, 1.243061)" fill="#7F7F7F">
                        <path d="M9.28870673,1.35425701 L9.67765248,1.35425701 L9.9499145,0.264384535 C10.0277037,-0.0859316166 10.1054928,-0.0470075997 10.1443874,0.264384535 L10.2610711,1.35425701 C10.3777548,1.35425701 10.5333331,1.39318102 10.6500169,1.39318102 L11.0389626,0.342232569 C11.1556463,0.0308404339 11.2334355,0.0308404339 11.2334355,0.381156585 L11.1945409,1.47102906 C11.3112246,1.50995307 11.4668029,1.54887709 11.5834867,1.54887709 L12.0891161,0.57577667 C12.2446944,0.264384535 12.3224836,0.303308552 12.283589,0.653624703 L12.1280107,1.74349717 C12.2446944,1.78242119 12.4002727,1.82134521 12.5169565,1.89919324 L13.1003751,0.965016838 C13.294848,0.69254872 13.3726371,0.731472737 13.294848,1.04286487 L13.0225859,2.13273734 C13.1392697,2.21058538 13.2559534,2.24950939 13.3726371,2.32735743 L14.0727395,1.47102906 C14.3061069,1.19856094 14.3838961,1.23748496 14.2672124,1.58780111 L13.8782666,2.59982554 C13.9949503,2.67767358 14.1116341,2.75552161 14.1894232,2.83336965 L15.0062093,2.09381333 C15.2395767,1.86026922 15.3173659,1.89919324 15.1617876,2.21058538 L14.6172635,3.26153383 C14.7339473,3.33938186 14.8117364,3.4172299 14.9284201,3.53400195 L15.8229954,2.91121768 C16.0952574,2.7165976 16.1730465,2.75552161 15.9785737,3.06691375 L15.3562605,3.96216613 C15.4340496,4.04001417 15.5507333,4.15678622 15.6285225,4.27355827 L16.6008869,3.72862203 C16.9120435,3.57292597 16.950938,3.650774 16.7175706,3.8843181 L15.9785737,4.70172245 L16.2119411,5.05203861 L17.2232001,4.62387442 C17.5343567,4.50710237 17.5732512,4.5849504 17.3398838,4.77957049 L16.5230977,5.51912681 C16.6008869,5.63589886 16.6397814,5.75267091 16.7175706,5.86944296 L17.7677241,5.55805082 C18.0788807,5.48020279 18.1566699,5.55805082 17.8455133,5.75267091 L16.950938,6.37545518 C16.9898326,6.49222723 17.0676218,6.60899928 17.1065163,6.76469535 L18.1566699,6.60899928 C18.5067211,6.57007526 18.5067211,6.6479233 18.234459,6.80361936 L17.3009892,7.30963158 C17.3398838,7.42640363 17.3787784,7.5820997 17.4176729,7.69887175 L18.5067211,7.65994773 C18.8567722,7.65994773 18.8567722,7.73779577 18.5456156,7.85456782 L17.5343567,8.24380799 C17.5732512,8.36058004 17.5732512,8.5162761 17.5732512,8.63304815 L18.6234048,8.7498202 C18.973456,8.78874422 18.973456,8.86659225 18.6234048,8.94444029 L17.5732512,9.21690841 L17.5732512,9.64507259 L18.6234048,9.83969268 C18.973456,9.91754071 18.973456,9.99538874 18.6234048,10.0343128 L17.5732512,10.1900088 C17.5732512,10.3457049 17.5343567,10.4624769 17.5343567,10.618173 L18.5456156,10.9684892 C18.8567722,11.0852612 18.8567722,11.1631092 18.5067211,11.1631092 L17.4565675,11.1631092 C17.4176729,11.2798813 17.4176729,11.4355774 17.3787784,11.5523494 L18.3511428,12.0194376 C18.6622994,12.1751337 18.6234048,12.2529817 18.3122482,12.2140577 L17.2620946,12.0972857 C17.2232001,12.2140577 17.1843055,12.3697538 17.1454109,12.4865258 L18.0399862,13.0703861 C18.3122482,13.2650062 18.3122482,13.3428542 17.962197,13.2650062 L16.950938,13.0314621 C16.8731489,13.1482341 16.8342543,13.3039302 16.7564652,13.4207022 L17.5732512,14.0824105 C17.8455133,14.2770306 17.8066187,14.3938026 17.4565675,14.2770306 L16.406414,13.7710184 L16.1730465,14.1213345 L16.9120435,14.8608908 C17.1454109,15.0944349 17.1065163,15.172283 16.7953597,15.0165869 L15.8618899,14.5494987 C15.7841008,14.6662708 15.7063116,14.7830428 15.5896279,14.8608908 L16.2508357,15.6782952 C16.4453086,15.9507633 16.406414,16.0286114 16.0952574,15.8339913 L15.2006822,15.250131 C15.0839984,15.3669031 15.0062093,15.4447511 14.8895256,15.5225991 L15.4340496,16.4178515 C15.6285225,16.7292437 15.5507333,16.7681677 15.2784713,16.5346236 L14.4616852,15.8729153 L14.1116341,16.1064594 L14.5394744,17.0795598 C14.6950527,17.3909519 14.6172635,17.429876 14.3838961,17.1963319 L13.6837937,16.4178515 C13.56711,16.4956996 13.4504263,16.5735476 13.294848,16.6513956 L13.6060046,17.6634201 C13.7226883,17.9748122 13.6448992,18.0137362 13.4115317,17.7412681 L12.7892185,16.8849397 C12.6725348,16.9238637 12.5169565,17.0017118 12.4002727,17.0406358 L12.5947456,18.0526602 C12.6725348,18.4029764 12.555851,18.4029764 12.4002727,18.1305083 L11.8946433,17.3131039 C11.7779595,17.3520279 11.6223812,17.3909519 11.5056975,17.429876 L11.5834867,18.4808244 C11.6223812,18.8311406 11.5056975,18.8311406 11.3890138,18.5197484 L10.9611735,17.546648 C10.8444897,17.585572 10.6889114,17.585572 10.5333331,17.624496 L10.455544,18.6754445 C10.455544,19.0257606 10.3388603,19.0257606 10.2610711,18.7143685 L10.0277037,17.6634201 C9.87212535,17.6634201 9.75544163,17.6634201 9.59986333,17.7023441 L9.40539045,18.7532925 C9.3276013,19.1036087 9.24981215,19.1036087 9.21091757,18.7532925 L9.05533927,17.7023441 C8.89976097,17.7023441 8.78307725,17.7023441 8.62749895,17.6634201 L8.31634234,18.6754445 C8.23855319,18.9868366 8.12186947,18.9868366 8.12186947,18.6365205 L8.08297489,17.585572 C7.92739659,17.546648 7.81071287,17.546648 7.69402914,17.507724 L7.22729424,18.4808244 C7.11061051,18.7922165 6.99392679,18.7922165 7.03282136,18.4419004 L7.11061051,17.3909519 C6.99392679,17.3520279 6.83834849,17.3131039 6.72166476,17.2741799 L6.17714071,18.2083563 C6.02156241,18.5197484 5.90487868,18.4808244 5.98266783,18.1305083 L6.17714071,17.0795598 C6.06045698,17.0406358 5.94377326,16.9627878 5.78819495,16.9238637 L5.12698718,17.7801921 C4.9325143,18.0526602 4.85472515,18.0137362 4.9325143,17.7023441 L5.28256548,16.6903196 C5.16588175,16.6124716 5.04919802,16.5346236 4.9325143,16.4956996 L4.19351737,17.2741799 C3.96014992,17.507724 3.88236077,17.4688 4.03793907,17.1574078 L4.50467397,16.1843074 C4.38799025,16.1064594 4.27130652,16.0286114 4.19351737,15.9118393 L3.37673129,16.4956996 C3.10446926,16.7292437 3.02668011,16.6513956 3.22115299,16.3789275 L3.76567704,15.4447511 C3.64899332,15.3669031 3.57120417,15.250131 3.49341502,15.172283 L2.59883979,15.7561432 C2.32657776,15.9507633 2.24878861,15.8729153 2.44326148,15.6004472 L3.10446926,14.7441188 C3.02668011,14.6273467 2.94889096,14.5494987 2.87110181,14.4327267 L1.89873743,14.8998149 C1.58758083,15.0555109 1.54868625,14.9776629 1.78205371,14.7441188 L2.55994521,13.9656385 C2.48215606,13.8488664 2.40436691,13.7320944 2.36547233,13.6153223 L1.35421338,13.9656385 C1.04305678,14.0824105 1.0041622,14.0045625 1.27642423,13.7710184 L2.13210488,13.1093101 C2.05431573,12.992538 2.01542116,12.875766 1.97652658,12.7589939 L0.8485839,12.992538 C0.498532723,13.0703861 0.459638148,12.992538 0.77079475,12.797918 L1.70426456,12.2529817 C1.66536998,12.1362097 1.6264754,11.9805136 1.58758083,11.8637416 L0.498532723,11.9805136 C0.148481546,12.0194376 0.148481546,11.9415896 0.459638148,11.7858935 L1.43200253,11.3188053 C1.39310795,11.2020333 1.39310795,11.0463372 1.35421338,10.9295651 L0.265165272,10.8906411 C-0.0848859055,10.8906411 -0.0848859055,10.7738691 0.226270696,10.696021 L1.27642423,10.3457049 C1.27642423,10.2289328 1.23752965,10.0732368 1.23752965,9.95646473 L0.148481546,9.80076866 C-0.201569631,9.76184464 -0.201569631,9.64507259 0.148481546,9.60614857 L1.23752965,9.41152849 L1.23752965,9.02228832 L0.187376121,8.7498202 C-0.123780481,8.67197217 -0.123780481,8.55520012 0.226270696,8.55520012 L1.3153188,8.47735209 C1.3153188,8.36058004 1.35421338,8.20488397 1.39310795,8.08811192 L0.381848997,7.69887175 C0.0706923955,7.5820997 0.0706923955,7.50425167 0.420743573,7.50425167 L1.50979168,7.54317568 C1.54868625,7.42640363 1.58758083,7.27070756 1.6264754,7.15393551 L0.654111024,6.6479233 C0.342954422,6.49222723 0.381848997,6.41437919 0.731900174,6.45330321 L1.82094828,6.6479233 C1.85984286,6.53115124 1.93763201,6.41437919 1.97652658,6.29760714 L1.08195135,5.67482287 C0.809689325,5.48020279 0.8485839,5.40235476 1.1597405,5.48020279 L2.20989403,5.79159492 C2.28768318,5.67482287 2.32657776,5.55805082 2.40436691,5.44127877 L1.58758083,4.70172245 C1.3153188,4.46817835 1.39310795,4.39033032 1.70426456,4.54602639 L2.71552351,4.97419057 C2.79331266,4.85741852 2.87110181,4.77957049 2.94889096,4.66279844 L2.20989403,3.80647007 C1.97652658,3.53400195 2.05431573,3.49507793 2.32657776,3.650774 L3.29894214,4.19571023 C3.37673129,4.07893818 3.49341502,4.00109015 3.57120417,3.8843181 L2.94889096,2.87229366 C2.75441809,2.59982554 2.83220724,2.52197751 3.10446926,2.7165976 L3.99904449,3.37830588 C4.07683364,3.30045785 4.19351737,3.22260981 4.3102011,3.14476178 L3.80457162,2.17166136 C3.64899332,1.86026922 3.72678247,1.82134521 3.96014992,2.05488931 L4.776936,2.83336965 C4.89361972,2.75552161 5.01030345,2.67767358 5.0880926,2.59982554 L4.69914685,1.54887709 C4.58246312,1.23748496 4.66025227,1.19856094 4.89361972,1.43210504 L5.59372208,2.28843341 C5.7104058,2.21058538 5.82708953,2.17166136 5.94377326,2.13273734 L5.67151123,1.04286487 C5.59372208,0.69254872 5.67151123,0.653624703 5.8659841,0.965016838 L6.44940273,1.89919324 L6.79945391,1.78242119 L6.68277018,0.69254872 C6.64387561,0.342232569 6.72166476,0.342232569 6.87724306,0.653624703 L7.34397796,1.66564914 C7.46066169,1.62672512 7.61623999,1.58780111 7.73292372,1.58780111 L7.73292372,0.459004619 C7.73292372,0.108688468 7.81071287,0.108688468 7.92739659,0.420080602 L8.31634234,1.47102906 C8.43302607,1.47102906 8.58860437,1.43210504 8.7052881,1.43210504 L8.82197182,0.342232569 C8.8608664,-0.00808358289 8.93865555,-0.00808358289 9.0164447,0.342232569 L9.28870673,1.35425701 L9.28870673,1.35425701 Z M8.96619518,15.6855295 C12.5459053,15.6855295 15.4473546,12.7756457 15.4473546,9.18552946 C15.4473546,5.59541318 12.5459053,2.68552946 8.96619518,2.68552946 C5.38648504,2.68552946 2.4473546,5.55762248 2.4473546,9.14773876 C2.4473546,12.737855 5.38648504,15.6855295 8.96619518,15.6855295 L8.96619518,15.6855295 Z" id="path-3_4_"></path>
                    </g>
                    <g id="Group" transform="translate(10.911063, 11.156854) rotate(8.000000) translate(-10.911063, -11.156854) translate(1.286063, 1.243061)" fill="#777777">
                        <path d="M9.28870673,1.35425701 L9.67765248,1.35425701 L9.9499145,0.264384535 C10.0277037,-0.0859316166 10.1054928,-0.0470075997 10.1443874,0.264384535 L10.2610711,1.35425701 C10.3777548,1.35425701 10.5333331,1.39318102 10.6500169,1.39318102 L11.0389626,0.342232569 C11.1556463,0.0308404339 11.2334355,0.0308404339 11.2334355,0.381156585 L11.1945409,1.47102906 C11.3112246,1.50995307 11.4668029,1.54887709 11.5834867,1.54887709 L12.0891161,0.57577667 C12.2446944,0.264384535 12.3224836,0.303308552 12.283589,0.653624703 L12.1280107,1.74349717 C12.2446944,1.78242119 12.4002727,1.82134521 12.5169565,1.89919324 L13.1003751,0.965016838 C13.294848,0.69254872 13.3726371,0.731472737 13.294848,1.04286487 L13.0225859,2.13273734 C13.1392697,2.21058538 13.2559534,2.24950939 13.3726371,2.32735743 L14.0727395,1.47102906 C14.3061069,1.19856094 14.3838961,1.23748496 14.2672124,1.58780111 L13.8782666,2.59982554 C13.9949503,2.67767358 14.1116341,2.75552161 14.1894232,2.83336965 L15.0062093,2.09381333 C15.2395767,1.86026922 15.3173659,1.89919324 15.1617876,2.21058538 L14.6172635,3.26153383 C14.7339473,3.33938186 14.8117364,3.4172299 14.9284201,3.53400195 L15.8229954,2.91121768 C16.0952574,2.7165976 16.1730465,2.75552161 15.9785737,3.06691375 L15.3562605,3.96216613 C15.4340496,4.04001417 15.5507333,4.15678622 15.6285225,4.27355827 L16.6008869,3.72862203 C16.9120435,3.57292597 16.950938,3.650774 16.7175706,3.8843181 L15.9785737,4.70172245 L16.2119411,5.05203861 L17.2232001,4.62387442 C17.5343567,4.50710237 17.5732512,4.5849504 17.3398838,4.77957049 L16.5230977,5.51912681 C16.6008869,5.63589886 16.6397814,5.75267091 16.7175706,5.86944296 L17.7677241,5.55805082 C18.0788807,5.48020279 18.1566699,5.55805082 17.8455133,5.75267091 L16.950938,6.37545518 C16.9898326,6.49222723 17.0676218,6.60899928 17.1065163,6.76469535 L18.1566699,6.60899928 C18.5067211,6.57007526 18.5067211,6.6479233 18.234459,6.80361936 L17.3009892,7.30963158 C17.3398838,7.42640363 17.3787784,7.5820997 17.4176729,7.69887175 L18.5067211,7.65994773 C18.8567722,7.65994773 18.8567722,7.73779577 18.5456156,7.85456782 L17.5343567,8.24380799 C17.5732512,8.36058004 17.5732512,8.5162761 17.5732512,8.63304815 L18.6234048,8.7498202 C18.973456,8.78874422 18.973456,8.86659225 18.6234048,8.94444029 L17.5732512,9.21690841 L17.5732512,9.64507259 L18.6234048,9.83969268 C18.973456,9.91754071 18.973456,9.99538874 18.6234048,10.0343128 L17.5732512,10.1900088 C17.5732512,10.3457049 17.5343567,10.4624769 17.5343567,10.618173 L18.5456156,10.9684892 C18.8567722,11.0852612 18.8567722,11.1631092 18.5067211,11.1631092 L17.4565675,11.1631092 C17.4176729,11.2798813 17.4176729,11.4355774 17.3787784,11.5523494 L18.3511428,12.0194376 C18.6622994,12.1751337 18.6234048,12.2529817 18.3122482,12.2140577 L17.2620946,12.0972857 C17.2232001,12.2140577 17.1843055,12.3697538 17.1454109,12.4865258 L18.0399862,13.0703861 C18.3122482,13.2650062 18.3122482,13.3428542 17.962197,13.2650062 L16.950938,13.0314621 C16.8731489,13.1482341 16.8342543,13.3039302 16.7564652,13.4207022 L17.5732512,14.0824105 C17.8455133,14.2770306 17.8066187,14.3938026 17.4565675,14.2770306 L16.406414,13.7710184 L16.1730465,14.1213345 L16.9120435,14.8608908 C17.1454109,15.0944349 17.1065163,15.172283 16.7953597,15.0165869 L15.8618899,14.5494987 C15.7841008,14.6662708 15.7063116,14.7830428 15.5896279,14.8608908 L16.2508357,15.6782952 C16.4453086,15.9507633 16.406414,16.0286114 16.0952574,15.8339913 L15.2006822,15.250131 C15.0839984,15.3669031 15.0062093,15.4447511 14.8895256,15.5225991 L15.4340496,16.4178515 C15.6285225,16.7292437 15.5507333,16.7681677 15.2784713,16.5346236 L14.4616852,15.8729153 L14.1116341,16.1064594 L14.5394744,17.0795598 C14.6950527,17.3909519 14.6172635,17.429876 14.3838961,17.1963319 L13.6837937,16.4178515 C13.56711,16.4956996 13.4504263,16.5735476 13.294848,16.6513956 L13.6060046,17.6634201 C13.7226883,17.9748122 13.6448992,18.0137362 13.4115317,17.7412681 L12.7892185,16.8849397 C12.6725348,16.9238637 12.5169565,17.0017118 12.4002727,17.0406358 L12.5947456,18.0526602 C12.6725348,18.4029764 12.555851,18.4029764 12.4002727,18.1305083 L11.8946433,17.3131039 C11.7779595,17.3520279 11.6223812,17.3909519 11.5056975,17.429876 L11.5834867,18.4808244 C11.6223812,18.8311406 11.5056975,18.8311406 11.3890138,18.5197484 L10.9611735,17.546648 C10.8444897,17.585572 10.6889114,17.585572 10.5333331,17.624496 L10.455544,18.6754445 C10.455544,19.0257606 10.3388603,19.0257606 10.2610711,18.7143685 L10.0277037,17.6634201 C9.87212535,17.6634201 9.75544163,17.6634201 9.59986333,17.7023441 L9.40539045,18.7532925 C9.3276013,19.1036087 9.24981215,19.1036087 9.21091757,18.7532925 L9.05533927,17.7023441 C8.89976097,17.7023441 8.78307725,17.7023441 8.62749895,17.6634201 L8.31634234,18.6754445 C8.23855319,18.9868366 8.12186947,18.9868366 8.12186947,18.6365205 L8.08297489,17.585572 C7.92739659,17.546648 7.81071287,17.546648 7.69402914,17.507724 L7.22729424,18.4808244 C7.11061051,18.7922165 6.99392679,18.7922165 7.03282136,18.4419004 L7.11061051,17.3909519 C6.99392679,17.3520279 6.83834849,17.3131039 6.72166476,17.2741799 L6.17714071,18.2083563 C6.02156241,18.5197484 5.90487868,18.4808244 5.98266783,18.1305083 L6.17714071,17.0795598 C6.06045698,17.0406358 5.94377326,16.9627878 5.78819495,16.9238637 L5.12698718,17.7801921 C4.9325143,18.0526602 4.85472515,18.0137362 4.9325143,17.7023441 L5.28256548,16.6903196 C5.16588175,16.6124716 5.04919802,16.5346236 4.9325143,16.4956996 L4.19351737,17.2741799 C3.96014992,17.507724 3.88236077,17.4688 4.03793907,17.1574078 L4.50467397,16.1843074 C4.38799025,16.1064594 4.27130652,16.0286114 4.19351737,15.9118393 L3.37673129,16.4956996 C3.10446926,16.7292437 3.02668011,16.6513956 3.22115299,16.3789275 L3.76567704,15.4447511 C3.64899332,15.3669031 3.57120417,15.250131 3.49341502,15.172283 L2.59883979,15.7561432 C2.32657776,15.9507633 2.24878861,15.8729153 2.44326148,15.6004472 L3.10446926,14.7441188 C3.02668011,14.6273467 2.94889096,14.5494987 2.87110181,14.4327267 L1.89873743,14.8998149 C1.58758083,15.0555109 1.54868625,14.9776629 1.78205371,14.7441188 L2.55994521,13.9656385 C2.48215606,13.8488664 2.40436691,13.7320944 2.36547233,13.6153223 L1.35421338,13.9656385 C1.04305678,14.0824105 1.0041622,14.0045625 1.27642423,13.7710184 L2.13210488,13.1093101 C2.05431573,12.992538 2.01542116,12.875766 1.97652658,12.7589939 L0.8485839,12.992538 C0.498532723,13.0703861 0.459638148,12.992538 0.77079475,12.797918 L1.70426456,12.2529817 C1.66536998,12.1362097 1.6264754,11.9805136 1.58758083,11.8637416 L0.498532723,11.9805136 C0.148481546,12.0194376 0.148481546,11.9415896 0.459638148,11.7858935 L1.43200253,11.3188053 C1.39310795,11.2020333 1.39310795,11.0463372 1.35421338,10.9295651 L0.265165272,10.8906411 C-0.0848859055,10.8906411 -0.0848859055,10.7738691 0.226270696,10.696021 L1.27642423,10.3457049 C1.27642423,10.2289328 1.23752965,10.0732368 1.23752965,9.95646473 L0.148481546,9.80076866 C-0.201569631,9.76184464 -0.201569631,9.64507259 0.148481546,9.60614857 L1.23752965,9.41152849 L1.23752965,9.02228832 L0.187376121,8.7498202 C-0.123780481,8.67197217 -0.123780481,8.55520012 0.226270696,8.55520012 L1.3153188,8.47735209 C1.3153188,8.36058004 1.35421338,8.20488397 1.39310795,8.08811192 L0.381848997,7.69887175 C0.0706923955,7.5820997 0.0706923955,7.50425167 0.420743573,7.50425167 L1.50979168,7.54317568 C1.54868625,7.42640363 1.58758083,7.27070756 1.6264754,7.15393551 L0.654111024,6.6479233 C0.342954422,6.49222723 0.381848997,6.41437919 0.731900174,6.45330321 L1.82094828,6.6479233 C1.85984286,6.53115124 1.93763201,6.41437919 1.97652658,6.29760714 L1.08195135,5.67482287 C0.809689325,5.48020279 0.8485839,5.40235476 1.1597405,5.48020279 L2.20989403,5.79159492 C2.28768318,5.67482287 2.32657776,5.55805082 2.40436691,5.44127877 L1.58758083,4.70172245 C1.3153188,4.46817835 1.39310795,4.39033032 1.70426456,4.54602639 L2.71552351,4.97419057 C2.79331266,4.85741852 2.87110181,4.77957049 2.94889096,4.66279844 L2.20989403,3.80647007 C1.97652658,3.53400195 2.05431573,3.49507793 2.32657776,3.650774 L3.29894214,4.19571023 C3.37673129,4.07893818 3.49341502,4.00109015 3.57120417,3.8843181 L2.94889096,2.87229366 C2.75441809,2.59982554 2.83220724,2.52197751 3.10446926,2.7165976 L3.99904449,3.37830588 C4.07683364,3.30045785 4.19351737,3.22260981 4.3102011,3.14476178 L3.80457162,2.17166136 C3.64899332,1.86026922 3.72678247,1.82134521 3.96014992,2.05488931 L4.776936,2.83336965 C4.89361972,2.75552161 5.01030345,2.67767358 5.0880926,2.59982554 L4.69914685,1.54887709 C4.58246312,1.23748496 4.66025227,1.19856094 4.89361972,1.43210504 L5.59372208,2.28843341 C5.7104058,2.21058538 5.82708953,2.17166136 5.94377326,2.13273734 L5.67151123,1.04286487 C5.59372208,0.69254872 5.67151123,0.653624703 5.8659841,0.965016838 L6.44940273,1.89919324 L6.79945391,1.78242119 L6.68277018,0.69254872 C6.64387561,0.342232569 6.72166476,0.342232569 6.87724306,0.653624703 L7.34397796,1.66564914 C7.46066169,1.62672512 7.61623999,1.58780111 7.73292372,1.58780111 L7.73292372,0.459004619 C7.73292372,0.108688468 7.81071287,0.108688468 7.92739659,0.420080602 L8.31634234,1.47102906 C8.43302607,1.47102906 8.58860437,1.43210504 8.7052881,1.43210504 L8.82197182,0.342232569 C8.8608664,-0.00808358289 8.93865555,-0.00808358289 9.0164447,0.342232569 L9.28870673,1.35425701 L9.28870673,1.35425701 Z M8.96619518,15.6855295 C12.5459053,15.6855295 15.4473546,12.7756457 15.4473546,9.18552946 C15.4473546,5.59541318 12.5459053,2.68552946 8.96619518,2.68552946 C5.38648504,2.68552946 2.4473546,5.55762248 2.4473546,9.14773876 C2.4473546,12.737855 5.38648504,15.6855295 8.96619518,15.6855295 L8.96619518,15.6855295 Z" id="path-3_15_"></path>
                    </g>
                </g>
                <g id="Shape_1_" transform="translate(3.000000, 3.000000)">
                    <path d="M23.5952025,15 L15.9290217,15 C15.2868285,15 14.44395,15.4261103 14.1228534,16.0071699 L10.1894204,22.5925115 C9.74791257,23.289783 10.1091462,24.1420037 10.9520247,24.5293767 C12.196274,25.1879109 15.4473768,25.1491736 17.9358753,24.4519021 C19.8624548,23.793368 21.5080747,22.6312488 22.792461,21.1592313 C24.4782181,19.1061542 25,17.0143398 25,16.3945429 C25,15.6972715 24.438081,15 23.5952025,15 L23.5952025,15 Z" id="Path"></path>
                    <circle id="Oval" cx="14.5" cy="14.5" r="1"></circle>
                    <path d="M27.6226676,14.716955 C28.1257775,14.6394464 28.1257775,14.5231834 27.6226676,14.4069204 L26.1907395,14.1356401 L26.1907395,14.0193772 L26.1907395,13.4380623 L27.5839668,13.0892734 C28.0870767,12.9730104 28.048376,12.8179931 27.5452661,12.7792388 L26.1133379,12.6629758 C26.0746372,12.4304498 26.0746372,12.2366782 26.0359364,12.0041522 L27.390463,11.500346 C27.8548721,11.3065744 27.8548721,11.1903114 27.3517623,11.1903114 L25.9198341,11.2290657 C25.8811334,10.9965398 25.8037319,10.8027682 25.7650311,10.5702422 L27.0421562,9.91141869 C27.5065653,9.67889273 27.4291638,9.56262976 26.9647547,9.64013841 L25.5328265,9.87266436 C25.455425,9.67889273 25.3780235,9.44636678 25.300622,9.25259516 L26.5003455,8.43875433 C26.9260539,8.12871972 26.8486524,8.01245675 26.3842433,8.16747405 L24.9910159,8.5550173 C24.8749136,8.36124567 24.7975121,8.16747405 24.6814098,7.97370242 L25.7650311,7.00484429 C26.1520387,6.65605536 26.0746372,6.53979239 25.6102281,6.73356401 L24.2944022,7.27612457 C24.1782999,7.08235294 24.0234969,6.88858131 23.9073946,6.73356401 L24.8749136,5.64844291 C25.2232205,5.26089965 25.1458189,5.183391 24.6814098,5.41591696 L23.3268832,6.11349481 C23.1720802,5.95847751 23.0559779,5.76470588 22.9011748,5.60968858 L23.7525916,4.4083045 C24.0621977,3.98200692 23.9460954,3.90449827 23.520387,4.17577855 L22.3593642,5.0283737 C22.2045612,4.8733564 22.0497581,4.7183391 21.8562543,4.60207612 L22.552868,3.32318339 C22.7850726,2.85813149 22.6689703,2.78062284 22.3206634,3.12941176 L21.2757429,4.0982699 C21.0822391,3.98200692 20.9274361,3.82698962 20.7339323,3.71072664 L21.2757429,2.35432526 C21.4692467,1.88927336 21.3531444,1.81176471 21.0048376,2.19930796 L20.0760194,3.28442907 C19.8825155,3.16816609 19.6890117,3.09065744 19.4955079,2.97439446 L19.8438148,1.57923875 C19.9599171,1.07543253 19.8438148,1.0366782 19.5729095,1.46297578 L18.7988943,2.66435986 C18.6053905,2.58685121 18.3731859,2.50934256 18.1796821,2.43183391 L18.3731859,0.997923875 C18.4505874,0.494117647 18.3344851,0.455363322 18.1022806,0.920415225 L17.4443677,2.19930796 C17.2508639,2.12179931 17.0186593,2.08304498 16.7864547,2.04429066 L16.8251555,0.610380623 C16.8251555,0.106574394 16.7090532,0.0678200692 16.5155494,0.571626298 L16.0124395,1.92802768 C15.780235,1.88927336 15.5867312,1.85051903 15.3545266,1.85051903 L15.122322,0.455363322 C15.0836213,-0.0484429066 14.9288182,-0.0484429066 14.812716,0.416608997 L14.4644091,1.81176471 L13.8064962,1.81176471 L13.4968901,0.377854671 C13.3807878,-0.125951557 13.2646856,-0.125951557 13.187284,0.377854671 L13.032481,1.81176471 C12.8002764,1.81176471 12.6067726,1.85051903 12.3745681,1.88927336 L11.8714582,0.532871972 C11.7166551,0.0678200692 11.5618521,0.0678200692 11.5618521,0.571626298 L11.6005529,2.00553633 C11.3683483,2.04429066 11.1748445,2.08304498 10.9426399,2.16055363 L10.3234278,0.842906574 C10.0912232,0.377854671 9.97512094,0.416608997 10.0138217,0.920415225 L10.1686247,2.35432526 C9.97512094,2.43183391 9.74291638,2.50934256 9.54941258,2.58685121 L8.77539737,1.38546713 C8.50449205,0.95916955 8.38838977,0.997923875 8.50449205,1.5017301 L8.85279889,2.89688581 C8.65929509,2.97439446 8.46579129,3.09065744 8.27228749,3.20692042 L7.34346925,2.08304498 C7.03386317,1.69550173 6.91776088,1.77301038 7.07256393,2.23806228 L7.57567381,3.59446367 C7.38217001,3.71072664 7.18866621,3.82698962 7.03386317,3.9432526 L5.98894264,2.93564014 C5.60193504,2.58685121 5.52453352,2.66435986 5.75673808,3.12941176 L6.414651,4.4083045 C6.25984796,4.5633218 6.06634416,4.67958478 5.91154112,4.83460208 L4.75051831,3.98200692 C4.32480995,3.67197232 4.24740843,3.78823529 4.51831375,4.17577855 L5.33102972,5.37716263 C5.17622668,5.53217993 5.02142364,5.68719723 4.86662059,5.88096886 L3.62819627,5.14463668 C3.20248791,4.8733564 3.08638563,4.98961938 3.43469247,5.37716263 L4.36351071,6.46228374 C4.24740843,6.61730104 4.09260539,6.81107266 3.97650311,7.00484429 L2.66067726,6.42352941 C2.19626814,6.22975779 2.11886662,6.34602076 2.50587422,6.69480969 L3.58949551,7.66366782 C3.47339323,7.85743945 3.35729095,8.05121107 3.27988943,8.2449827 L1.88666206,7.85743945 C1.38355218,7.70242215 1.34485142,7.85743945 1.77055978,8.12871972 L2.93158258,8.94256055 C2.85418106,9.13633218 2.73807878,9.33010381 2.66067726,9.56262976 L1.22874914,9.33010381 C0.725639254,9.25259516 0.686938493,9.36885813 1.11264686,9.60138408 L2.38977194,10.2989619 C2.31237042,10.4927336 2.27366966,10.7252595 2.19626814,10.9190311 L0.764340014,10.8802768 C0.261230131,10.8802768 0.222529371,10.9965398 0.686938493,11.1903114 L2.0414651,11.6941176 C2.00276434,11.9266436 1.96406358,12.1204152 1.92536282,12.3529412 L0.493434692,12.5467128 C-0.00967519005,12.5854671 -0.00967519005,12.7017301 0.454733932,12.8567474 L1.8479613,13.2442907 C1.8479613,13.4768166 1.80926054,13.6705882 1.80926054,13.9031142 L0.377332412,14.1743945 C-0.125777471,14.2519031 -0.125777471,14.4069204 0.377332412,14.4844291 L1.80926054,14.6782007 C1.80926054,14.9107266 1.8479613,15.1044983 1.8479613,15.3370242 L0.454733932,15.7633218 C-0.0483759502,15.9183391 -0.00967519005,16.0346021 0.493434692,16.0733564 L1.92536282,16.1121107 C1.96406358,16.3446367 2.00276434,16.5384083 2.0414651,16.7709343 L0.725639254,17.3910035 C0.261230131,17.6235294 0.299930891,17.7397924 0.803040774,17.7010381 L2.2349689,17.5460208 C2.31237042,17.7785467 2.35107118,17.9723183 2.4284727,18.2048443 L1.19004838,18.9411765 C0.764340014,19.2124567 0.803040774,19.3287197 1.30615066,19.2124567 L2.73807878,18.9024221 C2.8154803,19.0961938 2.93158258,19.2899654 3.00898411,19.5224913 L1.88666206,20.4138408 C1.49965446,20.7238754 1.53835522,20.8401384 2.0414651,20.6851211 L3.39599171,20.2200692 L3.74429855,20.8013841 L2.8154803,21.7314879 C2.46717346,22.0802768 2.54457498,22.1965398 2.97028334,21.9640138 L4.28610919,21.3439446 C4.40221147,21.5377163 4.55701451,21.6927336 4.71181755,21.8477509 L3.82170007,22.9716263 C3.51209399,23.3591696 3.58949551,23.4754325 4.01520387,23.2041522 L5.21492744,22.4290657 L5.67933656,22.8941176 L4.94402211,24.1342561 C4.67311679,24.5605536 4.78921907,24.6380623 5.17622668,24.3280277 L6.29854872,23.3979239 C6.45335176,23.5529412 6.64685556,23.6692042 6.84035936,23.8242215 L6.2211472,25.1418685 C5.98894264,25.6069204 6.10504492,25.6844291 6.45335176,25.2968858 L7.45957153,24.250519 L8.04008293,24.599308 L7.57567381,25.9557093 C7.42087077,26.4207612 7.53697305,26.4982699 7.84657913,26.1107266 L8.73669661,24.9480969 C8.93020041,25.0256055 9.12370422,25.1418685 9.35590878,25.2193772 L9.08500346,26.6532872 C8.96890117,27.1570934 9.12370422,27.1958478 9.35590878,26.7695502 L10.0912232,25.5294118 C10.284727,25.6069204 10.5169316,25.6844291 10.7104354,25.7231834 L10.5556323,27.1958478 C10.5169316,27.699654 10.6330339,27.7384083 10.8652384,27.2733564 L11.4457498,25.9557093 C11.6779544,25.9944637 11.8714582,26.033218 12.1036628,26.0719723 L12.1810643,27.5058824 C12.219765,28.0096886 12.3358673,28.0096886 12.4906704,27.5446367 L12.877678,26.149481 C13.1098825,26.1882353 13.3420871,26.1882353 13.5355909,26.1882353 L13.7677954,27.6221453 C13.845197,28.1259516 13.9612992,28.1259516 14.0774015,27.6221453 L14.3483068,26.1882353 C14.5805114,26.1882353 14.7740152,26.1882353 15.0062198,26.149481 L15.3932274,27.5446367 C15.5480304,28.0484429 15.6641327,28.0096886 15.7028334,27.5058824 L15.780235,26.0719723 C16.0124395,26.033218 16.2059433,25.9944637 16.4381479,25.9557093 L16.9799585,27.2733564 C17.1734623,27.7384083 17.2895646,27.699654 17.2895646,27.1958478 L17.1347616,25.8394464 C17.3669661,25.800692 17.5604699,25.7231834 17.7539737,25.6456747 L18.4892882,26.8858131 C18.7601935,27.3121107 18.8762958,27.2733564 18.7601935,26.7695502 L18.4892882,25.3356401 C18.682792,25.2581315 18.9149965,25.1806228 19.1085003,25.0643599 L19.9599171,26.2269896 C20.2695232,26.6532872 20.3856254,26.5757785 20.2308224,26.0719723 L19.8438148,24.7543253 L20.4243262,24.4055363 L21.3918452,25.4519031 C21.740152,25.8394464 21.8562543,25.7619377 21.6627505,25.2968858 L21.0822391,23.9792388 C21.2757429,23.8629758 21.430546,23.7079585 21.6240498,23.5916955 L22.7463718,24.5217993 C23.1333794,24.8318339 23.2494817,24.7543253 22.9785764,24.3280277 L22.2432619,23.0878893 L22.707671,22.6228374 L23.9073946,23.3979239 C24.333103,23.6692042 24.4105045,23.5916955 24.1008984,23.1653979 L23.2107809,22.0415225 C23.365584,21.8865052 23.4816862,21.6927336 23.6364893,21.5377163 L24.9523151,22.1965398 C25.4167243,22.4290657 25.4941258,22.3128028 25.1458189,21.9640138 L24.1008984,20.9176471 C24.2170007,20.7238754 24.333103,20.5688581 24.4492053,20.3750865 L25.8037319,20.8401384 C26.268141,20.9951557 26.3455425,20.8788927 25.9585349,20.5688581 L24.8362129,19.6775087 C24.9523151,19.483737 25.0297167,19.2899654 25.1458189,19.0574394 L26.5390463,19.367474 C27.0421562,19.483737 27.0808569,19.367474 26.6551486,19.0961938 L25.4167243,18.3211073 C25.4941258,18.1273356 25.5715273,17.8948097 25.6489288,17.7010381 L27.0808569,17.8560554 C27.5839668,17.8948097 27.6226676,17.7785467 27.1582585,17.5460208 L25.8424326,16.9259516 C25.8811334,16.6934256 25.9585349,16.499654 25.9972357,16.267128 L27.4291638,16.2283737 C27.9322737,16.2283737 27.9709744,16.0733564 27.4678645,15.9183391 L26.1133379,15.5695502 C26.1520387,15.3370242 26.1520387,15.1432526 26.1907395,14.9107266 L27.6226676,14.716955 L27.6226676,14.716955 Z M8.88281156,21.3839253 C8.4826203,22.0675737 7.44212302,22.1435346 6.801817,21.8017104 C6.36160661,21.5738276 5.32110932,20.624316 4.36065029,19.1430778 C3.48022952,17.6238592 3,15.9147383 3,14.0536955 C3,10.9392974 4.40066942,8.16672339 6.68175962,6.22971967 C7.40210389,5.84991502 8.40258205,5.92587595 8.80277331,6.57154385 L12.7646668,13.0282229 C13.0848198,13.5599495 13.0848198,14.585422 12.7246477,15.1171485 L8.88281156,21.3839253 Z M21.9372084,21.1592313 C20.7370388,22.6312488 19.1993214,23.793368 17.399067,24.4519021 C15.0737383,25.1491736 12.0358088,25.1879109 10.8731445,24.5293767 C10.0855332,24.1420037 9.78549076,23.289783 10.1605438,22.5925115 L13.8360633,16.0071699 C14.1361057,15.4648476 14.9237171,15 15.5238019,15 L22.6873145,15 C23.4749258,15 24,15.6972715 24,16.3945429 C24,17.0143398 23.5124311,19.1448915 21.9372084,21.1592313 Z M13,13.5 C13,13.2333333 13.2333333,13 13.5,13 C13.7666667,13 14,13.2333333 14,13.5 C14,13.7666667 13.7666667,14 13.5,14 C13.2333333,14 13,13.7666667 13,13.5 Z M23.67443,13 L15.7201006,13 C15.0439826,12.96139 14.2485497,12.4208494 13.9303765,11.8416988 L10.1520701,5.47104247 C9.75435364,4.77606178 10.1918418,4.003861 10.8281881,3.65637066 C11.2656762,3.42471042 12.6576838,3 14.4871796,3 C19.6972653,3.11583012 23.9926031,6.78378378 24.9868943,11.5714286 C25.1062092,12.3822394 24.3903196,13 23.67443,13 Z" id="Shape" fill="url(#linearGradient-2)" fill-rule="nonzero"></path>
                </g>
            </g>
        </g>
    </g>
</svg>