<?xml version="1.0" encoding="utf-8"?>
<!-- Generator: Adobe Illustrator 25.2.3, SVG Export Plug-In . SVG Version: 6.00 Build 0)  -->
<svg version="1.1" id="Capa_1" xmlns="http://www.w3.org/2000/svg" xmlns:xlink="http://www.w3.org/1999/xlink" x="0px" y="0px"
	 viewBox="0 0 288 44" style="enable-background:new 0 0 288 44;" xml:space="preserve">
<style type="text/css">
	.st0{fill:#4285F4;}
	.st1{fill:#34A853;}
	.st2{fill:#FABB05;}
	.st3{fill:#E94235;}
	.st4{fill:#3C4043;}
	.st5{fill:#FFFFFF;}
</style>
<desc>Created with Sketch.</desc>
<g>
	<path class="st0" d="M66.7,19.6v2.6h3.6c-0.2,0.8-0.6,1.6-1.3,2l2.2,1.7l0,0h0c1.3-1.2,2-2.9,2-4.9c0-0.5,0-0.9-0.1-1.4H66.7z"/>
	<path class="st1" d="M69,24.2c-0.6,0.4-1.4,0.6-2.3,0.6c-1.8,0-3.2-1.2-3.8-2.8l-2.2,1.7v0c1.1,2.2,3.4,3.7,6,3.7
		c1.8,0,3.3-0.6,4.5-1.6H69V24.2z"/>
	<polygon class="st1" points="69,24.2 69,25.9 71.2,25.9 71.2,25.9 	"/>
	<path class="st2" d="M63,22.1c-0.1-0.4-0.2-0.8-0.2-1.3c0-0.4,0.1-0.9,0.2-1.3l-2.2-1.7c-0.5,0.9-0.7,1.9-0.7,3s0.3,2.1,0.7,3v-1.7
		H63z"/>
	<polygon class="st2" points="60.7,22.1 60.7,23.8 63,22.1 	"/>
	<path class="st3" d="M63,19.5c0.5-1.6,2-2.8,3.8-2.8c1,0,1.9,0.3,2.6,1v0l1.9-1.9c-1.2-1.1-2.7-1.8-4.5-1.8c-2.6,0-4.9,1.5-6,3.7
		H63V19.5z"/>
	<polygon class="st3" points="63,17.8 60.7,17.8 63,19.5 	"/>
	<g>
		<rect x="110" y="13.8" class="st4" width="1" height="16"/>
		<path class="st5" d="M84.3,16c-0.7-0.7-1.6-1-2.6-1h-4v11.7h1.5v-4.7v0h2.5c1,0,1.9-0.3,2.6-1c0.7-0.7,1.1-1.5,1.1-2.5
			C85.4,17.5,85.1,16.7,84.3,16z M83.3,19.9c-0.4,0.4-0.9,0.6-1.5,0.6h-2.5v-4.1v0h2.5c0.6,0,1.1,0.2,1.5,0.6
			c0.4,0.4,0.6,0.9,0.6,1.4C83.9,19,83.7,19.5,83.3,19.9z"/>
		<path class="st5" d="M88.9,18.4c-1.4,0-2.5,0.5-3.2,1.6l1.3,0.8c0.5-0.7,1.2-1.1,2-1.1c0.6,0,1,0.2,1.5,0.5
			c0.4,0.4,0.6,0.8,0.6,1.3V22c-0.6-0.3-1.3-0.5-2.2-0.5c-1,0-1.9,0.2-2.5,0.7c-0.6,0.5-0.9,1.1-0.9,2c0,0.8,0.3,1.4,0.9,2
			c0.6,0.5,1.3,0.8,2.2,0.8c1,0,1.9-0.5,2.5-1.4H91v1.1h1.4v-4.9c0-1-0.3-1.8-1-2.4C90.9,18.7,90,18.4,88.9,18.4z M90.3,24.9
			c-0.5,0.5-1.1,0.7-1.7,0.7c-0.4,0-0.8-0.1-1.2-0.4c-0.3-0.3-0.5-0.6-0.5-1c0-0.4,0.2-0.8,0.6-1.1c0.4-0.3,0.9-0.4,1.5-0.4
			c0.8,0,1.5,0.2,2,0.6C91,23.9,90.8,24.4,90.3,24.9z"/>
		<polygon class="st5" points="96.8,24.4 96.8,24.4 94.4,18.7 92.7,18.7 96,26.2 94.2,30.2 95.7,30.2 100.7,18.7 99.1,18.7 		"/>
		<g>
			<path class="st5" d="M158.8,25.5c-0.3,0-0.6-0.1-0.7-0.3c-0.1-0.2-0.2-0.4-0.2-0.8V21h1.7v-1.4h-1.7v-2h-1.5v2H155V21h1.2v3.7
				c0,0.7,0.2,1.2,0.6,1.6c0.2,0.2,0.4,0.3,0.7,0.4c0.3,0.1,0.6,0.2,0.9,0.2c0.4,0,0.8-0.1,1.1-0.2v-1.5c-0.1,0.1-0.3,0.2-0.4,0.2
				S158.9,25.5,158.8,25.5z"/>
			<path class="st5" d="M195.2,19.9c-0.6-0.3-1.2-0.5-1.9-0.5c-0.7,0-1.4,0.2-1.9,0.5c-0.6,0.3-1,0.8-1.3,1.4
				c-0.3,0.6-0.5,1.2-0.5,1.9s0.2,1.4,0.5,1.9c0.3,0.6,0.8,1,1.3,1.4s1.2,0.5,1.9,0.5c0.7,0,1.4-0.2,1.9-0.5s1-0.8,1.3-1.4
				s0.5-1.2,0.5-1.9c0-0.7-0.2-1.3-0.5-1.9S195.8,20.3,195.2,19.9z M195.1,24.5c-0.2,0.4-0.5,0.6-0.8,0.8c-0.3,0.2-0.7,0.3-1.1,0.3
				c-0.4,0-0.8-0.1-1.1-0.3c-0.3-0.2-0.6-0.5-0.8-0.8c-0.2-0.4-0.3-0.8-0.3-1.3s0.1-0.9,0.3-1.3s0.5-0.6,0.8-0.8
				c0.3-0.2,0.7-0.3,1.1-0.3c0.4,0,0.8,0.1,1.1,0.3c0.3,0.2,0.6,0.5,0.8,0.8c0.2,0.4,0.3,0.8,0.3,1.3S195.3,24.1,195.1,24.5z"/>
			<path class="st5" d="M178.5,19.9c-0.5-0.3-1.1-0.5-1.8-0.5c-0.5,0-1,0.1-1.4,0.3c-0.4,0.2-0.7,0.5-0.9,0.8h-0.1v-0.9h-1.5v10.2
				h1.5v-3l-0.1-1h0.1c0.2,0.3,0.5,0.6,0.9,0.8c0.4,0.2,0.9,0.3,1.4,0.3c0.6,0,1.2-0.2,1.8-0.5c0.5-0.3,0.9-0.8,1.2-1.4
				c0.3-0.6,0.5-1.2,0.5-2c0-0.7-0.2-1.4-0.5-2C179.4,20.7,179,20.2,178.5,19.9z M178.3,24.5c-0.2,0.4-0.5,0.6-0.8,0.8
				s-0.7,0.3-1,0.3s-0.7-0.1-1-0.3c-0.3-0.2-0.6-0.5-0.8-0.8c-0.2-0.4-0.3-0.8-0.3-1.2s0.1-0.9,0.3-1.2s0.5-0.6,0.8-0.8
				c0.3-0.2,0.7-0.3,1-0.3s0.7,0.1,1,0.3c0.3,0.2,0.6,0.5,0.8,0.8s0.3,0.8,0.3,1.2S178.5,24.1,178.3,24.5z"/>
			<path class="st5" d="M185.3,19.4c-0.5,0-0.9,0.1-1.3,0.3c-0.4,0.2-0.7,0.5-0.9,0.8H183l0.1-1.1v-2.7h-1.5v10h1.5V23
				c0-0.4,0.1-0.7,0.2-1c0.2-0.3,0.4-0.6,0.7-0.8c0.3-0.2,0.6-0.3,0.9-0.3c0.5,0,0.8,0.1,1.1,0.4c0.3,0.3,0.4,0.7,0.4,1.2v4.3h1.5
				v-4.5c0-0.9-0.2-1.6-0.7-2.1S186.2,19.4,185.3,19.4z"/>
			<path class="st5" d="M202.2,19.4c-0.5,0-0.9,0.1-1.3,0.3c-0.4,0.2-0.7,0.5-0.9,0.8h-0.1v-0.9h-1.5v7.1h1.5v-3.9
				c0-0.4,0.1-0.7,0.2-1c0.1-0.3,0.4-0.6,0.6-0.8c0.3-0.2,0.6-0.3,0.9-0.3c0.5,0,0.9,0.1,1.1,0.4s0.4,0.7,0.4,1.2v4.3h1.5v-4.5
				c0-0.9-0.2-1.6-0.7-2.1C203.7,19.7,203,19.4,202.2,19.4z"/>
			<path class="st5" d="M213.4,23.1c0-0.7-0.1-1.3-0.4-1.9s-0.7-1-1.2-1.3s-1.2-0.5-1.9-0.5c-0.7,0-1.3,0.2-1.8,0.5
				c-0.5,0.3-1,0.8-1.3,1.4c-0.3,0.6-0.5,1.2-0.5,1.9c0,0.7,0.2,1.4,0.5,1.9c0.3,0.6,0.7,1,1.3,1.4c0.6,0.3,1.2,0.5,1.9,0.5
				c0.8,0,1.4-0.2,1.9-0.5s1-0.8,1.3-1.4l-1.3-0.6c-0.2,0.3-0.5,0.6-0.8,0.8c-0.3,0.2-0.7,0.3-1.1,0.3c-0.6,0-1-0.2-1.4-0.5
				c-0.4-0.4-0.7-0.9-0.7-1.5h5.5C213.4,23.4,213.4,23.2,213.4,23.1z M207.9,22.4c0.1-0.5,0.4-0.9,0.7-1.2c0.3-0.3,0.8-0.4,1.3-0.4
				c0.4,0,0.8,0.1,1,0.3c0.3,0.2,0.5,0.4,0.6,0.6c0.1,0.2,0.2,0.5,0.2,0.7H207.9z"/>
			<polygon class="st5" points="139.3,24.8 139.2,24.8 137.2,19.7 135.5,19.7 138.4,26.8 140,26.8 143,19.7 141.3,19.7 			"/>
			<path class="st5" d="M124.2,21l-0.6-0.2c-0.6-0.2-1-0.4-1.3-0.6c-0.3-0.2-0.4-0.5-0.4-0.9c0-0.4,0.2-0.7,0.5-0.9
				c0.3-0.2,0.7-0.3,1.2-0.3s0.8,0.1,1.1,0.4c0.3,0.2,0.5,0.5,0.6,0.8l1.4-0.6c-0.2-0.5-0.5-1-1-1.4c-0.5-0.4-1.2-0.6-2.1-0.6
				c-0.6,0-1.2,0.1-1.6,0.4s-0.9,0.6-1.1,1c-0.3,0.4-0.4,0.9-0.4,1.4c0,0.7,0.2,1.3,0.7,1.7s1,0.8,1.7,1l0.6,0.2
				c0.8,0.3,1.3,0.5,1.6,0.8c0.3,0.3,0.5,0.6,0.5,1c0,0.4-0.2,0.8-0.5,1.1c-0.3,0.3-0.8,0.4-1.3,0.4c-0.5,0-1-0.2-1.4-0.5
				s-0.6-0.8-0.8-1.4l-1.5,0.6c0.3,0.9,0.7,1.6,1.4,2c0.7,0.5,1.4,0.7,2.2,0.7c0.6,0,1.1-0.1,1.6-0.3s0.9-0.5,1.3-1
				c0.3-0.4,0.5-1,0.5-1.6c0-0.8-0.2-1.4-0.7-1.9C125.8,21.7,125.1,21.3,124.2,21z"/>
			<path class="st5" d="M131.4,19.4c-0.6,0-1.2,0.1-1.7,0.4c-0.5,0.2-0.9,0.6-1.2,1l1.1,0.8c0.2-0.3,0.5-0.5,0.8-0.7
				c0.3-0.2,0.7-0.2,1-0.2c0.5,0,0.9,0.1,1.3,0.4c0.3,0.3,0.5,0.6,0.5,1.1v0.4c-0.2-0.1-0.5-0.2-0.8-0.3c-0.3-0.1-0.7-0.1-1.1-0.1
				c-0.8,0-1.6,0.2-2.1,0.6c-0.6,0.4-0.8,1-0.8,1.8c0,0.5,0.1,0.9,0.3,1.3c0.2,0.4,0.5,0.7,0.9,0.9s0.9,0.3,1.4,0.3
				c0.5,0,0.9-0.1,1.3-0.3c0.4-0.2,0.7-0.5,0.9-0.8h0.1v0.9h1.5v-4.5c0-0.9-0.3-1.6-0.8-2.1S132.4,19.4,131.4,19.4z M132.8,24.8
				c-0.2,0.3-0.4,0.5-0.7,0.7c-0.3,0.2-0.6,0.3-1,0.3c-0.4,0-0.7-0.1-1-0.3c-0.3-0.2-0.4-0.5-0.4-0.8c0-0.4,0.1-0.7,0.4-0.9
				c0.3-0.2,0.7-0.3,1.3-0.3c0.3,0,0.6,0,0.9,0.1c0.3,0.1,0.5,0.2,0.7,0.3C133.1,24.1,133,24.5,132.8,24.8z"/>
			<path class="st5" d="M166.2,19.9c-0.6-0.3-1.2-0.5-1.9-0.5c-0.7,0-1.4,0.2-1.9,0.5c-0.6,0.3-1,0.8-1.3,1.4s-0.5,1.2-0.5,1.9
				s0.2,1.4,0.5,1.9s0.8,1,1.3,1.4s1.2,0.5,1.9,0.5c0.7,0,1.4-0.2,1.9-0.5s1-0.8,1.3-1.4s0.5-1.2,0.5-1.9c0-0.7-0.2-1.3-0.5-1.9
				S166.7,20.3,166.2,19.9z M166.1,24.5c-0.2,0.4-0.5,0.6-0.8,0.8c-0.3,0.2-0.7,0.3-1.1,0.3c-0.4,0-0.8-0.1-1.1-0.3
				c-0.3-0.2-0.6-0.5-0.8-0.8c-0.2-0.4-0.3-0.8-0.3-1.3s0.1-0.9,0.3-1.3s0.5-0.6,0.8-0.8c0.3-0.2,0.7-0.3,1.1-0.3
				c0.4,0,0.8,0.1,1.1,0.3c0.3,0.2,0.6,0.5,0.8,0.8s0.3,0.8,0.3,1.3S166.3,24.1,166.1,24.5z"/>
			<path class="st5" d="M148.9,19.9c-0.5-0.3-1.2-0.5-1.9-0.5c-0.7,0-1.3,0.2-1.8,0.5s-1,0.8-1.3,1.4c-0.3,0.6-0.5,1.2-0.5,1.9
				c0,0.7,0.2,1.4,0.5,1.9c0.3,0.6,0.7,1,1.3,1.4c0.6,0.3,1.2,0.5,1.9,0.5c0.8,0,1.4-0.2,1.9-0.5c0.5-0.3,1-0.8,1.3-1.4l-1.3-0.6
				c-0.2,0.3-0.5,0.6-0.8,0.8c-0.3,0.2-0.7,0.3-1.1,0.3c-0.6,0-1-0.2-1.4-0.5c-0.4-0.4-0.7-0.9-0.7-1.5h5.5c0-0.2,0-0.4,0-0.5
				c0-0.7-0.1-1.3-0.4-1.9S149.5,20.2,148.9,19.9z M145.1,22.4c0.1-0.5,0.4-0.9,0.7-1.2c0.3-0.3,0.8-0.4,1.3-0.4
				c0.4,0,0.8,0.1,1,0.3c0.3,0.2,0.5,0.4,0.6,0.6c0.1,0.2,0.2,0.5,0.2,0.7H145.1z"/>
		</g>
	</g>
</g>
</svg>
