<?xml version="1.0" encoding="UTF-8"?>
<svg width="10px" height="10px" viewBox="0 0 10 10" version="1.1" xmlns="http://www.w3.org/2000/svg" xmlns:xlink="http://www.w3.org/1999/xlink">
    <title>Icons / 20px</title>
    <g stroke="none" stroke-width="1" fill="none" fill-rule="evenodd">
        <g transform="translate(-96.000000, -269.000000)" fill="#262C2F" fill-rule="nonzero">
            <g transform="translate(91.000000, 264.000000)">
                <path d="M5,11.0000005 L15,11.0000005 C15.5522847,11.0000005 16,10.5522852 16,10.0000005 C16,9.44771572 15.5522847,9.00000047 15,9.00000047 L5,9.00000047 C4.44771525,9.00000047 4,9.44771572 4,10.0000005 C4,10.5522852 4.44771525,11.0000005 5,11.0000005 Z" id="Line-2" transform="translate(10.000000, 10.000000) rotate(-315.000000) translate(-10.000000, -10.000000) "></path>
                <path d="M5,11.0000005 L15,11.0000005 C15.5522847,11.0000005 16,10.5522852 16,10.0000005 C16,9.44771572 15.5522847,9.00000047 15,9.00000047 L5,9.00000047 C4.44771525,9.00000047 4,9.44771572 4,10.0000005 C4,10.5522852 4.44771525,11.0000005 5,11.0000005 Z" id="Line-2" transform="translate(10.000000, 10.000000) rotate(-585.000000) translate(-10.000000, -10.000000) "></path>
            </g>
        </g>
    </g>
</svg>