<?xml version="1.0" encoding="UTF-8"?>
<svg width="24px" height="16px" viewBox="0 0 24 16" version="1.1" xmlns="http://www.w3.org/2000/svg" xmlns:xlink="http://www.w3.org/1999/xlink">
    <title>Icons / 24px</title>
    <g id="Symbols" stroke="none" stroke-width="1" fill="#262C2F" fill-rule="evenodd">
        <g id="Tab-Bar-/-Wallet" transform="translate(-327.000000, -17.000000)" fill="#262C2F" fill-rule="nonzero">
            <g id="Tab-Bar">
                <g>
                    <g id="Group-12" transform="translate(301.000000, 0.000000)">
                        <g filter="url(#filter-1)" id="Icons-/-24px">
                            <g transform="translate(26.000000, 12.000000)">
                                <g id="Group" fill="none" transform="translate(0.000000, 5.000000)" fill-rule="nonzero" fill="#262C2F">
                                    <path d="M24,5 L24,2.22826087 C24,1.0326087 22.9953488,0 21.7116279,0 L2.28837209,0 C1.06046512,0 0,0.97826087 0,2.22826087 L0,5 L24,5 Z" id="Path" fill="#FFFFFF"></path>
                                    <path d="M0,7 L0,14 C0,14.9839572 1.00465116,16 2,16 L22,16 C22.9395349,16 24,15.0374332 24,14 L24,7 L0,7 Z M20,13 L15,13 C14.4477153,13 14,12.5522847 14,12 C14,11.4477153 14.4477153,11 15,11 L20,11 C20.5522847,11 21,11.4477153 21,12 C21,12.5522847 20.5522847,13 20,13 Z" id="Shape" fill="#FFFFFF"></path>
                                </g>
                            </g>
                        </g>
                    </g>
                </g>
            </g>
        </g>
    </g>
</svg>
