<svg width="327" height="56" viewBox="0 0 327 56" fill="none" xmlns="http://www.w3.org/2000/svg">
<path d="M20.8896 4H148.702" stroke="#0066CC"/>
<path d="M150.15 4L290.095 4" stroke="#909BA0" stroke-linecap="round" stroke-dasharray="2 6"/>
<path d="M1.84375 25.1836C1.90527 27.043 3.4707 28.1709 5.82227 28.1709C8.29004 28.1709 9.80078 26.9473 9.80078 25.0195C9.80078 23.5225 8.8916 22.6816 6.80664 22.2646L5.76074 22.0527C4.59863 21.8203 4.12012 21.4443 4.12012 20.8359C4.12012 20.1113 4.80371 19.6328 5.82227 19.6328C6.86133 19.6328 7.59277 20.1387 7.66113 20.9795H9.60938C9.5752 19.168 8.12598 17.9648 5.82227 17.9648C3.62793 17.9648 2.05566 19.1611 2.05566 20.9658C2.05566 22.4355 3.01953 23.3789 4.98828 23.7686L6.02734 23.9736C7.26465 24.2266 7.72949 24.5957 7.72949 25.2451C7.72949 25.9697 6.97754 26.5029 5.87695 26.5029C4.75586 26.5029 3.92188 26.0107 3.79199 25.1836H1.84375ZM14.1826 21.9912C15.0713 21.9912 15.6797 22.6338 15.7207 23.5703H12.6104C12.6787 22.6543 13.3076 21.9912 14.1826 21.9912ZM15.748 25.7578C15.5635 26.3184 15.0029 26.6807 14.2715 26.6807C13.2529 26.6807 12.5898 25.9629 12.5898 24.917V24.7939H17.6416V24.1855C17.6416 21.957 16.2949 20.5146 14.1621 20.5146C11.9951 20.5146 10.6279 22.0322 10.6279 24.3701C10.6279 26.7148 11.9814 28.1572 14.2373 28.1572C16.0488 28.1572 17.3613 27.1934 17.5801 25.7578H15.748ZM18.7217 28H20.7178V18.1357H18.7217V28ZM25.3525 21.9912C26.2412 21.9912 26.8496 22.6338 26.8906 23.5703H23.7803C23.8486 22.6543 24.4775 21.9912 25.3525 21.9912ZM26.918 25.7578C26.7334 26.3184 26.1729 26.6807 25.4414 26.6807C24.4229 26.6807 23.7598 25.9629 23.7598 24.917V24.7939H28.8115V24.1855C28.8115 21.957 27.4648 20.5146 25.332 20.5146C23.165 20.5146 21.7979 22.0322 21.7979 24.3701C21.7979 26.7148 23.1514 28.1572 25.4072 28.1572C27.2188 28.1572 28.5312 27.1934 28.75 25.7578H26.918ZM36.502 23.3994C36.4131 21.7383 35.1553 20.5146 33.1729 20.5146C30.9785 20.5146 29.5771 21.9775 29.5771 24.3291C29.5771 26.7217 30.9785 28.1572 33.1865 28.1572C35.1143 28.1572 36.4062 27.043 36.5088 25.3135H34.6494C34.5264 26.1133 34.0068 26.5918 33.207 26.5918C32.2158 26.5918 31.6006 25.7715 31.6006 24.3291C31.6006 22.9141 32.2158 22.0801 33.2002 22.0801C34.0205 22.0801 34.5332 22.627 34.6494 23.3994H36.502ZM38.0059 18.9834V20.6719H36.9736V22.1758H38.0059V26.0244C38.0059 27.4531 38.6758 28.0273 40.3984 28.0273C40.8018 28.0273 41.1436 27.9932 41.3486 27.9453V26.4756C41.2256 26.4961 41.041 26.5098 40.8633 26.5098C40.2754 26.5098 40.002 26.2432 40.002 25.6826V22.1758H41.3555V20.6719H40.002V18.9834H38.0059ZM4.87891 47.6738C4.20215 47.6738 3.75098 47.332 3.75098 46.7852C3.75098 46.2656 4.1748 45.9307 4.91992 45.876L6.46484 45.7803V46.3135C6.46484 47.1064 5.74707 47.6738 4.87891 47.6738ZM4.22266 49.1162C5.13867 49.1162 6.04785 48.6582 6.45801 47.8789H6.49902V49H8.42676V43.9619C8.42676 42.4854 7.20312 41.5146 5.32324 41.5146C3.38184 41.5146 2.17188 42.4922 2.09668 43.9141H3.92188C4.01758 43.374 4.48926 43.0049 5.23438 43.0049C5.98633 43.0049 6.46484 43.4014 6.46484 44.085V44.5703L4.61914 44.6797C2.79395 44.7891 1.76855 45.5615 1.76855 46.8945C1.76855 48.2139 2.82812 49.1162 4.22266 49.1162ZM12.3711 43.8252C12.3711 44.9258 13.0889 45.6367 14.5039 45.9375L15.7549 46.1973C16.4727 46.3613 16.7256 46.5801 16.7256 46.9697C16.7256 47.4482 16.2607 47.7559 15.5088 47.7559C14.7158 47.7559 14.2578 47.4141 14.1348 46.7715H12.1865C12.3164 48.2139 13.4854 49.1572 15.5088 49.1572C17.3955 49.1572 18.7148 48.207 18.7148 46.7646C18.7148 45.6914 18.0859 45.0898 16.5547 44.7686L15.3037 44.502C14.5654 44.3447 14.292 44.0918 14.292 43.7158C14.292 43.2305 14.75 42.916 15.4404 42.916C16.1787 42.916 16.623 43.3193 16.6846 43.9141H18.5234C18.4824 42.4785 17.3203 41.5146 15.4404 41.5146C13.5742 41.5146 12.3711 42.4307 12.3711 43.8252ZM20.2324 39.9834V41.6719H19.2002V43.1758H20.2324V47.0244C20.2324 48.4531 20.9023 49.0273 22.625 49.0273C23.0283 49.0273 23.3701 48.9932 23.5752 48.9453V47.4756C23.4521 47.4961 23.2676 47.5098 23.0898 47.5098C22.502 47.5098 22.2285 47.2432 22.2285 46.6826V43.1758H23.582V41.6719H22.2285V39.9834H20.2324ZM27.9297 49.1572C30.1445 49.1572 31.5596 47.7422 31.5596 45.3291C31.5596 42.9502 30.124 41.5146 27.9297 41.5146C25.7354 41.5146 24.2998 42.957 24.2998 45.3291C24.2998 47.7354 25.7148 49.1572 27.9297 49.1572ZM27.9297 47.6328C26.9453 47.6328 26.3232 46.8057 26.3232 45.3359C26.3232 43.8799 26.959 43.0391 27.9297 43.0391C28.9004 43.0391 29.5293 43.8799 29.5293 45.3359C29.5293 46.8057 28.9072 47.6328 27.9297 47.6328ZM32.5918 49H34.5879V44.9053C34.5879 43.873 35.1621 43.2715 36.1465 43.2715C36.4336 43.2715 36.707 43.3193 36.8711 43.3877V41.6309C36.7344 41.5898 36.5361 41.5557 36.3037 41.5557C35.4424 41.5557 34.8203 42.0615 34.5605 42.9912H34.5195V41.6719H32.5918V49ZM40.7334 42.9912C41.6221 42.9912 42.2305 43.6338 42.2715 44.5703H39.1611C39.2295 43.6543 39.8584 42.9912 40.7334 42.9912ZM42.2988 46.7578C42.1143 47.3184 41.5537 47.6807 40.8223 47.6807C39.8037 47.6807 39.1406 46.9629 39.1406 45.917V45.7939H44.1924V45.1855C44.1924 42.957 42.8457 41.5146 40.7129 41.5146C38.5459 41.5146 37.1787 43.0322 37.1787 45.3701C37.1787 47.7148 38.5322 49.1572 40.7881 49.1572C42.5996 49.1572 43.9121 48.1934 44.1309 46.7578H42.2988Z" fill="#0066CC"/>
<circle cx="19.4072" cy="4" r="4" fill="#0066CC"/>
<path d="M137.924 29V19.1357H135.531L132.729 26.2178H132.674L129.871 19.1357H127.479V29H129.317V22.3418H129.372L132.052 29H133.351L136.03 22.3418H136.085V29H137.924ZM142.06 27.6738C141.383 27.6738 140.932 27.332 140.932 26.7852C140.932 26.2656 141.355 25.9307 142.101 25.876L143.646 25.7803V26.3135C143.646 27.1064 142.928 27.6738 142.06 27.6738ZM141.403 29.1162C142.319 29.1162 143.229 28.6582 143.639 27.8789H143.68V29H145.607V23.9619C145.607 22.4854 144.384 21.5146 142.504 21.5146C140.562 21.5146 139.353 22.4922 139.277 23.9141H141.103C141.198 23.374 141.67 23.0049 142.415 23.0049C143.167 23.0049 143.646 23.4014 143.646 24.085V24.5703L141.8 24.6797C139.975 24.7891 138.949 25.5615 138.949 26.8945C138.949 28.2139 140.009 29.1162 141.403 29.1162ZM148.971 24.6113H148.943V19.1357H146.947V29H148.943V26.5801L149.463 26.0195L151.562 29H153.858L150.926 24.8164L153.722 21.6719H151.459L148.971 24.6113ZM157.379 22.9912C158.268 22.9912 158.876 23.6338 158.917 24.5703H155.807C155.875 23.6543 156.504 22.9912 157.379 22.9912ZM158.944 26.7578C158.76 27.3184 158.199 27.6807 157.468 27.6807C156.449 27.6807 155.786 26.9629 155.786 25.917V25.7939H160.838V25.1855C160.838 22.957 159.491 21.5146 157.358 21.5146C155.191 21.5146 153.824 23.0322 153.824 25.3701C153.824 27.7148 155.178 29.1572 157.434 29.1572C159.245 29.1572 160.558 28.1934 160.776 26.7578H158.944ZM167.476 27.6738C166.799 27.6738 166.348 27.332 166.348 26.7852C166.348 26.2656 166.771 25.9307 167.517 25.876L169.062 25.7803V26.3135C169.062 27.1064 168.344 27.6738 167.476 27.6738ZM166.819 29.1162C167.735 29.1162 168.645 28.6582 169.055 27.8789H169.096V29H171.023V23.9619C171.023 22.4854 169.8 21.5146 167.92 21.5146C165.979 21.5146 164.769 22.4922 164.693 23.9141H166.519C166.614 23.374 167.086 23.0049 167.831 23.0049C168.583 23.0049 169.062 23.4014 169.062 24.085V24.5703L167.216 24.6797C165.391 24.7891 164.365 25.5615 164.365 26.8945C164.365 28.2139 165.425 29.1162 166.819 29.1162ZM124.238 42.5557C123.179 42.5557 122.365 43.0889 121.969 43.9502H121.928V42.6719H119.959V52.3926H121.955V48.7695H121.996C122.386 49.5967 123.206 50.1162 124.272 50.1162C126.104 50.1162 127.239 48.6943 127.239 46.3359C127.239 43.9707 126.098 42.5557 124.238 42.5557ZM123.568 48.5098C122.591 48.5098 121.948 47.6621 121.948 46.3359C121.948 45.0234 122.591 44.1553 123.568 44.1553C124.566 44.1553 125.195 45.0098 125.195 46.3359C125.195 47.6689 124.566 48.5098 123.568 48.5098ZM135.039 42.6719H133.043V46.8691C133.043 47.8398 132.489 48.4756 131.601 48.4756C130.719 48.4756 130.233 47.9561 130.233 46.9785V42.6719H128.237V47.3955C128.237 49.1045 129.29 50.1367 130.876 50.1367C131.983 50.1367 132.708 49.6035 133.07 48.6807H133.111V50H135.039V42.6719ZM136.338 50H138.334V45.9053C138.334 44.873 138.908 44.2715 139.893 44.2715C140.18 44.2715 140.453 44.3193 140.617 44.3877V42.6309C140.48 42.5898 140.282 42.5557 140.05 42.5557C139.188 42.5557 138.566 43.0615 138.307 43.9912H138.266V42.6719H136.338V50ZM147.85 45.3994C147.761 43.7383 146.503 42.5146 144.521 42.5146C142.326 42.5146 140.925 43.9775 140.925 46.3291C140.925 48.7217 142.326 50.1572 144.534 50.1572C146.462 50.1572 147.754 49.043 147.856 47.3135H145.997C145.874 48.1133 145.354 48.5918 144.555 48.5918C143.563 48.5918 142.948 47.7715 142.948 46.3291C142.948 44.9141 143.563 44.0801 144.548 44.0801C145.368 44.0801 145.881 44.627 145.997 45.3994H147.85ZM148.868 50H150.864V45.8164C150.864 44.8525 151.418 44.1895 152.361 44.1895C153.271 44.1895 153.735 44.7637 153.735 45.707V50H155.731V45.2832C155.731 43.5879 154.802 42.5352 153.175 42.5352C152.061 42.5352 151.261 43.0547 150.871 43.9775H150.83V40.1357H148.868V50ZM159.84 48.6738C159.163 48.6738 158.712 48.332 158.712 47.7852C158.712 47.2656 159.136 46.9307 159.881 46.876L161.426 46.7803V47.3135C161.426 48.1064 160.708 48.6738 159.84 48.6738ZM159.184 50.1162C160.1 50.1162 161.009 49.6582 161.419 48.8789H161.46V50H163.388V44.9619C163.388 43.4854 162.164 42.5146 160.284 42.5146C158.343 42.5146 157.133 43.4922 157.058 44.9141H158.883C158.979 44.374 159.45 44.0049 160.195 44.0049C160.947 44.0049 161.426 44.4014 161.426 45.085V45.5703L159.58 45.6797C157.755 45.7891 156.729 46.5615 156.729 47.8945C156.729 49.2139 157.789 50.1162 159.184 50.1162ZM164.557 44.8252C164.557 45.9258 165.274 46.6367 166.689 46.9375L167.94 47.1973C168.658 47.3613 168.911 47.5801 168.911 47.9697C168.911 48.4482 168.446 48.7559 167.694 48.7559C166.901 48.7559 166.443 48.4141 166.32 47.7715H164.372C164.502 49.2139 165.671 50.1572 167.694 50.1572C169.581 50.1572 170.9 49.207 170.9 47.7646C170.9 46.6914 170.271 46.0898 168.74 45.7686L167.489 45.502C166.751 45.3447 166.478 45.0918 166.478 44.7158C166.478 44.2305 166.936 43.916 167.626 43.916C168.364 43.916 168.809 44.3193 168.87 44.9141H170.709C170.668 43.4785 169.506 42.5146 167.626 42.5146C165.76 42.5146 164.557 43.4307 164.557 44.8252ZM175.173 43.9912C176.062 43.9912 176.67 44.6338 176.711 45.5703H173.601C173.669 44.6543 174.298 43.9912 175.173 43.9912ZM176.738 47.7578C176.554 48.3184 175.993 48.6807 175.262 48.6807C174.243 48.6807 173.58 47.9629 173.58 46.917V46.7939H178.632V46.1855C178.632 43.957 177.285 42.5146 175.152 42.5146C172.985 42.5146 171.618 44.0322 171.618 46.3701C171.618 48.7148 172.972 50.1572 175.228 50.1572C177.039 50.1572 178.352 49.1934 178.57 47.7578H176.738Z" fill="#909BA0"/>
<circle cx="148.342" cy="4" r="4" fill="#909BA0"/>
<path d="M285.293 24.8574V23.7432H281.137V25.2471H283.283L283.276 25.4043C283.235 26.6279 282.299 27.4551 280.952 27.4551C279.312 27.4551 278.272 26.1494 278.272 24.0098C278.272 21.9111 279.25 20.6738 280.877 20.6738C281.991 20.6738 282.832 21.2891 283.133 22.3213H285.204C284.91 20.3252 283.174 18.9648 280.87 18.9648C277.972 18.9648 276.167 20.8789 276.167 24.0371C276.167 27.2432 277.972 29.1709 280.918 29.1709C283.666 29.1709 285.293 27.5439 285.293 24.8574ZM289.777 22.9912C290.666 22.9912 291.274 23.6338 291.315 24.5703H288.205C288.273 23.6543 288.902 22.9912 289.777 22.9912ZM291.343 26.7578C291.158 27.3184 290.598 27.6807 289.866 27.6807C288.848 27.6807 288.185 26.9629 288.185 25.917V25.7939H293.236V25.1855C293.236 22.957 291.89 21.5146 289.757 21.5146C287.59 21.5146 286.223 23.0322 286.223 25.3701C286.223 27.7148 287.576 29.1572 289.832 29.1572C291.644 29.1572 292.956 28.1934 293.175 26.7578H291.343ZM294.802 19.9834V21.6719H293.77V23.1758H294.802V27.0244C294.802 28.4531 295.472 29.0273 297.194 29.0273C297.598 29.0273 297.939 28.9932 298.145 28.9453V27.4756C298.021 27.4961 297.837 27.5098 297.659 27.5098C297.071 27.5098 296.798 27.2432 296.798 26.6826V23.1758H298.151V21.6719H296.798V19.9834H294.802ZM251.893 47.1836C251.954 49.043 253.52 50.1709 255.871 50.1709C258.339 50.1709 259.85 48.9473 259.85 47.0195C259.85 45.5225 258.94 44.6816 256.855 44.2646L255.81 44.0527C254.647 43.8203 254.169 43.4443 254.169 42.8359C254.169 42.1113 254.853 41.6328 255.871 41.6328C256.91 41.6328 257.642 42.1387 257.71 42.9795H259.658C259.624 41.168 258.175 39.9648 255.871 39.9648C253.677 39.9648 252.104 41.1611 252.104 42.9658C252.104 44.4355 253.068 45.3789 255.037 45.7686L256.076 45.9736C257.313 46.2266 257.778 46.5957 257.778 47.2451C257.778 47.9697 257.026 48.5029 255.926 48.5029C254.805 48.5029 253.971 48.0107 253.841 47.1836H251.893ZM265.708 50V46.3154L269.146 40.1357H266.932L264.717 44.3467H264.669L262.461 40.1357H260.212L263.644 46.3154V50H265.708ZM276.058 43.2598H276.119L277.992 50H279.94L282.559 40.1357H280.419L278.86 47.2793H278.806L276.96 40.1357H275.217L273.371 47.2793H273.316L271.765 40.1357H269.625L272.236 50H274.185L276.058 43.2598ZM290.557 42.5557C289.497 42.5557 288.684 43.0889 288.287 43.9502H288.246V42.6719H286.277V52.3926H288.273V48.7695H288.314C288.704 49.5967 289.524 50.1162 290.591 50.1162C292.423 50.1162 293.558 48.6943 293.558 46.3359C293.558 43.9707 292.416 42.5557 290.557 42.5557ZM289.887 48.5098C288.909 48.5098 288.267 47.6621 288.267 46.3359C288.267 45.0234 288.909 44.1553 289.887 44.1553C290.885 44.1553 291.514 45.0098 291.514 46.3359C291.514 47.6689 290.885 48.5098 289.887 48.5098ZM297.953 50.1572C300.168 50.1572 301.583 48.7422 301.583 46.3291C301.583 43.9502 300.147 42.5146 297.953 42.5146C295.759 42.5146 294.323 43.957 294.323 46.3291C294.323 48.7354 295.738 50.1572 297.953 50.1572ZM297.953 48.6328C296.969 48.6328 296.347 47.8057 296.347 46.3359C296.347 44.8799 296.982 44.0391 297.953 44.0391C298.924 44.0391 299.553 44.8799 299.553 46.3359C299.553 47.8057 298.931 48.6328 297.953 48.6328ZM302.649 50H304.646V42.6719H302.649V50ZM303.641 41.6807C304.222 41.6807 304.68 41.2158 304.68 40.6553C304.68 40.0879 304.222 39.6299 303.641 39.6299C303.06 39.6299 302.602 40.0879 302.602 40.6553C302.602 41.2158 303.06 41.6807 303.641 41.6807ZM305.979 50H307.975V45.7959C307.975 44.8457 308.542 44.1895 309.438 44.1895C310.333 44.1895 310.784 44.7363 310.784 45.6934V50H312.78V45.2764C312.78 43.5605 311.864 42.5352 310.237 42.5352C309.109 42.5352 308.337 43.0684 307.947 43.9775H307.906V42.6719H305.979V50ZM314.578 40.9834V42.6719H313.546V44.1758H314.578V48.0244C314.578 49.4531 315.248 50.0273 316.971 50.0273C317.374 50.0273 317.716 49.9932 317.921 49.9453V48.4756C317.798 48.4961 317.613 48.5098 317.436 48.5098C316.848 48.5098 316.574 48.2432 316.574 47.6826V44.1758H317.928V42.6719H316.574V40.9834H314.578ZM318.898 44.8252C318.898 45.9258 319.616 46.6367 321.031 46.9375L322.282 47.1973C323 47.3613 323.253 47.5801 323.253 47.9697C323.253 48.4482 322.788 48.7559 322.036 48.7559C321.243 48.7559 320.785 48.4141 320.662 47.7715H318.714C318.844 49.2139 320.013 50.1572 322.036 50.1572C323.923 50.1572 325.242 49.207 325.242 47.7646C325.242 46.6914 324.613 46.0898 323.082 45.7686L321.831 45.502C321.093 45.3447 320.819 45.0918 320.819 44.7158C320.819 44.2305 321.277 43.916 321.968 43.916C322.706 43.916 323.15 44.3193 323.212 44.9141H325.051C325.01 43.4785 323.848 42.5146 321.968 42.5146C320.102 42.5146 318.898 43.4307 318.898 44.8252Z" fill="#909BA0"/>
<circle cx="290.489" cy="4" r="4" fill="#909BA0"/>
</svg>
